<svg width="72" height="104" viewBox="0 0 72 104" fill="none" xmlns="http://www.w3.org/2000/svg">
<path opacity="0.2" d="M0.76 91.184C16.312 80.528 28.744 70.112 38.056 59.936C47.464 49.664 52.168 40.16 52.168 31.424C52.168 26.24 50.872 22.112 48.28 19.04C45.784 15.968 41.704 14.432 36.04 14.432C30.184 14.432 25.768 16.352 22.792 20.192C19.816 23.936 18.136 29.312 17.752 36.32H1.768C2.44 24.704 5.992 15.824 12.424 9.68C18.952 3.53599 27.256 0.463994 37.336 0.463994C47.224 0.463994 54.952 3.10399 60.52 8.384C66.184 13.568 69.016 20.768 69.016 29.984C69.016 37.376 66.712 44.864 62.104 52.448C57.592 60.032 51.832 67.04 44.824 73.472C37.816 79.808 30.568 85.28 23.08 89.888H71.32V103.28H0.76V91.184Z" fill="black"/>
</svg>
