<svg width="71" height="107" viewBox="0 0 71 107" fill="none" xmlns="http://www.w3.org/2000/svg">
<path opacity="0.2" d="M37.2 0.167994C43.92 0.167994 49.68 1.368 54.48 3.768C59.28 6.072 62.88 9.288 65.28 13.416C67.776 17.544 69.024 22.152 69.024 27.24C69.024 33.672 67.2 39.048 63.552 43.368C60 47.592 54.96 50.136 48.432 51V51.72C55.44 53.736 60.912 56.76 64.848 60.792C68.88 64.728 70.896 70.2 70.896 77.208C70.896 85.752 68.064 92.712 62.4 98.088C56.736 103.368 48.624 106.008 38.064 106.008C27.216 106.008 18.48 103.272 11.856 97.8C5.232 92.232 1.44 84.024 0.48 73.176H16.752C17.328 78.936 19.392 83.544 22.944 87C26.496 90.36 31.296 92.04 37.344 92.04C43.008 92.04 47.328 90.552 50.304 87.576C53.376 84.6 54.912 80.76 54.912 76.056C54.912 70.392 52.704 66.072 48.288 63.096C43.968 60.12 37.68 58.632 29.424 58.632H25.536V45.096H29.424C45.072 45.288 52.896 39.96 52.896 29.112C52.896 24.408 51.456 20.712 48.576 18.024C45.696 15.336 41.76 13.992 36.768 13.992C31.776 13.992 27.6 15.528 24.24 18.6C20.88 21.576 18.864 25.944 18.192 31.704H2.064C2.736 21.72 6.096 13.992 12.144 8.52C18.192 2.95199 26.544 0.167994 37.2 0.167994Z" fill="black"/>
</svg>
