<svg width="72" height="105" viewBox="0 0 72 105" fill="none" xmlns="http://www.w3.org/2000/svg">
<path opacity="0.2" d="M66.904 15.296H16.648V45.536C18.952 42.56 22.216 40.208 26.44 38.48C30.664 36.656 35.32 35.744 40.408 35.744C47.512 35.744 53.416 37.28 58.12 40.352C62.824 43.328 66.28 47.312 68.488 52.304C70.792 57.296 71.944 62.816 71.944 68.864C71.944 79.52 68.968 88.16 63.016 94.784C57.064 101.312 48.424 104.576 37.096 104.576C26.44 104.576 17.848 101.744 11.32 96.08C4.792 90.416 1.24 82.88 0.664 73.472H16.792C17.656 78.656 19.768 82.736 23.128 85.712C26.584 88.688 30.952 90.176 36.232 90.176C42.76 90.176 47.656 88.208 50.92 84.272C54.184 80.336 55.816 75.104 55.816 68.576C55.816 62.432 54.136 57.632 50.776 54.176C47.416 50.624 42.616 48.848 36.376 48.848C31.96 48.848 28.072 49.808 24.712 51.728C21.448 53.648 19.048 56.192 17.512 59.36H1.528V0.751999H66.904V15.296Z" fill="black"/>
</svg>
