<svg width="75" height="107" viewBox="0 0 75 107" fill="none" xmlns="http://www.w3.org/2000/svg">
<path opacity="0.2" d="M55.216 30.696C53.488 19.368 47.584 13.704 37.504 13.704C30.208 13.704 24.736 16.632 21.088 22.488C17.44 28.248 15.616 37.32 15.616 49.704L15.76 54.6C17.2 49.416 20.32 45.288 25.12 42.216C29.92 39.144 35.584 37.608 42.112 37.608C52.096 37.608 59.92 40.584 65.584 46.536C71.248 52.488 74.08 60.888 74.08 71.736C74.08 78.264 72.784 84.12 70.192 89.304C67.6 94.392 63.712 98.472 58.528 101.544C53.344 104.52 46.96 106.008 39.376 106.008C24.688 106.008 14.608 101.448 9.136 92.328C3.664 83.208 0.928 70.68 0.928 54.744C0.928 36.504 3.856 22.872 9.712 13.848C15.568 4.82399 25.168 0.311992 38.512 0.311992C48.496 0.311992 56.128 3.14399 61.408 8.80799C66.784 14.472 69.904 21.768 70.768 30.696H55.216ZM17.2 69.864C17.2 76.104 19.024 81.336 22.672 85.56C26.32 89.688 31.696 91.752 38.8 91.752C44.848 91.752 49.648 89.976 53.2 86.424C56.848 82.872 58.672 77.928 58.672 71.592C58.672 64.776 56.848 59.544 53.2 55.896C49.552 52.248 44.608 50.424 38.368 50.424C32.704 50.424 27.76 52.104 23.536 55.464C19.312 58.824 17.2 63.624 17.2 69.864Z" fill="black"/>
</svg>
