<svg width="612" height="895" viewBox="0 0 612 895" fill="none" xmlns="http://www.w3.org/2000/svg">
<g filter="url(#filter0_d)">
<rect x="32" y="28" width="622.032" height="832" rx="15.7476" fill="white"/>
</g>
<rect x="81.8675" y="759.39" width="253.712" height="60.3659" rx="6.56308" fill="#5DA9DD"/>
<path d="M132.988 781.438C134.71 781.438 136.151 781.865 137.313 782.719C138.489 783.573 139.28 784.735 139.686 786.204H137.67C137.32 785.309 136.732 784.588 135.906 784.042C135.094 783.496 134.129 783.223 133.009 783.223C132.001 783.223 131.098 783.461 130.3 783.937C129.502 784.399 128.872 785.064 128.41 785.932C127.963 786.799 127.739 787.821 127.739 788.997C127.739 790.201 127.97 791.244 128.431 792.126C128.893 792.993 129.53 793.665 130.342 794.141C131.168 794.603 132.113 794.834 133.177 794.834C134.087 794.834 134.919 794.638 135.675 794.246C136.431 793.854 137.047 793.287 137.523 792.546C138.013 791.79 138.307 790.908 138.405 789.9H132.589V788.472H140.022V790.236C139.896 791.412 139.532 792.476 138.93 793.427C138.328 794.379 137.516 795.135 136.494 795.695C135.472 796.255 134.311 796.535 133.009 796.535C131.581 796.535 130.321 796.22 129.229 795.59C128.138 794.946 127.284 794.057 126.668 792.923C126.066 791.776 125.765 790.467 125.765 788.997C125.765 787.527 126.066 786.225 126.668 785.092C127.284 783.944 128.138 783.048 129.229 782.404C130.321 781.76 131.574 781.438 132.988 781.438ZM153.214 789.984C153.214 790.39 153.186 790.74 153.13 791.034H143.913C143.955 792.35 144.326 793.336 145.026 793.994C145.74 794.652 146.607 794.981 147.629 794.981C148.553 794.981 149.323 794.75 149.939 794.288C150.569 793.812 150.954 793.182 151.094 792.399H153.13C152.991 793.196 152.676 793.91 152.186 794.54C151.71 795.17 151.087 795.66 150.317 796.01C149.547 796.36 148.679 796.535 147.713 796.535C146.607 796.535 145.628 796.297 144.774 795.821C143.92 795.345 143.248 794.666 142.758 793.784C142.282 792.888 142.044 791.839 142.044 790.635C142.044 789.431 142.282 788.381 142.758 787.485C143.248 786.589 143.92 785.904 144.774 785.428C145.628 784.952 146.607 784.714 147.713 784.714C148.833 784.714 149.806 784.952 150.632 785.428C151.472 785.904 152.109 786.54 152.543 787.338C152.991 788.136 153.214 789.018 153.214 789.984ZM151.283 790.11C151.325 789.256 151.185 788.542 150.863 787.968C150.541 787.394 150.1 786.967 149.54 786.687C148.98 786.407 148.371 786.267 147.713 786.267C146.663 786.267 145.782 786.596 145.068 787.254C144.354 787.898 143.969 788.85 143.913 790.11H151.283ZM161.782 784.672C163.125 784.672 164.21 785.106 165.036 785.974C165.862 786.827 166.275 788.066 166.275 789.69V796.388H164.364V789.858C164.364 788.71 164.07 787.828 163.482 787.212C162.895 786.596 162.097 786.288 161.089 786.288C160.039 786.288 159.199 786.631 158.569 787.317C157.939 787.989 157.624 788.976 157.624 790.278V796.388H155.714V784.861H157.624V787.59C157.918 786.652 158.436 785.932 159.178 785.428C159.934 784.924 160.802 784.672 161.782 784.672ZM179.809 789.984C179.809 790.39 179.781 790.74 179.725 791.034H170.508C170.549 792.35 170.92 793.336 171.62 793.994C172.334 794.652 173.202 794.981 174.224 794.981C175.148 794.981 175.918 794.75 176.534 794.288C177.164 793.812 177.548 793.182 177.688 792.399H179.725C179.585 793.196 179.27 793.91 178.78 794.54C178.304 795.17 177.681 795.66 176.912 796.01C176.142 796.36 175.274 796.535 174.308 796.535C173.202 796.535 172.222 796.297 171.368 795.821C170.515 795.345 169.843 794.666 169.353 793.784C168.877 792.888 168.639 791.839 168.639 790.635C168.639 789.431 168.877 788.381 169.353 787.485C169.843 786.589 170.515 785.904 171.368 785.428C172.222 784.952 173.202 784.714 174.308 784.714C175.428 784.714 176.401 784.952 177.226 785.428C178.066 785.904 178.703 786.54 179.137 787.338C179.585 788.136 179.809 789.018 179.809 789.984ZM177.877 790.11C177.919 789.256 177.779 788.542 177.457 787.968C177.136 787.394 176.695 786.967 176.135 786.687C175.575 786.407 174.966 786.267 174.308 786.267C173.258 786.267 172.376 786.596 171.662 787.254C170.948 787.898 170.563 788.85 170.508 790.11H177.877ZM184.219 787.191C184.597 786.393 185.15 785.778 185.878 785.344C186.606 784.896 187.473 784.672 188.481 784.672V786.75H187.893C186.816 786.75 185.934 787.03 185.248 787.59C184.562 788.136 184.219 789.046 184.219 790.32V796.388H182.308V784.861H184.219V787.191ZM195.091 784.714C196.211 784.714 197.156 784.994 197.925 785.554C198.709 786.113 199.255 786.862 199.563 787.8V784.861H201.474V796.388H199.563V793.448C199.255 794.386 198.709 795.135 197.925 795.695C197.156 796.255 196.211 796.535 195.091 796.535C194.069 796.535 193.159 796.297 192.361 795.821C191.563 795.345 190.934 794.666 190.472 793.784C190.024 792.888 189.8 791.839 189.8 790.635C189.8 789.431 190.024 788.381 190.472 787.485C190.934 786.589 191.563 785.904 192.361 785.428C193.159 784.952 194.069 784.714 195.091 784.714ZM195.637 786.414C194.461 786.414 193.516 786.792 192.802 787.548C192.102 788.29 191.752 789.319 191.752 790.635C191.752 791.951 192.102 792.986 192.802 793.742C193.516 794.484 194.461 794.855 195.637 794.855C196.393 794.855 197.065 794.68 197.652 794.33C198.254 793.98 198.723 793.49 199.059 792.86C199.395 792.217 199.563 791.475 199.563 790.635C199.563 789.795 199.395 789.053 199.059 788.409C198.723 787.765 198.254 787.275 197.652 786.939C197.065 786.589 196.393 786.414 195.637 786.414ZM210.016 794.708V796.388H208.588C207.412 796.388 206.531 796.108 205.943 795.548C205.369 794.988 205.082 794.05 205.082 792.734V786.519H203.36V784.861H205.082V781.984H207.013V784.861H209.995V786.519H207.013V792.776C207.013 793.518 207.146 794.029 207.412 794.309C207.692 794.575 208.168 794.708 208.84 794.708H210.016ZM222.951 789.984C222.951 790.39 222.923 790.74 222.867 791.034H213.649C213.691 792.35 214.062 793.336 214.762 793.994C215.476 794.652 216.344 794.981 217.366 794.981C218.29 794.981 219.06 794.75 219.676 794.288C220.305 793.812 220.69 793.182 220.83 792.399H222.867C222.727 793.196 222.412 793.91 221.922 794.54C221.446 795.17 220.823 795.66 220.054 796.01C219.284 796.36 218.416 796.535 217.45 796.535C216.344 796.535 215.364 796.297 214.51 795.821C213.656 795.345 212.985 794.666 212.495 793.784C212.019 792.888 211.781 791.839 211.781 790.635C211.781 789.431 212.019 788.381 212.495 787.485C212.985 786.589 213.656 785.904 214.51 785.428C215.364 784.952 216.344 784.714 217.45 784.714C218.57 784.714 219.543 784.952 220.368 785.428C221.208 785.904 221.845 786.54 222.279 787.338C222.727 788.136 222.951 789.018 222.951 789.984ZM221.019 790.11C221.061 789.256 220.921 788.542 220.599 787.968C220.277 787.394 219.837 786.967 219.277 786.687C218.717 786.407 218.108 786.267 217.45 786.267C216.4 786.267 215.518 786.596 214.804 787.254C214.09 787.898 213.705 788.85 213.649 790.11H221.019ZM239.709 781.585V783.139H235.53V796.388H233.619V783.139H229.441V781.585H239.709ZM257.44 784.861L254.122 796.388H252.064L248.894 787.002L245.702 796.388H243.624L240.348 784.861H242.28L244.736 794.561L247.928 784.861H249.923L253.135 794.54L255.613 784.861H257.44ZM269.825 789.984C269.825 790.39 269.797 790.74 269.741 791.034H260.523C260.565 792.35 260.936 793.336 261.636 793.994C262.35 794.652 263.218 794.981 264.24 794.981C265.164 794.981 265.933 794.75 266.549 794.288C267.179 793.812 267.564 793.182 267.704 792.399H269.741C269.601 793.196 269.286 793.91 268.796 794.54C268.32 795.17 267.697 795.66 266.927 796.01C266.157 796.36 265.29 796.535 264.324 796.535C263.218 796.535 262.238 796.297 261.384 795.821C260.53 795.345 259.858 794.666 259.368 793.784C258.893 792.888 258.655 791.839 258.655 790.635C258.655 789.431 258.893 788.381 259.368 787.485C259.858 786.589 260.53 785.904 261.384 785.428C262.238 784.952 263.218 784.714 264.324 784.714C265.444 784.714 266.416 784.952 267.242 785.428C268.082 785.904 268.719 786.54 269.153 787.338C269.601 788.136 269.825 789.018 269.825 789.984ZM267.893 790.11C267.935 789.256 267.795 788.542 267.473 787.968C267.151 787.394 266.71 786.967 266.15 786.687C265.591 786.407 264.982 786.267 264.324 786.267C263.274 786.267 262.392 786.596 261.678 787.254C260.964 787.898 260.579 788.85 260.523 790.11H267.893ZM282.927 789.984C282.927 790.39 282.899 790.74 282.843 791.034H273.626C273.668 792.35 274.039 793.336 274.739 793.994C275.453 794.652 276.32 794.981 277.342 794.981C278.266 794.981 279.036 794.75 279.652 794.288C280.282 793.812 280.667 793.182 280.807 792.399H282.843C282.703 793.196 282.388 793.91 281.899 794.54C281.423 795.17 280.8 795.66 280.03 796.01C279.26 796.36 278.392 796.535 277.426 796.535C276.32 796.535 275.341 796.297 274.487 795.821C273.633 795.345 272.961 794.666 272.471 793.784C271.995 792.888 271.757 791.839 271.757 790.635C271.757 789.431 271.995 788.381 272.471 787.485C272.961 786.589 273.633 785.904 274.487 785.428C275.341 784.952 276.32 784.714 277.426 784.714C278.546 784.714 279.519 784.952 280.345 785.428C281.185 785.904 281.822 786.54 282.256 787.338C282.703 788.136 282.927 789.018 282.927 789.984ZM280.996 790.11C281.038 789.256 280.898 788.542 280.576 787.968C280.254 787.394 279.813 786.967 279.253 786.687C278.693 786.407 278.084 786.267 277.426 786.267C276.376 786.267 275.495 786.596 274.781 787.254C274.067 787.898 273.682 788.85 273.626 790.11H280.996ZM290.928 794.708V796.388H289.5C288.324 796.388 287.442 796.108 286.854 795.548C286.28 794.988 285.993 794.05 285.993 792.734V786.519H284.272V784.861H285.993V781.984H287.925V784.861H290.907V786.519H287.925V792.776C287.925 793.518 288.058 794.029 288.324 794.309C288.604 794.575 289.08 794.708 289.752 794.708H290.928Z" fill="white"/>
<path d="M84.1864 122.174L85.0824 119.651H88.6838L89.5798 122.174H90.7106L87.4398 113.266H86.3263L83.0555 122.174H84.1864ZM85.4217 118.694L86.8483 114.676H86.9179L88.3445 118.694H85.4217ZM94.4816 122.313C95.7691 122.313 96.204 121.513 96.4302 121.148H96.552V122.174H97.5437V113.266H96.5172V116.555H96.4302C96.204 116.207 95.8039 115.406 94.499 115.406C92.8114 115.406 91.6458 116.746 91.6458 118.851C91.6458 120.974 92.8114 122.313 94.4816 122.313ZM94.6208 121.391C93.3334 121.391 92.6723 120.26 92.6723 118.834C92.6723 117.424 93.316 116.328 94.6208 116.328C95.8735 116.328 96.5346 117.337 96.5346 118.834C96.5346 120.347 95.8561 121.391 94.6208 121.391ZM102.089 122.313C103.376 122.313 103.811 121.513 104.037 121.148H104.159V122.174H105.151V113.266H104.124V116.555H104.037C103.811 116.207 103.411 115.406 102.106 115.406C100.419 115.406 99.253 116.746 99.253 118.851C99.253 120.974 100.419 122.313 102.089 122.313ZM102.228 121.391C100.941 121.391 100.28 120.26 100.28 118.834C100.28 117.424 100.923 116.328 102.228 116.328C103.481 116.328 104.142 117.337 104.142 118.834C104.142 120.347 103.463 121.391 102.228 121.391ZM107.173 122.174H108.2V117.946C108.2 117.042 108.913 116.381 109.888 116.381C110.162 116.381 110.444 116.433 110.514 116.45V115.406C110.396 115.398 110.127 115.389 109.975 115.389C109.174 115.389 108.478 115.841 108.235 116.502H108.165V115.493H107.173V122.174ZM114.328 122.313C115.685 122.313 116.677 121.635 116.99 120.626L115.999 120.347C115.738 121.043 115.133 121.391 114.328 121.391C113.124 121.391 112.293 120.613 112.245 119.182H117.095V118.747C117.095 116.259 115.616 115.406 114.224 115.406C112.415 115.406 111.214 116.833 111.214 118.886C111.214 120.939 112.397 122.313 114.328 122.313ZM112.245 118.294C112.315 117.255 113.05 116.328 114.224 116.328C115.337 116.328 116.051 117.163 116.051 118.294H112.245ZM123.388 116.989C123.066 116.041 122.344 115.406 121.022 115.406C119.613 115.406 118.569 116.207 118.569 117.337C118.569 118.26 119.117 118.877 120.344 119.164L121.457 119.425C122.131 119.582 122.449 119.904 122.449 120.365C122.449 120.939 121.84 121.409 120.883 121.409C120.044 121.409 119.517 121.048 119.335 120.33L118.36 120.573C118.6 121.709 119.535 122.313 120.9 122.313C122.453 122.313 123.51 121.465 123.51 120.312C123.51 119.382 122.927 118.795 121.736 118.503L120.744 118.26C119.952 118.064 119.596 117.798 119.596 117.285C119.596 116.711 120.205 116.294 121.022 116.294C121.918 116.294 122.288 116.789 122.466 117.25L123.388 116.989ZM129.788 116.989C129.466 116.041 128.744 115.406 127.421 115.406C126.012 115.406 124.968 116.207 124.968 117.337C124.968 118.26 125.516 118.877 126.743 119.164L127.856 119.425C128.531 119.582 128.848 119.904 128.848 120.365C128.848 120.939 128.239 121.409 127.282 121.409C126.443 121.409 125.916 121.048 125.734 120.33L124.76 120.573C124.999 121.709 125.934 122.313 127.3 122.313C128.852 122.313 129.909 121.465 129.909 120.312C129.909 119.382 129.326 118.795 128.135 118.503L127.143 118.26C126.351 118.064 125.995 117.798 125.995 117.285C125.995 116.711 126.604 116.294 127.421 116.294C128.317 116.294 128.687 116.789 128.865 117.25L129.788 116.989ZM135.038 122.174H140.258V121.217H136.117V113.266H135.038V122.174ZM141.789 122.174H142.815V115.493H141.789V122.174ZM142.311 114.38C142.711 114.38 143.042 114.067 143.042 113.684C143.042 113.301 142.711 112.988 142.311 112.988C141.911 112.988 141.58 113.301 141.58 113.684C141.58 114.067 141.911 114.38 142.311 114.38ZM145.722 118.155C145.722 116.989 146.444 116.328 147.427 116.328C148.379 116.328 148.958 116.95 148.958 117.999V122.174H149.984V117.929C149.984 116.224 149.075 115.406 147.723 115.406C146.714 115.406 146.087 115.859 145.774 116.537H145.687V115.493H144.695V122.174H145.722V118.155ZM154.661 122.313C156.018 122.313 157.01 121.635 157.323 120.626L156.331 120.347C156.07 121.043 155.466 121.391 154.661 121.391C153.456 121.391 152.626 120.613 152.578 119.182H157.427V118.747C157.427 116.259 155.949 115.406 154.557 115.406C152.747 115.406 151.547 116.833 151.547 118.886C151.547 120.939 152.73 122.313 154.661 122.313ZM152.578 118.294C152.647 117.255 153.382 116.328 154.557 116.328C155.67 116.328 156.384 117.163 156.384 118.294H152.578ZM165.548 113.266H164.469L162.242 114.745V115.841L164.417 114.397H164.469V122.174H165.548V113.266Z" fill="#1A1A1A"/>
<rect x="83.1798" y="130.861" width="396.206" height="50.7424" rx="3.06204" fill="white"/>
<rect x="83.1798" y="130.861" width="396.206" height="50.7424" rx="3.06204" stroke="#949494" stroke-width="0.874869"/>
<path d="M84.1864 222.784L85.0824 220.261H88.6838L89.5798 222.784H90.7106L87.4398 213.876H86.3263L83.0555 222.784H84.1864ZM85.4217 219.304L86.8483 215.285H86.9179L88.3445 219.304H85.4217ZM94.4816 222.923C95.7691 222.923 96.204 222.123 96.4302 221.757H96.552V222.784H97.5437V213.876H96.5172V217.164H96.4302C96.204 216.816 95.8039 216.016 94.499 216.016C92.8114 216.016 91.6458 217.356 91.6458 219.461C91.6458 221.583 92.8114 222.923 94.4816 222.923ZM94.6208 222.001C93.3334 222.001 92.6723 220.87 92.6723 219.444C92.6723 218.034 93.316 216.938 94.6208 216.938C95.8735 216.938 96.5346 217.947 96.5346 219.444C96.5346 220.957 95.8561 222.001 94.6208 222.001ZM102.089 222.923C103.376 222.923 103.811 222.123 104.037 221.757H104.159V222.784H105.151V213.876H104.124V217.164H104.037C103.811 216.816 103.411 216.016 102.106 216.016C100.419 216.016 99.253 217.356 99.253 219.461C99.253 221.583 100.419 222.923 102.089 222.923ZM102.228 222.001C100.941 222.001 100.28 220.87 100.28 219.444C100.28 218.034 100.923 216.938 102.228 216.938C103.481 216.938 104.142 217.947 104.142 219.444C104.142 220.957 103.463 222.001 102.228 222.001ZM107.173 222.784H108.2V218.556C108.2 217.652 108.913 216.99 109.888 216.99C110.162 216.99 110.444 217.043 110.514 217.06V216.016C110.396 216.007 110.127 215.999 109.975 215.999C109.174 215.999 108.478 216.451 108.235 217.112H108.165V216.103H107.173V222.784ZM114.328 222.923C115.685 222.923 116.677 222.245 116.99 221.236L115.999 220.957C115.738 221.653 115.133 222.001 114.328 222.001C113.124 222.001 112.293 221.222 112.245 219.791H117.095V219.357C117.095 216.869 115.616 216.016 114.224 216.016C112.415 216.016 111.214 217.443 111.214 219.496C111.214 221.549 112.397 222.923 114.328 222.923ZM112.245 218.904C112.315 217.865 113.05 216.938 114.224 216.938C115.337 216.938 116.051 217.773 116.051 218.904H112.245ZM123.388 217.599C123.066 216.651 122.344 216.016 121.022 216.016C119.613 216.016 118.569 216.816 118.569 217.947C118.569 218.869 119.117 219.487 120.344 219.774L121.457 220.035C122.131 220.192 122.449 220.514 122.449 220.975C122.449 221.549 121.84 222.018 120.883 222.018C120.044 222.018 119.517 221.657 119.335 220.94L118.36 221.183C118.6 222.319 119.535 222.923 120.9 222.923C122.453 222.923 123.51 222.075 123.51 220.922C123.51 219.992 122.927 219.404 121.736 219.113L120.744 218.869C119.952 218.674 119.596 218.408 119.596 217.895C119.596 217.321 120.205 216.903 121.022 216.903C121.918 216.903 122.288 217.399 122.466 217.86L123.388 217.599ZM129.788 217.599C129.466 216.651 128.744 216.016 127.421 216.016C126.012 216.016 124.968 216.816 124.968 217.947C124.968 218.869 125.516 219.487 126.743 219.774L127.856 220.035C128.531 220.192 128.848 220.514 128.848 220.975C128.848 221.549 128.239 222.018 127.282 222.018C126.443 222.018 125.916 221.657 125.734 220.94L124.76 221.183C124.999 222.319 125.934 222.923 127.3 222.923C128.852 222.923 129.909 222.075 129.909 220.922C129.909 219.992 129.326 219.404 128.135 219.113L127.143 218.869C126.351 218.674 125.995 218.408 125.995 217.895C125.995 217.321 126.604 216.903 127.421 216.903C128.317 216.903 128.687 217.399 128.865 217.86L129.788 217.599ZM135.038 222.784H140.258V221.827H136.117V213.876H135.038V222.784ZM141.789 222.784H142.815V216.103H141.789V222.784ZM142.311 214.99C142.711 214.99 143.042 214.676 143.042 214.294C143.042 213.911 142.711 213.598 142.311 213.598C141.911 213.598 141.58 213.911 141.58 214.294C141.58 214.676 141.911 214.99 142.311 214.99ZM145.722 218.765C145.722 217.599 146.444 216.938 147.427 216.938C148.379 216.938 148.958 217.56 148.958 218.608V222.784H149.984V218.539C149.984 216.834 149.075 216.016 147.723 216.016C146.714 216.016 146.087 216.468 145.774 217.147H145.687V216.103H144.695V222.784H145.722V218.765ZM154.661 222.923C156.018 222.923 157.01 222.245 157.323 221.236L156.331 220.957C156.07 221.653 155.466 222.001 154.661 222.001C153.456 222.001 152.626 221.222 152.578 219.791H157.427V219.357C157.427 216.869 155.949 216.016 154.557 216.016C152.747 216.016 151.547 217.443 151.547 219.496C151.547 221.549 152.73 222.923 154.661 222.923ZM152.578 218.904C152.647 217.865 153.382 216.938 154.557 216.938C155.67 216.938 156.384 217.773 156.384 218.904H152.578ZM162.416 222.784H168.036V221.827H163.895V221.757L165.896 219.618C167.427 217.978 167.879 217.212 167.879 216.225C167.879 214.85 166.766 213.754 165.2 213.754C163.639 213.754 162.451 214.816 162.451 216.381H163.478C163.478 215.368 164.134 214.694 165.165 214.694C166.131 214.694 166.87 215.285 166.87 216.225C166.87 217.047 166.387 217.656 165.357 218.782L162.416 222.001V222.784Z" fill="#1A1A1A"/>
<rect x="83.1798" y="231.471" width="396.206" height="50.7424" rx="3.06204" fill="white"/>
<rect x="83.1798" y="231.471" width="396.206" height="50.7424" rx="3.06204" stroke="#949494" stroke-width="0.874869"/>
<path d="M83.821 323.394H84.8997V319.914H86.8483C86.9266 319.914 87.0005 319.914 87.0745 319.91L88.9534 323.394H90.2061L88.1923 319.714C89.3275 319.327 89.8581 318.401 89.8581 317.218C89.8581 315.643 88.9186 314.486 86.8309 314.486H83.821V323.394ZM84.8997 318.94V315.443H86.7961C88.2401 315.443 88.7969 316.148 88.7969 317.218C88.7969 318.287 88.2401 318.94 86.8135 318.94H84.8997ZM94.2457 323.533C95.6027 323.533 96.5944 322.854 96.9076 321.845L95.9159 321.567C95.6549 322.263 95.0503 322.611 94.2457 322.611C93.0409 322.611 92.2101 321.832 92.1623 320.401H97.012V319.966C97.012 317.478 95.5331 316.626 94.1413 316.626C92.3319 316.626 91.1314 318.053 91.1314 320.106C91.1314 322.159 92.3145 323.533 94.2457 323.533ZM92.1623 319.514C92.2319 318.475 92.9669 317.548 94.1413 317.548C95.2548 317.548 95.9681 318.383 95.9681 319.514H92.1623ZM104.158 325.899V316.713H103.166V317.774H103.045C102.819 317.426 102.418 316.626 101.114 316.626C99.4259 316.626 98.2603 317.966 98.2603 320.071C98.2603 322.193 99.4259 323.533 101.096 323.533C102.384 323.533 102.819 322.733 103.045 322.367H103.132V325.899H104.158ZM103.149 320.053C103.149 321.567 102.471 322.611 101.235 322.611C99.9479 322.611 99.2867 321.48 99.2867 320.053C99.2867 318.644 99.9305 317.548 101.235 317.548C102.488 317.548 103.149 318.557 103.149 320.053ZM110.247 320.662C110.247 321.915 109.291 322.489 108.525 322.489C107.673 322.489 107.064 321.863 107.064 320.888V316.713H106.037V320.958C106.037 322.663 106.942 323.481 108.194 323.481C109.204 323.481 109.865 322.941 110.178 322.263H110.247V323.394H111.274V316.713H110.247V320.662ZM115.955 323.533C117.312 323.533 118.304 322.854 118.617 321.845L117.625 321.567C117.364 322.263 116.76 322.611 115.955 322.611C114.75 322.611 113.92 321.832 113.872 320.401H118.721V319.966C118.721 317.478 117.243 316.626 115.851 316.626C114.041 316.626 112.841 318.053 112.841 320.106C112.841 322.159 114.024 323.533 115.955 323.533ZM113.872 319.514C113.941 318.475 114.676 317.548 115.851 317.548C116.964 317.548 117.677 318.383 117.677 319.514H113.872ZM125.015 318.209C124.693 317.261 123.971 316.626 122.649 316.626C121.24 316.626 120.196 317.426 120.196 318.557C120.196 319.479 120.744 320.097 121.97 320.384L123.084 320.645C123.758 320.802 124.076 321.123 124.076 321.584C124.076 322.159 123.467 322.628 122.51 322.628C121.67 322.628 121.144 322.267 120.961 321.55L119.987 321.793C120.226 322.928 121.161 323.533 122.527 323.533C124.08 323.533 125.137 322.685 125.137 321.532C125.137 320.601 124.554 320.014 123.362 319.723L122.371 319.479C121.579 319.284 121.222 319.018 121.222 318.505C121.222 317.931 121.831 317.513 122.649 317.513C123.545 317.513 123.915 318.009 124.093 318.47L125.015 318.209ZM129.587 316.713H128.161V315.112H127.134V316.713H126.125V317.583H127.134V321.758C127.134 322.924 128.074 323.481 128.944 323.481C129.326 323.481 129.57 323.411 129.709 323.359L129.5 322.437C129.413 322.454 129.274 322.489 129.048 322.489C128.596 322.489 128.161 322.35 128.161 321.48V317.583H129.587V316.713ZM133.861 323.533C135.218 323.533 136.21 322.854 136.523 321.845L135.531 321.567C135.27 322.263 134.665 322.611 133.861 322.611C132.656 322.611 131.825 321.832 131.777 320.401H136.627V319.966C136.627 317.478 135.148 316.626 133.756 316.626C131.947 316.626 130.747 318.053 130.747 320.106C130.747 322.159 131.93 323.533 133.861 323.533ZM131.777 319.514C131.847 318.475 132.582 317.548 133.756 317.548C134.87 317.548 135.583 318.383 135.583 319.514H131.777ZM140.711 323.533C141.999 323.533 142.434 322.733 142.66 322.367H142.782V323.394H143.773V314.486H142.747V317.774H142.66C142.434 317.426 142.034 316.626 140.729 316.626C139.041 316.626 137.875 317.966 137.875 320.071C137.875 322.193 139.041 323.533 140.711 323.533ZM140.85 322.611C139.563 322.611 138.902 321.48 138.902 320.053C138.902 318.644 139.546 317.548 140.85 317.548C142.103 317.548 142.764 318.557 142.764 320.053C142.764 321.567 142.086 322.611 140.85 322.611ZM150.458 314.486H149.38V323.394H150.458V314.486ZM155.388 316.713H153.961V315.112H152.934V316.713H151.925V317.583H152.934V321.758C152.934 322.924 153.874 323.481 154.744 323.481C155.127 323.481 155.37 323.411 155.509 323.359L155.301 322.437C155.214 322.454 155.074 322.489 154.848 322.489C154.396 322.489 153.961 322.35 153.961 321.48V317.583H155.388V316.713ZM159.661 323.533C161.018 323.533 162.01 322.854 162.323 321.845L161.331 321.567C161.07 322.263 160.466 322.611 159.661 322.611C158.456 322.611 157.625 321.832 157.577 320.401H162.427V319.966C162.427 317.478 160.948 316.626 159.557 316.626C157.747 316.626 156.547 318.053 156.547 320.106C156.547 322.159 157.73 323.533 159.661 323.533ZM157.577 319.514C157.647 318.475 158.382 317.548 159.557 317.548C160.67 317.548 161.383 318.383 161.383 319.514H157.577ZM163.989 323.394H165.015V319.218C165.015 318.24 165.728 317.548 166.529 317.548C167.307 317.548 167.851 318.057 167.851 318.818V323.394H168.895V319.044C168.895 318.183 169.434 317.548 170.374 317.548C171.104 317.548 171.731 317.935 171.731 318.923V323.394H172.757V318.923C172.757 317.352 171.913 316.626 170.722 316.626C169.765 316.626 169.064 317.065 168.721 317.757H168.651C168.321 317.044 167.738 316.626 166.859 316.626C165.989 316.626 165.346 317.044 165.067 317.757H164.98V316.713H163.989V323.394ZM177.783 314.068H176.844L173.973 324.733H174.912L177.783 314.068ZM184.01 316.713H185.054C185.006 315.369 183.767 314.364 182.044 314.364C180.339 314.364 179 315.356 179 316.852C179 318.053 179.87 318.766 181.262 319.166L182.358 319.479C183.297 319.74 184.132 320.071 184.132 320.958C184.132 321.932 183.193 322.576 181.957 322.576C180.896 322.576 179.957 322.106 179.87 321.097H178.756C178.861 322.559 180.044 323.55 181.957 323.55C184.01 323.55 185.176 322.42 185.176 320.975C185.176 319.305 183.593 318.766 182.671 318.522L181.766 318.279C181.105 318.105 180.044 317.757 180.044 316.8C180.044 315.947 180.827 315.321 182.01 315.321C183.088 315.321 183.906 315.834 184.01 316.713ZM189.611 323.533C190.969 323.533 191.96 322.854 192.273 321.845L191.282 321.567C191.021 322.263 190.416 322.611 189.611 322.611C188.407 322.611 187.576 321.832 187.528 320.401H192.378V319.966C192.378 317.478 190.899 316.626 189.507 316.626C187.698 316.626 186.497 318.053 186.497 320.106C186.497 322.159 187.68 323.533 189.611 323.533ZM187.528 319.514C187.598 318.475 188.333 317.548 189.507 317.548C190.621 317.548 191.334 318.383 191.334 319.514H187.528ZM193.939 323.394H194.966V319.166C194.966 318.261 195.679 317.6 196.653 317.6C196.927 317.6 197.21 317.652 197.28 317.67V316.626C197.162 316.617 196.893 316.609 196.74 316.609C195.94 316.609 195.244 317.061 195.001 317.722H194.931V316.713H193.939V323.394ZM204.163 316.713H203.049L201.205 322.037H201.135L199.291 316.713H198.178L200.648 323.394H201.692L204.163 316.713ZM205.518 323.394H206.544V316.713H205.518V323.394ZM206.04 315.6C206.44 315.6 206.77 315.286 206.77 314.904C206.77 314.521 206.44 314.208 206.04 314.208C205.639 314.208 205.309 314.521 205.309 314.904C205.309 315.286 205.639 315.6 206.04 315.6ZM211.138 323.533C212.617 323.533 213.591 322.628 213.765 321.445H212.739C212.547 322.176 211.938 322.611 211.138 322.611C209.92 322.611 209.137 321.602 209.137 320.053C209.137 318.54 209.938 317.548 211.138 317.548C212.043 317.548 212.582 318.105 212.739 318.714H213.765C213.591 317.461 212.53 316.626 211.121 316.626C209.311 316.626 208.111 318.053 208.111 320.088C208.111 322.089 209.259 323.533 211.138 323.533ZM218.067 323.533C219.424 323.533 220.416 322.854 220.729 321.845L219.737 321.567C219.476 322.263 218.872 322.611 218.067 322.611C216.862 322.611 216.031 321.832 215.984 320.401H220.833V319.966C220.833 317.478 219.354 316.626 217.963 316.626C216.153 316.626 214.953 318.053 214.953 320.106C214.953 322.159 216.136 323.533 218.067 323.533ZM215.984 319.514C216.053 318.475 216.788 317.548 217.963 317.548C219.076 317.548 219.789 318.383 219.789 319.514H215.984Z" fill="#1A1A1A"/>
<rect x="83.1798" y="332.081" width="292.206" height="50.7424" rx="3.06204" fill="white"/>
<rect x="83.1798" y="332.081" width="292.206" height="50.7424" rx="3.06204" stroke="#949494" stroke-width="0.874869"/>
<path d="M90.989 417.943C90.6584 416.116 89.197 415.038 87.405 415.038C85.1259 415.038 83.4731 416.795 83.4731 419.613C83.4731 422.432 85.1259 424.189 87.405 424.189C89.197 424.189 90.6584 423.11 90.989 421.284H89.9103C89.6494 422.519 88.5881 423.18 87.405 423.18C85.787 423.18 84.517 421.927 84.517 419.613C84.517 417.299 85.787 416.047 87.405 416.047C88.5881 416.047 89.6494 416.708 89.9103 417.943H90.989ZM95.307 424.206C97.1163 424.206 98.3342 422.832 98.3342 420.762C98.3342 418.674 97.1163 417.299 95.307 417.299C93.4976 417.299 92.2797 418.674 92.2797 420.762C92.2797 422.832 93.4976 424.206 95.307 424.206ZM95.307 423.284C93.9325 423.284 93.3062 422.101 93.3062 420.762C93.3062 419.422 93.9325 418.222 95.307 418.222C96.6814 418.222 97.3077 419.422 97.3077 420.762C97.3077 422.101 96.6814 423.284 95.307 423.284ZM100.928 420.048C100.928 418.883 101.65 418.222 102.633 418.222C103.585 418.222 104.164 418.844 104.164 419.892V424.067H105.19V419.822C105.19 418.117 104.281 417.299 102.928 417.299C101.919 417.299 101.293 417.752 100.98 418.43H100.893V417.386H99.9011V424.067H100.928V420.048ZM109.971 417.386H108.545V415.786H107.518V417.386H106.509V418.256H107.518V422.432C107.518 423.598 108.458 424.154 109.328 424.154C109.71 424.154 109.954 424.085 110.093 424.032L109.884 423.11C109.797 423.128 109.658 423.163 109.432 423.163C108.98 423.163 108.545 423.023 108.545 422.153V418.256H109.971V417.386ZM113.481 424.224C114.647 424.224 115.256 423.598 115.465 423.163H115.517V424.067H116.543V419.666C116.543 417.543 114.925 417.299 114.073 417.299C113.064 417.299 111.915 417.647 111.394 418.865L112.368 419.213C112.594 418.726 113.129 418.204 114.108 418.204C115.051 418.204 115.517 418.704 115.517 419.561V419.596C115.517 420.092 115.012 420.048 113.794 420.205C112.555 420.366 111.202 420.64 111.202 422.171C111.202 423.476 112.211 424.224 113.481 424.224ZM113.638 423.302C112.82 423.302 112.229 422.936 112.229 422.223C112.229 421.44 112.942 421.197 113.742 421.092C114.177 421.04 115.343 420.918 115.517 420.709V421.649C115.517 422.484 114.856 423.302 113.638 423.302ZM121.131 424.206C122.61 424.206 123.584 423.302 123.758 422.119H122.732C122.54 422.849 121.931 423.284 121.131 423.284C119.913 423.284 119.13 422.275 119.13 420.727C119.13 419.213 119.93 418.222 121.131 418.222C122.036 418.222 122.575 418.778 122.732 419.387H123.758C123.584 418.135 122.523 417.299 121.114 417.299C119.304 417.299 118.104 418.726 118.104 420.762C118.104 422.762 119.252 424.206 121.131 424.206ZM128.164 417.386H126.737V415.786H125.711V417.386H124.702V418.256H125.711V422.432C125.711 423.598 126.65 424.154 127.52 424.154C127.903 424.154 128.147 424.085 128.286 424.032L128.077 423.11C127.99 423.128 127.851 423.163 127.625 423.163C127.172 423.163 126.737 423.023 126.737 422.153V418.256H128.164V417.386ZM140.356 415.16H139.294V422.171H139.207L134.336 415.16H133.292V424.067H134.371V417.073H134.458L139.312 424.067H140.356V415.16ZM144.341 424.224C145.507 424.224 146.116 423.598 146.324 423.163H146.376V424.067H147.403V419.666C147.403 417.543 145.785 417.299 144.932 417.299C143.923 417.299 142.775 417.647 142.253 418.865L143.227 419.213C143.454 418.726 143.989 418.204 144.967 418.204C145.911 418.204 146.376 418.704 146.376 419.561V419.596C146.376 420.092 145.872 420.048 144.654 420.205C143.414 420.366 142.062 420.64 142.062 422.171C142.062 423.476 143.071 424.224 144.341 424.224ZM144.497 423.302C143.68 423.302 143.088 422.936 143.088 422.223C143.088 421.44 143.802 421.197 144.602 421.092C145.037 421.04 146.202 420.918 146.376 420.709V421.649C146.376 422.484 145.715 423.302 144.497 423.302ZM149.277 424.067H150.303V419.892C150.303 418.913 151.016 418.222 151.817 418.222C152.595 418.222 153.139 418.73 153.139 419.492V424.067H154.183V419.718C154.183 418.857 154.722 418.222 155.662 418.222C156.392 418.222 157.019 418.609 157.019 419.596V424.067H158.045V419.596C158.045 418.026 157.201 417.299 156.01 417.299C155.053 417.299 154.352 417.739 154.009 418.43H153.939C153.609 417.717 153.026 417.299 152.147 417.299C151.277 417.299 150.634 417.717 150.355 418.43H150.268V417.386H149.277V424.067ZM162.723 424.206C164.08 424.206 165.072 423.528 165.385 422.519L164.393 422.24C164.132 422.936 163.528 423.284 162.723 423.284C161.518 423.284 160.687 422.506 160.64 421.075H165.489V420.64C165.489 418.152 164.01 417.299 162.619 417.299C160.809 417.299 159.609 418.726 159.609 420.779C159.609 422.832 160.792 424.206 162.723 424.206ZM160.64 420.188C160.709 419.148 161.444 418.222 162.619 418.222C163.732 418.222 164.445 419.057 164.445 420.188H160.64ZM170.861 420.309C170.861 422.501 171.452 424.328 172.514 425.877H173.418C172.583 424.728 171.922 422.38 171.922 420.309C171.922 418.239 172.583 415.89 173.418 414.742H172.514C171.452 416.29 170.861 418.117 170.861 420.309ZM177.504 424.206C179.313 424.206 180.531 422.832 180.531 420.762C180.531 418.674 179.313 417.299 177.504 417.299C175.694 417.299 174.476 418.674 174.476 420.762C174.476 422.832 175.694 424.206 177.504 424.206ZM177.504 423.284C176.129 423.284 175.503 422.101 175.503 420.762C175.503 419.422 176.129 418.222 177.504 418.222C178.878 418.222 179.504 419.422 179.504 420.762C179.504 422.101 178.878 423.284 177.504 423.284ZM182.098 426.573H183.124V423.041H183.211C183.437 423.406 183.872 424.206 185.16 424.206C186.83 424.206 187.996 422.867 187.996 420.744C187.996 418.639 186.83 417.299 185.142 417.299C183.838 417.299 183.437 418.1 183.211 418.448H183.089V417.386H182.098V426.573ZM183.107 420.727C183.107 419.231 183.768 418.222 185.021 418.222C186.325 418.222 186.969 419.318 186.969 420.727C186.969 422.153 186.308 423.284 185.021 423.284C183.785 423.284 183.107 422.24 183.107 420.727ZM192.467 417.386H191.04V415.786H190.014V417.386H189.005V418.256H190.014V422.432C190.014 423.598 190.953 424.154 191.823 424.154C192.206 424.154 192.45 424.085 192.589 424.032L192.38 423.11C192.293 423.128 192.154 423.163 191.928 423.163C191.475 423.163 191.04 423.023 191.04 422.153V418.256H192.467V417.386ZM194.011 424.067H195.037V417.386H194.011V424.067ZM194.533 416.273C194.933 416.273 195.264 415.96 195.264 415.577C195.264 415.194 194.933 414.881 194.533 414.881C194.133 414.881 193.802 415.194 193.802 415.577C193.802 415.96 194.133 416.273 194.533 416.273ZM199.632 424.206C201.441 424.206 202.659 422.832 202.659 420.762C202.659 418.674 201.441 417.299 199.632 417.299C197.822 417.299 196.604 418.674 196.604 420.762C196.604 422.832 197.822 424.206 199.632 424.206ZM199.632 423.284C198.257 423.284 197.631 422.101 197.631 420.762C197.631 419.422 198.257 418.222 199.632 418.222C201.006 418.222 201.632 419.422 201.632 420.762C201.632 422.101 201.006 423.284 199.632 423.284ZM205.252 420.048C205.252 418.883 205.974 418.222 206.957 418.222C207.91 418.222 208.488 418.844 208.488 419.892V424.067H209.515V419.822C209.515 418.117 208.606 417.299 207.253 417.299C206.244 417.299 205.618 417.752 205.304 418.43H205.217V417.386H204.226V424.067H205.252V420.048ZM213.356 424.224C214.522 424.224 215.131 423.598 215.34 423.163H215.392V424.067H216.418V419.666C216.418 417.543 214.8 417.299 213.948 417.299C212.939 417.299 211.791 417.647 211.269 418.865L212.243 419.213C212.469 418.726 213.004 418.204 213.983 418.204C214.927 418.204 215.392 418.704 215.392 419.561V419.596C215.392 420.092 214.887 420.048 213.67 420.205C212.43 420.366 211.077 420.64 211.077 422.171C211.077 423.476 212.086 424.224 213.356 424.224ZM213.513 423.302C212.695 423.302 212.104 422.936 212.104 422.223C212.104 421.44 212.817 421.197 213.617 421.092C214.052 421.04 215.218 420.918 215.392 420.709V421.649C215.392 422.484 214.731 423.302 213.513 423.302ZM219.318 415.16H218.292V424.067H219.318V415.16ZM223.391 420.309C223.391 418.117 222.799 416.29 221.738 414.742H220.833C221.668 415.89 222.329 418.239 222.329 420.309C222.329 422.38 221.668 424.728 220.833 425.877H221.738C222.799 424.328 223.391 422.501 223.391 420.309Z" fill="#1A1A1A"/>
<rect x="83.1798" y="432.627" width="292.206" height="50.7424" rx="3.06204" fill="white"/>
<rect x="83.1798" y="432.627" width="292.206" height="50.7424" rx="3.06204" stroke="#949494" stroke-width="0.874869"/>
<path d="M84.1864 625.287L85.0824 622.764H88.6838L89.5798 625.287H90.7106L87.4398 616.379H86.3263L83.0555 625.287H84.1864ZM85.4217 621.808L86.8483 617.789H86.9179L88.3445 621.808H85.4217ZM94.4816 625.426C95.7691 625.426 96.204 624.626 96.4302 624.261H96.552V625.287H97.5437V616.379H96.5172V619.668H96.4302C96.204 619.32 95.8039 618.519 94.499 618.519C92.8114 618.519 91.6458 619.859 91.6458 621.964C91.6458 624.087 92.8114 625.426 94.4816 625.426ZM94.6208 624.504C93.3334 624.504 92.6723 623.373 92.6723 621.947C92.6723 620.537 93.316 619.441 94.6208 619.441C95.8735 619.441 96.5346 620.45 96.5346 621.947C96.5346 623.46 95.8561 624.504 94.6208 624.504ZM102.089 625.426C103.376 625.426 103.811 624.626 104.037 624.261H104.159V625.287H105.151V616.379H104.124V619.668H104.037C103.811 619.32 103.411 618.519 102.106 618.519C100.419 618.519 99.253 619.859 99.253 621.964C99.253 624.087 100.419 625.426 102.089 625.426ZM102.228 624.504C100.941 624.504 100.28 623.373 100.28 621.947C100.28 620.537 100.923 619.441 102.228 619.441C103.481 619.441 104.142 620.45 104.142 621.947C104.142 623.46 103.463 624.504 102.228 624.504ZM107.173 625.287H108.2V618.606H107.173V625.287ZM107.695 617.493C108.096 617.493 108.426 617.18 108.426 616.797C108.426 616.414 108.096 616.101 107.695 616.101C107.295 616.101 106.965 616.414 106.965 616.797C106.965 617.18 107.295 617.493 107.695 617.493ZM112.985 618.606H111.559V617.006H110.532V618.606H109.523V619.476H110.532V623.652C110.532 624.817 111.472 625.374 112.342 625.374C112.724 625.374 112.968 625.305 113.107 625.252L112.898 624.33C112.811 624.348 112.672 624.382 112.446 624.382C111.994 624.382 111.559 624.243 111.559 623.373V619.476H112.985V618.606ZM114.53 625.287H115.556V618.606H114.53V625.287ZM115.051 617.493C115.452 617.493 115.782 617.18 115.782 616.797C115.782 616.414 115.452 616.101 115.051 616.101C114.651 616.101 114.321 616.414 114.321 616.797C114.321 617.18 114.651 617.493 115.051 617.493ZM120.15 625.426C121.96 625.426 123.177 624.052 123.177 621.981C123.177 619.894 121.96 618.519 120.15 618.519C118.341 618.519 117.123 619.894 117.123 621.981C117.123 624.052 118.341 625.426 120.15 625.426ZM120.15 624.504C118.776 624.504 118.149 623.321 118.149 621.981C118.149 620.642 118.776 619.441 120.15 619.441C121.525 619.441 122.151 620.642 122.151 621.981C122.151 623.321 121.525 624.504 120.15 624.504ZM125.771 621.268C125.771 620.103 126.493 619.441 127.476 619.441C128.428 619.441 129.007 620.063 129.007 621.112V625.287H130.033V621.042C130.033 619.337 129.124 618.519 127.772 618.519C126.762 618.519 126.136 618.972 125.823 619.65H125.736V618.606H124.744V625.287H125.771V621.268ZM133.875 625.444C135.041 625.444 135.65 624.817 135.858 624.382H135.911V625.287H136.937V620.885C136.937 618.763 135.319 618.519 134.466 618.519C133.457 618.519 132.309 618.867 131.787 620.085L132.761 620.433C132.988 619.946 133.523 619.424 134.501 619.424C135.445 619.424 135.911 619.924 135.911 620.781V620.816C135.911 621.312 135.406 621.268 134.188 621.425C132.949 621.586 131.596 621.86 131.596 623.391C131.596 624.696 132.605 625.444 133.875 625.444ZM134.032 624.522C133.214 624.522 132.622 624.156 132.622 623.443C132.622 622.66 133.336 622.416 134.136 622.312C134.571 622.26 135.737 622.138 135.911 621.929V622.869C135.911 623.704 135.249 624.522 134.032 624.522ZM139.837 616.379H138.811V625.287H139.837V616.379ZM146.38 616.379H145.301V625.287H146.38V616.379ZM149.43 621.268C149.43 620.103 150.152 619.441 151.135 619.441C152.087 619.441 152.666 620.063 152.666 621.112V625.287H153.692V621.042C153.692 619.337 152.783 618.519 151.431 618.519C150.422 618.519 149.795 618.972 149.482 619.65H149.395V618.606H148.403V625.287H149.43V621.268ZM158.543 618.606H157.047V617.928C157.047 617.267 157.325 616.919 158.004 616.919C158.3 616.919 158.473 616.988 158.578 617.023L158.874 616.136C158.717 616.066 158.404 615.962 157.899 615.962C156.942 615.962 156.02 616.536 156.02 617.684V618.606H154.942V619.476H156.02V625.287H157.047V619.476H158.543V618.606ZM162.421 625.426C164.23 625.426 165.448 624.052 165.448 621.981C165.448 619.894 164.23 618.519 162.421 618.519C160.611 618.519 159.393 619.894 159.393 621.981C159.393 624.052 160.611 625.426 162.421 625.426ZM162.421 624.504C161.046 624.504 160.42 623.321 160.42 621.981C160.42 620.642 161.046 619.441 162.421 619.441C163.795 619.441 164.421 620.642 164.421 621.981C164.421 623.321 163.795 624.504 162.421 624.504ZM167.015 625.287H168.041V621.059C168.041 620.155 168.755 619.494 169.729 619.494C170.003 619.494 170.286 619.546 170.355 619.563V618.519C170.238 618.511 169.968 618.502 169.816 618.502C169.016 618.502 168.32 618.954 168.076 619.615H168.006V618.606H167.015V625.287ZM171.572 625.287H172.598V621.112C172.598 620.133 173.312 619.441 174.112 619.441C174.891 619.441 175.434 619.95 175.434 620.711V625.287H176.478V620.938C176.478 620.076 177.018 619.441 177.957 619.441C178.688 619.441 179.314 619.829 179.314 620.816V625.287H180.341V620.816C180.341 619.246 179.497 618.519 178.305 618.519C177.348 618.519 176.648 618.959 176.304 619.65H176.235C175.904 618.937 175.321 618.519 174.443 618.519C173.573 618.519 172.929 618.937 172.651 619.65H172.564V618.606H171.572V625.287ZM184.183 625.444C185.349 625.444 185.958 624.817 186.167 624.382H186.219V625.287H187.245V620.885C187.245 618.763 185.627 618.519 184.775 618.519C183.766 618.519 182.618 618.867 182.096 620.085L183.07 620.433C183.296 619.946 183.831 619.424 184.81 619.424C185.753 619.424 186.219 619.924 186.219 620.781V620.816C186.219 621.312 185.714 621.268 184.496 621.425C183.257 621.586 181.904 621.86 181.904 623.391C181.904 624.696 182.913 625.444 184.183 625.444ZM184.34 624.522C183.522 624.522 182.931 624.156 182.931 623.443C182.931 622.66 183.644 622.416 184.444 622.312C184.879 622.26 186.045 622.138 186.219 621.929V622.869C186.219 623.704 185.558 624.522 184.34 624.522ZM192.024 618.606H190.598V617.006H189.571V618.606H188.562V619.476H189.571V623.652C189.571 624.817 190.511 625.374 191.381 625.374C191.763 625.374 192.007 625.305 192.146 625.252L191.937 624.33C191.85 624.348 191.711 624.382 191.485 624.382C191.033 624.382 190.598 624.243 190.598 623.373V619.476H192.024V618.606ZM193.568 625.287H194.595V618.606H193.568V625.287ZM194.09 617.493C194.491 617.493 194.821 617.18 194.821 616.797C194.821 616.414 194.491 616.101 194.09 616.101C193.69 616.101 193.36 616.414 193.36 616.797C193.36 617.18 193.69 617.493 194.09 617.493ZM199.189 625.426C200.998 625.426 202.216 624.052 202.216 621.981C202.216 619.894 200.998 618.519 199.189 618.519C197.38 618.519 196.162 619.894 196.162 621.981C196.162 624.052 197.38 625.426 199.189 625.426ZM199.189 624.504C197.815 624.504 197.188 623.321 197.188 621.981C197.188 620.642 197.815 619.441 199.189 619.441C200.563 619.441 201.19 620.642 201.19 621.981C201.19 623.321 200.563 624.504 199.189 624.504ZM204.81 621.268C204.81 620.103 205.532 619.441 206.515 619.441C207.467 619.441 208.046 620.063 208.046 621.112V625.287H209.072V621.042C209.072 619.337 208.163 618.519 206.81 618.519C205.801 618.519 205.175 618.972 204.862 619.65H204.775V618.606H203.783V625.287H204.81V621.268ZM214.758 621.529C214.758 623.721 215.35 625.548 216.411 627.096H217.316C216.48 625.948 215.819 623.6 215.819 621.529C215.819 619.459 216.48 617.11 217.316 615.962H216.411C215.35 617.51 214.758 619.337 214.758 621.529ZM221.401 625.426C223.21 625.426 224.428 624.052 224.428 621.981C224.428 619.894 223.21 618.519 221.401 618.519C219.591 618.519 218.374 619.894 218.374 621.981C218.374 624.052 219.591 625.426 221.401 625.426ZM221.401 624.504C220.026 624.504 219.4 623.321 219.4 621.981C219.4 620.642 220.026 619.441 221.401 619.441C222.775 619.441 223.402 620.642 223.402 621.981C223.402 623.321 222.775 624.504 221.401 624.504ZM225.995 627.792H227.021V624.261H227.108C227.335 624.626 227.77 625.426 229.057 625.426C230.727 625.426 231.893 624.087 231.893 621.964C231.893 619.859 230.727 618.519 229.04 618.519C227.735 618.519 227.335 619.32 227.108 619.668H226.987V618.606H225.995V627.792ZM227.004 621.947C227.004 620.45 227.665 619.441 228.918 619.441C230.223 619.441 230.866 620.537 230.866 621.947C230.866 623.373 230.205 624.504 228.918 624.504C227.683 624.504 227.004 623.46 227.004 621.947ZM236.364 618.606H234.938V617.006H233.911V618.606H232.902V619.476H233.911V623.652C233.911 624.817 234.851 625.374 235.72 625.374C236.103 625.374 236.347 625.305 236.486 625.252L236.277 624.33C236.19 624.348 236.051 624.382 235.825 624.382C235.372 624.382 234.938 624.243 234.938 623.373V619.476H236.364V618.606ZM237.908 625.287H238.935V618.606H237.908V625.287ZM238.43 617.493C238.83 617.493 239.161 617.18 239.161 616.797C239.161 616.414 238.83 616.101 238.43 616.101C238.03 616.101 237.699 616.414 237.699 616.797C237.699 617.18 238.03 617.493 238.43 617.493ZM243.529 625.426C245.338 625.426 246.556 624.052 246.556 621.981C246.556 619.894 245.338 618.519 243.529 618.519C241.719 618.519 240.502 619.894 240.502 621.981C240.502 624.052 241.719 625.426 243.529 625.426ZM243.529 624.504C242.154 624.504 241.528 623.321 241.528 621.981C241.528 620.642 242.154 619.441 243.529 619.441C244.903 619.441 245.53 620.642 245.53 621.981C245.53 623.321 244.903 624.504 243.529 624.504ZM249.149 621.268C249.149 620.103 249.871 619.441 250.854 619.441C251.807 619.441 252.385 620.063 252.385 621.112V625.287H253.412V621.042C253.412 619.337 252.503 618.519 251.15 618.519C250.141 618.519 249.515 618.972 249.202 619.65H249.115V618.606H248.123V625.287H249.149V621.268ZM257.254 625.444C258.419 625.444 259.028 624.817 259.237 624.382H259.289V625.287H260.316V620.885C260.316 618.763 258.698 618.519 257.845 618.519C256.836 618.519 255.688 618.867 255.166 620.085L256.14 620.433C256.366 619.946 256.901 619.424 257.88 619.424C258.824 619.424 259.289 619.924 259.289 620.781V620.816C259.289 621.312 258.785 621.268 257.567 621.425C256.327 621.586 254.975 621.86 254.975 623.391C254.975 624.696 255.984 625.444 257.254 625.444ZM257.41 624.522C256.593 624.522 256.001 624.156 256.001 623.443C256.001 622.66 256.714 622.416 257.515 622.312C257.95 622.26 259.115 622.138 259.289 621.929V622.869C259.289 623.704 258.628 624.522 257.41 624.522ZM263.216 616.379H262.189V625.287H263.216V616.379ZM267.288 621.529C267.288 619.337 266.696 617.51 265.635 615.962H264.73C265.566 617.11 266.227 619.459 266.227 621.529C266.227 623.6 265.566 625.948 264.73 627.096H265.635C266.696 625.548 267.288 623.721 267.288 621.529Z" fill="#1A1A1A"/>
<rect x="83.1798" y="633.846" width="632.53" height="50.7424" rx="3.06204" fill="white"/>
<rect x="83.1798" y="633.846" width="632.53" height="50.7424" rx="3.06204" stroke="#949494" stroke-width="0.874869"/>
<path d="M431.661 318.94C431.661 316.121 430.008 314.364 427.729 314.364C425.45 314.364 423.797 316.121 423.797 318.94C423.797 321.758 425.45 323.516 427.729 323.516C428.312 323.516 428.851 323.402 429.334 323.185L430.112 324.229H431.295L430.134 322.685C431.082 321.906 431.661 320.61 431.661 318.94ZM427.381 320.61L428.703 322.341C428.399 322.45 428.072 322.507 427.729 322.507C426.111 322.507 424.841 321.254 424.841 318.94C424.841 316.626 426.111 315.373 427.729 315.373C429.347 315.373 430.617 316.626 430.617 318.94C430.617 320.284 430.191 321.267 429.512 321.858L428.564 320.61H427.381ZM437.546 320.662C437.546 321.915 436.589 322.489 435.823 322.489C434.971 322.489 434.362 321.863 434.362 320.888V316.713H433.335V320.958C433.335 322.663 434.24 323.481 435.493 323.481C436.502 323.481 437.163 322.941 437.476 322.263H437.546V323.394H438.572V316.713H437.546V320.662ZM442.418 323.55C443.584 323.55 444.193 322.924 444.402 322.489H444.454V323.394H445.48V318.992C445.48 316.87 443.862 316.626 443.01 316.626C442.001 316.626 440.852 316.974 440.33 318.192L441.305 318.54C441.531 318.053 442.066 317.531 443.045 317.531C443.988 317.531 444.454 318.031 444.454 318.888V318.923C444.454 319.418 443.949 319.375 442.731 319.531C441.492 319.692 440.139 319.966 440.139 321.497C440.139 322.802 441.148 323.55 442.418 323.55ZM442.575 322.628C441.757 322.628 441.166 322.263 441.166 321.55C441.166 320.767 441.879 320.523 442.679 320.419C443.114 320.367 444.28 320.245 444.454 320.036V320.975C444.454 321.811 443.793 322.628 442.575 322.628ZM448.38 319.375C448.38 318.209 449.102 317.548 450.085 317.548C451.038 317.548 451.616 318.17 451.616 319.218V323.394H452.643V319.149C452.643 317.444 451.734 316.626 450.381 316.626C449.372 316.626 448.746 317.078 448.432 317.757H448.345V316.713H447.354V323.394H448.38V319.375ZM457.424 316.713H455.997V315.112H454.971V316.713H453.962V317.583H454.971V321.758C454.971 322.924 455.91 323.481 456.78 323.481C457.163 323.481 457.407 323.411 457.546 323.359L457.337 322.437C457.25 322.454 457.111 322.489 456.885 322.489C456.432 322.489 455.997 322.35 455.997 321.48V317.583H457.424V316.713ZM458.968 323.394H459.994V316.713H458.968V323.394ZM459.49 315.6C459.89 315.6 460.221 315.286 460.221 314.904C460.221 314.521 459.89 314.208 459.49 314.208C459.09 314.208 458.759 314.521 458.759 314.904C458.759 315.286 459.09 315.6 459.49 315.6ZM464.78 316.713H463.353V315.112H462.327V316.713H461.318V317.583H462.327V321.758C462.327 322.924 463.266 323.481 464.136 323.481C464.519 323.481 464.763 323.411 464.902 323.359L464.693 322.437C464.606 322.454 464.467 322.489 464.241 322.489C463.788 322.489 463.353 322.35 463.353 321.48V317.583H464.78V316.713ZM466.985 325.899C467.912 325.899 468.564 325.408 468.951 324.368L471.796 316.73L470.674 316.713L468.829 322.037H468.76L466.916 316.713H465.802L468.273 323.429L468.081 323.951C467.707 324.968 467.246 325.064 466.498 324.873L466.237 325.777C466.341 325.83 466.637 325.899 466.985 325.899Z" fill="#1A1A1A"/>
<rect x="423.504" y="332.081" width="292.206" height="50.7424" rx="3.06204" fill="white"/>
<rect x="423.504" y="332.081" width="292.206" height="50.7424" rx="3.06204" stroke="#949494" stroke-width="0.874869"/>
<path d="M90.989 518.49C90.6584 516.663 89.197 515.584 87.405 515.584C85.1259 515.584 83.4731 517.341 83.4731 520.16C83.4731 522.978 85.1259 524.735 87.405 524.735C89.197 524.735 90.6584 523.657 90.989 521.83H89.9103C89.6494 523.065 88.5881 523.726 87.405 523.726C85.787 523.726 84.517 522.474 84.517 520.16C84.517 517.846 85.787 516.593 87.405 516.593C88.5881 516.593 89.6494 517.254 89.9103 518.49H90.989ZM95.307 524.753C97.1163 524.753 98.3342 523.378 98.3342 521.308C98.3342 519.22 97.1163 517.846 95.307 517.846C93.4976 517.846 92.2797 519.22 92.2797 521.308C92.2797 523.378 93.4976 524.753 95.307 524.753ZM95.307 523.831C93.9325 523.831 93.3062 522.648 93.3062 521.308C93.3062 519.968 93.9325 518.768 95.307 518.768C96.6814 518.768 97.3077 519.968 97.3077 521.308C97.3077 522.648 96.6814 523.831 95.307 523.831ZM100.928 520.595C100.928 519.429 101.65 518.768 102.633 518.768C103.585 518.768 104.164 519.39 104.164 520.438V524.614H105.19V520.369C105.19 518.664 104.281 517.846 102.928 517.846C101.919 517.846 101.293 518.298 100.98 518.977H100.893V517.933H99.9011V524.614H100.928V520.595ZM109.971 517.933H108.545V516.332H107.518V517.933H106.509V518.803H107.518V522.978C107.518 524.144 108.458 524.701 109.328 524.701C109.71 524.701 109.954 524.631 110.093 524.579L109.884 523.657C109.797 523.674 109.658 523.709 109.432 523.709C108.98 523.709 108.545 523.57 108.545 522.7V518.803H109.971V517.933ZM113.481 524.77C114.647 524.77 115.256 524.144 115.465 523.709H115.517V524.614H116.543V520.212C116.543 518.089 114.925 517.846 114.073 517.846C113.064 517.846 111.915 518.194 111.394 519.412L112.368 519.76C112.594 519.272 113.129 518.751 114.108 518.751C115.051 518.751 115.517 519.251 115.517 520.108V520.142C115.517 520.638 115.012 520.595 113.794 520.751C112.555 520.912 111.202 521.186 111.202 522.717C111.202 524.022 112.211 524.77 113.481 524.77ZM113.638 523.848C112.82 523.848 112.229 523.483 112.229 522.769C112.229 521.987 112.942 521.743 113.742 521.639C114.177 521.586 115.343 521.465 115.517 521.256V522.195C115.517 523.03 114.856 523.848 113.638 523.848ZM121.131 524.753C122.61 524.753 123.584 523.848 123.758 522.665H122.732C122.54 523.396 121.931 523.831 121.131 523.831C119.913 523.831 119.13 522.822 119.13 521.273C119.13 519.76 119.93 518.768 121.131 518.768C122.036 518.768 122.575 519.325 122.732 519.934H123.758C123.584 518.681 122.523 517.846 121.114 517.846C119.304 517.846 118.104 519.272 118.104 521.308C118.104 523.309 119.252 524.753 121.131 524.753ZM128.164 517.933H126.737V516.332H125.711V517.933H124.702V518.803H125.711V522.978C125.711 524.144 126.65 524.701 127.52 524.701C127.903 524.701 128.147 524.631 128.286 524.579L128.077 523.657C127.99 523.674 127.851 523.709 127.625 523.709C127.172 523.709 126.737 523.57 126.737 522.7V518.803H128.164V517.933ZM140.356 515.706H139.294V522.717H139.207L134.336 515.706H133.292V524.614H134.371V517.62H134.458L139.312 524.614H140.356V515.706ZM146.585 521.882C146.585 523.135 145.628 523.709 144.863 523.709C144.01 523.709 143.401 523.083 143.401 522.108V517.933H142.375V522.178C142.375 523.883 143.28 524.701 144.532 524.701C145.541 524.701 146.202 524.161 146.516 523.483H146.585V524.614H147.612V517.933H146.585V521.882ZM149.492 524.614H150.518V520.438C150.518 519.46 151.232 518.768 152.032 518.768C152.81 518.768 153.354 519.277 153.354 520.038V524.614H154.398V520.264C154.398 519.403 154.937 518.768 155.877 518.768C156.608 518.768 157.234 519.155 157.234 520.142V524.614H158.26V520.142C158.26 518.572 157.417 517.846 156.225 517.846C155.268 517.846 154.568 518.285 154.224 518.977H154.154C153.824 518.263 153.241 517.846 152.362 517.846C151.493 517.846 150.849 518.263 150.57 518.977H150.483V517.933H149.492V524.614ZM160.276 524.614H161.268V523.587H161.39C161.616 523.953 162.051 524.753 163.338 524.753C165.009 524.753 166.174 523.413 166.174 521.291C166.174 519.185 165.009 517.846 163.321 517.846C162.016 517.846 161.616 518.646 161.39 518.994H161.303V515.706H160.276V524.614ZM161.285 521.273C161.285 519.777 161.947 518.768 163.199 518.768C164.504 518.768 165.148 519.864 165.148 521.273C165.148 522.7 164.487 523.831 163.199 523.831C161.964 523.831 161.285 522.787 161.285 521.273ZM170.545 524.753C171.903 524.753 172.894 524.074 173.207 523.065L172.216 522.787C171.955 523.483 171.35 523.831 170.545 523.831C169.341 523.831 168.51 523.052 168.462 521.621H173.312V521.186C173.312 518.698 171.833 517.846 170.441 517.846C168.632 517.846 167.431 519.272 167.431 521.325C167.431 523.378 168.614 524.753 170.545 524.753ZM168.462 520.734C168.532 519.694 169.267 518.768 170.441 518.768C171.555 518.768 172.268 519.603 172.268 520.734H168.462ZM174.873 524.614H175.9V520.386C175.9 519.481 176.613 518.82 177.587 518.82C177.861 518.82 178.144 518.872 178.214 518.89V517.846C178.096 517.837 177.827 517.828 177.674 517.828C176.874 517.828 176.178 518.281 175.935 518.942H175.865V517.933H174.873V524.614ZM185.989 515.706H184.911L182.684 517.185V518.281L184.859 516.837H184.911V524.614H185.989V515.706Z" fill="#1A1A1A"/>
<rect x="83.1798" y="533.3" width="292.206" height="50.7424" rx="3.06204" fill="white"/>
<rect x="83.1798" y="533.3" width="292.206" height="50.7424" rx="3.06204" stroke="#949494" stroke-width="0.874869"/>
<path d="M431.313 518.49C430.982 516.663 429.521 515.584 427.729 515.584C425.45 515.584 423.797 517.341 423.797 520.16C423.797 522.978 425.45 524.735 427.729 524.735C429.521 524.735 430.982 523.657 431.313 521.83H430.234C429.973 523.065 428.912 523.726 427.729 523.726C426.111 523.726 424.841 522.474 424.841 520.16C424.841 517.846 426.111 516.593 427.729 516.593C428.912 516.593 429.973 517.254 430.234 518.49H431.313ZM435.631 524.753C437.44 524.753 438.658 523.378 438.658 521.308C438.658 519.22 437.44 517.846 435.631 517.846C433.821 517.846 432.604 519.22 432.604 521.308C432.604 523.378 433.821 524.753 435.631 524.753ZM435.631 523.831C434.256 523.831 433.63 522.648 433.63 521.308C433.63 519.968 434.256 518.768 435.631 518.768C437.005 518.768 437.632 519.968 437.632 521.308C437.632 522.648 437.005 523.831 435.631 523.831ZM441.251 520.595C441.251 519.429 441.973 518.768 442.956 518.768C443.909 518.768 444.487 519.39 444.487 520.438V524.614H445.514V520.369C445.514 518.664 444.605 517.846 443.252 517.846C442.243 517.846 441.617 518.298 441.304 518.977H441.217V517.933H440.225V524.614H441.251V520.595ZM450.295 517.933H448.868V516.332H447.842V517.933H446.833V518.803H447.842V522.978C447.842 524.144 448.781 524.701 449.651 524.701C450.034 524.701 450.278 524.631 450.417 524.579L450.208 523.657C450.121 523.674 449.982 523.709 449.756 523.709C449.303 523.709 448.868 523.57 448.868 522.7V518.803H450.295V517.933ZM453.805 524.77C454.971 524.77 455.58 524.144 455.789 523.709H455.841V524.614H456.867V520.212C456.867 518.089 455.249 517.846 454.397 517.846C453.388 517.846 452.239 518.194 451.717 519.412L452.692 519.76C452.918 519.272 453.453 518.751 454.431 518.751C455.375 518.751 455.841 519.251 455.841 520.108V520.142C455.841 520.638 455.336 520.595 454.118 520.751C452.879 520.912 451.526 521.186 451.526 522.717C451.526 524.022 452.535 524.77 453.805 524.77ZM453.962 523.848C453.144 523.848 452.552 523.483 452.552 522.769C452.552 521.987 453.266 521.743 454.066 521.639C454.501 521.586 455.667 521.465 455.841 521.256V522.195C455.841 523.03 455.18 523.848 453.962 523.848ZM461.455 524.753C462.934 524.753 463.908 523.848 464.082 522.665H463.055C462.864 523.396 462.255 523.831 461.455 523.831C460.237 523.831 459.454 522.822 459.454 521.273C459.454 519.76 460.254 518.768 461.455 518.768C462.36 518.768 462.899 519.325 463.055 519.934H464.082C463.908 518.681 462.847 517.846 461.437 517.846C459.628 517.846 458.428 519.272 458.428 521.308C458.428 523.309 459.576 524.753 461.455 524.753ZM468.488 517.933H467.061V516.332H466.035V517.933H465.026V518.803H466.035V522.978C466.035 524.144 466.974 524.701 467.844 524.701C468.227 524.701 468.471 524.631 468.61 524.579L468.401 523.657C468.314 523.674 468.175 523.709 467.949 523.709C467.496 523.709 467.061 523.57 467.061 522.7V518.803H468.488V517.933ZM480.68 515.706H479.618V522.717H479.531L474.66 515.706H473.616V524.614H474.695V517.62H474.782L479.636 524.614H480.68V515.706ZM486.909 521.882C486.909 523.135 485.952 523.709 485.187 523.709C484.334 523.709 483.725 523.083 483.725 522.108V517.933H482.699V522.178C482.699 523.883 483.603 524.701 484.856 524.701C485.865 524.701 486.526 524.161 486.84 523.483H486.909V524.614H487.936V517.933H486.909V521.882ZM489.816 524.614H490.842V520.438C490.842 519.46 491.555 518.768 492.356 518.768C493.134 518.768 493.678 519.277 493.678 520.038V524.614H494.722V520.264C494.722 519.403 495.261 518.768 496.201 518.768C496.931 518.768 497.558 519.155 497.558 520.142V524.614H498.584V520.142C498.584 518.572 497.74 517.846 496.549 517.846C495.592 517.846 494.892 518.285 494.548 518.977H494.478C494.148 518.263 493.565 517.846 492.686 517.846C491.816 517.846 491.173 518.263 490.894 518.977H490.807V517.933H489.816V524.614ZM500.6 524.614H501.592V523.587H501.714C501.94 523.953 502.375 524.753 503.662 524.753C505.332 524.753 506.498 523.413 506.498 521.291C506.498 519.185 505.332 517.846 503.645 517.846C502.34 517.846 501.94 518.646 501.714 518.994H501.627V515.706H500.6V524.614ZM501.609 521.273C501.609 519.777 502.27 518.768 503.523 518.768C504.828 518.768 505.472 519.864 505.472 521.273C505.472 522.7 504.811 523.831 503.523 523.831C502.288 523.831 501.609 522.787 501.609 521.273ZM510.869 524.753C512.226 524.753 513.218 524.074 513.531 523.065L512.54 522.787C512.279 523.483 511.674 523.831 510.869 523.831C509.665 523.831 508.834 523.052 508.786 521.621H513.636V521.186C513.636 518.698 512.157 517.846 510.765 517.846C508.956 517.846 507.755 519.272 507.755 521.325C507.755 523.378 508.938 524.753 510.869 524.753ZM508.786 520.734C508.856 519.694 509.591 518.768 510.765 518.768C511.878 518.768 512.592 519.603 512.592 520.734H508.786ZM515.197 524.614H516.224V520.386C516.224 519.481 516.937 518.82 517.911 518.82C518.185 518.82 518.468 518.872 518.538 518.89V517.846C518.42 517.837 518.15 517.828 517.998 517.828C517.198 517.828 516.502 518.281 516.258 518.942H516.189V517.933H515.197V524.614ZM523.182 524.614H528.801V523.657H524.66V523.587L526.661 521.447C528.192 519.807 528.645 519.042 528.645 518.055C528.645 516.68 527.531 515.584 525.965 515.584C524.404 515.584 523.216 516.645 523.216 518.211H524.243C524.243 517.198 524.9 516.524 525.931 516.524C526.896 516.524 527.636 517.115 527.636 518.055C527.636 518.877 527.153 519.486 526.122 520.612L523.182 523.831V524.614Z" fill="#1A1A1A"/>
<rect x="423.504" y="533.3" width="292.206" height="50.7424" rx="3.06204" fill="white"/>
<rect x="423.504" y="533.3" width="292.206" height="50.7424" rx="3.06204" stroke="#949494" stroke-width="0.874869"/>
<path d="M86.1859 75.6573V81.6204H84.2751V66.8176H88.9784C90.6722 66.8176 91.939 67.2165 92.7789 68.0144C93.6187 68.7983 94.0387 69.8761 94.0387 71.2479C94.0387 72.6337 93.6047 73.7185 92.7369 74.5024C91.869 75.2723 90.6162 75.6573 88.9784 75.6573H86.1859ZM88.8105 74.0615C89.9723 74.0615 90.8052 73.8165 91.3091 73.3266C91.827 72.8367 92.086 72.1438 92.086 71.2479C92.086 70.3241 91.827 69.6242 91.3091 69.1482C90.8052 68.6583 89.9723 68.4133 88.8105 68.4133H86.1859V74.0615H88.8105ZM98.1811 66.0827V81.6204H96.2704V66.0827H98.1811ZM111.856 75.2163C111.856 75.6223 111.828 75.9722 111.772 76.2662H102.555C102.597 77.582 102.968 78.5688 103.668 79.2267C104.382 79.8846 105.249 80.2136 106.271 80.2136C107.195 80.2136 107.965 79.9826 108.581 79.5207C109.211 79.0447 109.596 78.4148 109.736 77.631H111.772C111.632 78.4288 111.318 79.1427 110.828 79.7726C110.352 80.4025 109.729 80.8925 108.959 81.2424C108.189 81.5924 107.321 81.7673 106.355 81.7673C105.249 81.7673 104.27 81.5294 103.416 81.0534C102.562 80.5775 101.89 79.8986 101.4 79.0168C100.924 78.1209 100.686 77.071 100.686 75.8672C100.686 74.6634 100.924 73.6136 101.4 72.7177C101.89 71.8218 102.562 71.1359 103.416 70.66C104.27 70.1841 105.249 69.9461 106.355 69.9461C107.475 69.9461 108.448 70.1841 109.274 70.66C110.114 71.1359 110.751 71.7728 111.185 72.5707C111.632 73.3686 111.856 74.2505 111.856 75.2163ZM109.925 75.3423C109.967 74.4884 109.827 73.7745 109.505 73.2006C109.183 72.6267 108.742 72.1998 108.182 71.9198C107.622 71.6399 107.013 71.4999 106.355 71.4999C105.305 71.4999 104.424 71.8288 103.71 72.4867C102.996 73.1306 102.611 74.0825 102.555 75.3423H109.925ZM119.08 69.9461C120.2 69.9461 121.145 70.2261 121.914 70.786C122.698 71.3459 123.244 72.0948 123.552 73.0327V70.0931H125.463V81.6204H123.552V78.6808C123.244 79.6187 122.698 80.3675 121.914 80.9275C121.145 81.4874 120.2 81.7673 119.08 81.7673C118.058 81.7673 117.148 81.5294 116.35 81.0534C115.552 80.5775 114.922 79.8986 114.461 79.0168C114.013 78.1209 113.789 77.071 113.789 75.8672C113.789 74.6634 114.013 73.6136 114.461 72.7177C114.922 71.8218 115.552 71.1359 116.35 70.66C117.148 70.1841 118.058 69.9461 119.08 69.9461ZM119.626 71.6469C118.45 71.6469 117.505 72.0248 116.791 72.7807C116.091 73.5226 115.741 74.5514 115.741 75.8672C115.741 77.183 116.091 78.2189 116.791 78.9748C117.505 79.7166 118.45 80.0876 119.626 80.0876C120.382 80.0876 121.054 79.9126 121.641 79.5627C122.243 79.2127 122.712 78.7228 123.048 78.0929C123.384 77.449 123.552 76.7071 123.552 75.8672C123.552 75.0274 123.384 74.2855 123.048 73.6416C122.712 72.9977 122.243 72.5077 121.641 72.1718C121.054 71.8218 120.382 71.6469 119.626 71.6469ZM132.115 69.9461C133.417 69.9461 134.46 70.2891 135.244 70.975C136.042 71.6469 136.525 72.5567 136.693 73.7046H134.866C134.782 73.0187 134.495 72.4587 134.005 72.0248C133.529 71.5769 132.885 71.3529 132.073 71.3529C131.387 71.3529 130.848 71.5209 130.457 71.8568C130.079 72.1788 129.89 72.6197 129.89 73.1796C129.89 73.5996 130.016 73.9425 130.268 74.2085C130.534 74.4604 130.855 74.6564 131.233 74.7964C131.625 74.9224 132.157 75.0623 132.829 75.2163C133.683 75.4123 134.369 75.6153 134.887 75.8252C135.419 76.0212 135.867 76.3432 136.231 76.7911C136.609 77.239 136.798 77.8409 136.798 78.5968C136.798 79.5347 136.441 80.2976 135.727 80.8855C135.027 81.4734 134.089 81.7673 132.913 81.7673C131.541 81.7673 130.422 81.4384 129.554 80.7805C128.686 80.1226 128.175 79.2057 128.021 78.0299H129.869C129.939 78.7298 130.24 79.2967 130.772 79.7306C131.317 80.1646 132.031 80.3815 132.913 80.3815C133.571 80.3815 134.082 80.2136 134.446 79.8776C134.824 79.5417 135.013 79.1007 135.013 78.5548C135.013 78.1069 134.88 77.7499 134.614 77.484C134.348 77.218 134.019 77.0151 133.627 76.8751C133.235 76.7351 132.696 76.5881 132.01 76.4341C131.156 76.2382 130.471 76.0422 129.953 75.8462C129.449 75.6503 129.015 75.3423 128.651 74.9224C128.301 74.4884 128.126 73.9075 128.126 73.1796C128.126 72.2138 128.483 71.4369 129.197 70.849C129.911 70.2471 130.883 69.9461 132.115 69.9461ZM149.954 75.2163C149.954 75.6223 149.926 75.9722 149.87 76.2662H140.653C140.695 77.582 141.066 78.5688 141.765 79.2267C142.479 79.8846 143.347 80.2136 144.369 80.2136C145.293 80.2136 146.063 79.9826 146.679 79.5207C147.309 79.0447 147.694 78.4148 147.834 77.631H149.87C149.73 78.4288 149.415 79.1427 148.925 79.7726C148.449 80.4025 147.827 80.8925 147.057 81.2424C146.287 81.5924 145.419 81.7673 144.453 81.7673C143.347 81.7673 142.367 81.5294 141.514 81.0534C140.66 80.5775 139.988 79.8986 139.498 79.0168C139.022 78.1209 138.784 77.071 138.784 75.8672C138.784 74.6634 139.022 73.6136 139.498 72.7177C139.988 71.8218 140.66 71.1359 141.514 70.66C142.367 70.1841 143.347 69.9461 144.453 69.9461C145.573 69.9461 146.546 70.1841 147.372 70.66C148.212 71.1359 148.848 71.7728 149.282 72.5707C149.73 73.3686 149.954 74.2505 149.954 75.2163ZM148.023 75.3423C148.065 74.4884 147.925 73.7745 147.603 73.2006C147.281 72.6267 146.84 72.1998 146.28 71.9198C145.72 71.6399 145.111 71.4999 144.453 71.4999C143.403 71.4999 142.521 71.8288 141.807 72.4867C141.094 73.1306 140.709 74.0825 140.653 75.3423H148.023ZM162.743 67.3635C161.721 67.3495 161.008 67.5245 160.602 67.8884C160.21 68.2524 160.014 68.8823 160.014 69.7781V70.0931H162.743V71.7728H160.014V81.6204H158.103V71.7728H156.444V70.0931H158.103V69.6312C158.103 66.8736 159.65 65.5578 162.743 65.6838V67.3635ZM164.482 66.7126C164.482 66.3627 164.601 66.0827 164.839 65.8727C165.077 65.6488 165.392 65.5368 165.784 65.5368C166.176 65.5368 166.49 65.6488 166.728 65.8727C166.966 66.0827 167.085 66.3627 167.085 66.7126C167.085 67.0625 166.966 67.3495 166.728 67.5735C166.49 67.7834 166.176 67.8884 165.784 67.8884C165.392 67.8884 165.077 67.7834 164.839 67.5735C164.601 67.3495 164.482 67.0625 164.482 66.7126ZM166.728 70.0931V81.6204H164.818V70.0931H166.728ZM171.711 66.0827V81.6204H169.8V66.0827H171.711ZM176.694 66.0827V81.6204H174.783V66.0827H176.694ZM190.182 69.9461C191.287 69.9461 192.274 70.1841 193.142 70.66C194.024 71.1359 194.71 71.8218 195.2 72.7177C195.704 73.6136 195.956 74.6634 195.956 75.8672C195.956 77.071 195.704 78.1209 195.2 79.0168C194.71 79.8986 194.024 80.5775 193.142 81.0534C192.274 81.5294 191.287 81.7673 190.182 81.7673C189.076 81.7673 188.082 81.5294 187.2 81.0534C186.332 80.5775 185.646 79.8986 185.142 79.0168C184.638 78.1209 184.386 77.071 184.386 75.8672C184.386 74.6634 184.638 73.6136 185.142 72.7177C185.646 71.8218 186.332 71.1359 187.2 70.66C188.082 70.1841 189.076 69.9461 190.182 69.9461ZM190.182 71.6259C189.496 71.6259 188.859 71.7798 188.271 72.0878C187.697 72.3957 187.228 72.8717 186.864 73.5156C186.514 74.1455 186.339 74.9294 186.339 75.8672C186.339 76.7911 186.514 77.575 186.864 78.2189C187.228 78.8488 187.697 79.3177 188.271 79.6257C188.859 79.9336 189.496 80.0876 190.182 80.0876C190.867 80.0876 191.497 79.9336 192.071 79.6257C192.659 79.3177 193.128 78.8488 193.478 78.2189C193.842 77.575 194.024 76.7911 194.024 75.8672C194.024 74.9294 193.842 74.1455 193.478 73.5156C193.128 72.8717 192.659 72.3957 192.071 72.0878C191.497 71.7798 190.867 71.6259 190.182 71.6259ZM208.692 70.0931V81.6204H206.781V78.9118C206.487 79.8496 205.962 80.5705 205.206 81.0744C204.465 81.5644 203.597 81.8093 202.603 81.8093C201.273 81.8093 200.195 81.3824 199.369 80.5285C198.543 79.6607 198.131 78.4218 198.131 76.8121V70.0931H200.041V76.6231C200.041 77.7709 200.335 78.6598 200.923 79.2897C201.511 79.9056 202.309 80.2136 203.317 80.2136C204.367 80.2136 205.206 79.8776 205.836 79.2057C206.466 78.5198 206.781 77.526 206.781 76.2242V70.0931H208.692ZM217.254 79.9406V81.6204H215.826C214.651 81.6204 213.769 81.3404 213.181 80.7805C212.607 80.2206 212.32 79.2827 212.32 77.9669V71.7518H210.598V70.0931H212.32V67.2165H214.252V70.0931H217.233V71.7518H214.252V78.0089C214.252 78.7508 214.385 79.2617 214.651 79.5417C214.931 79.8076 215.407 79.9406 216.078 79.9406H217.254ZM230.275 79.9406V81.6204H228.847C227.671 81.6204 226.789 81.3404 226.201 80.7805C225.627 80.2206 225.34 79.2827 225.34 77.9669V71.7518H223.619V70.0931H225.34V67.2165H227.272V70.0931H230.254V71.7518H227.272V78.0089C227.272 78.7508 227.405 79.2617 227.671 79.5417C227.951 79.8076 228.427 79.9406 229.099 79.9406H230.275ZM238.674 69.9041C240.018 69.9041 241.103 70.3381 241.929 71.2059C242.755 72.0598 243.168 73.2986 243.168 74.9224V81.6204H241.257V75.0903C241.257 73.9425 240.963 73.0606 240.375 72.4447C239.787 71.8288 238.989 71.5209 237.982 71.5209C236.932 71.5209 236.092 71.8638 235.462 72.5497C234.832 73.2216 234.517 74.2085 234.517 75.5103V81.6204H232.606V66.0827H234.517V72.8227C234.811 71.8848 235.329 71.1639 236.071 70.66C236.827 70.1561 237.695 69.9041 238.674 69.9041ZM256.702 75.2163C256.702 75.6223 256.674 75.9722 256.618 76.2662H247.4C247.442 77.582 247.813 78.5688 248.513 79.2267C249.227 79.8846 250.095 80.2136 251.117 80.2136C252.041 80.2136 252.81 79.9826 253.426 79.5207C254.056 79.0447 254.441 78.4148 254.581 77.631H256.618C256.478 78.4288 256.163 79.1427 255.673 79.7726C255.197 80.4025 254.574 80.8925 253.804 81.2424C253.034 81.5924 252.167 81.7673 251.201 81.7673C250.095 81.7673 249.115 81.5294 248.261 81.0534C247.407 80.5775 246.735 79.8986 246.245 79.0168C245.77 78.1209 245.532 77.071 245.532 75.8672C245.532 74.6634 245.77 73.6136 246.245 72.7177C246.735 71.8218 247.407 71.1359 248.261 70.66C249.115 70.1841 250.095 69.9461 251.201 69.9461C252.321 69.9461 253.293 70.1841 254.119 70.66C254.959 71.1359 255.596 71.7728 256.03 72.5707C256.478 73.3686 256.702 74.2505 256.702 75.2163ZM254.77 75.3423C254.812 74.4884 254.672 73.7745 254.35 73.2006C254.028 72.6267 253.587 72.1998 253.027 71.9198C252.468 71.6399 251.859 71.4999 251.201 71.4999C250.151 71.4999 249.269 71.8288 248.555 72.4867C247.841 73.1306 247.456 74.0825 247.4 75.3423H254.77ZM269.491 67.3635C268.469 67.3495 267.755 67.5245 267.349 67.8884C266.957 68.2524 266.761 68.8823 266.761 69.7781V70.0931H269.491V71.7728H266.761V81.6204H264.851V71.7728H263.192V70.0931H264.851V69.6312C264.851 66.8736 266.397 65.5578 269.491 65.6838V67.3635ZM276.794 69.9461C277.899 69.9461 278.886 70.1841 279.754 70.66C280.636 71.1359 281.322 71.8218 281.812 72.7177C282.316 73.6136 282.568 74.6634 282.568 75.8672C282.568 77.071 282.316 78.1209 281.812 79.0168C281.322 79.8986 280.636 80.5775 279.754 81.0534C278.886 81.5294 277.899 81.7673 276.794 81.7673C275.688 81.7673 274.694 81.5294 273.812 81.0534C272.944 80.5775 272.258 79.8986 271.754 79.0168C271.25 78.1209 270.998 77.071 270.998 75.8672C270.998 74.6634 271.25 73.6136 271.754 72.7177C272.258 71.8218 272.944 71.1359 273.812 70.66C274.694 70.1841 275.688 69.9461 276.794 69.9461ZM276.794 71.6259C276.108 71.6259 275.471 71.7798 274.883 72.0878C274.309 72.3957 273.84 72.8717 273.476 73.5156C273.126 74.1455 272.951 74.9294 272.951 75.8672C272.951 76.7911 273.126 77.575 273.476 78.2189C273.84 78.8488 274.309 79.3177 274.883 79.6257C275.471 79.9336 276.108 80.0876 276.794 80.0876C277.479 80.0876 278.109 79.9336 278.683 79.6257C279.271 79.3177 279.74 78.8488 280.09 78.2189C280.454 77.575 280.636 76.7911 280.636 75.8672C280.636 74.9294 280.454 74.1455 280.09 73.5156C279.74 72.8717 279.271 72.3957 278.683 72.0878C278.109 71.7798 277.479 71.6259 276.794 71.6259ZM286.968 72.4237C287.346 71.6259 287.899 71.01 288.627 70.576C289.355 70.1281 290.223 69.9041 291.231 69.9041V71.9828H290.643C289.565 71.9828 288.683 72.2628 287.997 72.8227C287.311 73.3686 286.968 74.2785 286.968 75.5523V81.6204H285.057V70.0931H286.968V72.4237ZM307.289 69.9041C308.633 69.9041 309.71 70.3381 310.522 71.2059C311.348 72.0598 311.761 73.2986 311.761 74.9224V81.6204H309.85V75.0903C309.85 73.9565 309.57 73.0886 309.01 72.4867C308.465 71.8848 307.709 71.5839 306.743 71.5839C305.735 71.5839 304.923 71.9198 304.307 72.5917C303.705 73.2496 303.404 74.2225 303.404 75.5103V81.6204H301.494V75.0903C301.494 73.9565 301.214 73.0886 300.654 72.4867C300.094 71.8848 299.338 71.5839 298.386 71.5839C297.364 71.5839 296.545 71.9198 295.929 72.5917C295.328 73.2496 295.027 74.2225 295.027 75.5103V81.6204H293.116V70.0931H295.027V72.7177C295.307 71.8078 295.803 71.1149 296.517 70.639C297.245 70.1491 298.078 69.9041 299.016 69.9041C299.996 69.9041 300.843 70.1561 301.557 70.66C302.284 71.1499 302.802 71.8778 303.11 72.8437C303.432 71.9058 303.971 71.1849 304.727 70.681C305.483 70.1631 306.337 69.9041 307.289 69.9041ZM326.278 69.9461C327.299 69.9461 328.209 70.1841 329.007 70.66C329.805 71.1359 330.428 71.8218 330.876 72.7177C331.338 73.6136 331.569 74.6634 331.569 75.8672C331.569 77.071 331.338 78.1209 330.876 79.0168C330.428 79.8986 329.805 80.5775 329.007 81.0534C328.209 81.5294 327.299 81.7673 326.278 81.7673C325.158 81.7673 324.206 81.4874 323.422 80.9275C322.652 80.3536 322.12 79.6047 321.826 78.6808V81.6204H319.916V66.0827H321.826V73.0327C322.12 72.1088 322.652 71.3669 323.422 70.807C324.206 70.2331 325.158 69.9461 326.278 69.9461ZM325.732 71.6469C324.99 71.6469 324.318 71.8218 323.716 72.1718C323.114 72.5077 322.645 72.9977 322.309 73.6416C321.973 74.2855 321.805 75.0274 321.805 75.8672C321.805 76.7071 321.973 77.449 322.309 78.0929C322.645 78.7228 323.114 79.2127 323.716 79.5627C324.318 79.9126 324.99 80.0876 325.732 80.0876C326.921 80.0876 327.866 79.7166 328.566 78.9748C329.28 78.2189 329.637 77.183 329.637 75.8672C329.637 74.5514 329.28 73.5226 328.566 72.7807C327.866 72.0248 326.921 71.6469 325.732 71.6469ZM344.667 75.2163C344.667 75.6223 344.639 75.9722 344.583 76.2662H335.366C335.408 77.582 335.779 78.5688 336.478 79.2267C337.192 79.8846 338.06 80.2136 339.082 80.2136C340.006 80.2136 340.776 79.9826 341.392 79.5207C342.022 79.0447 342.407 78.4148 342.547 77.631H344.583C344.443 78.4288 344.128 79.1427 343.638 79.7726C343.162 80.4025 342.54 80.8925 341.77 81.2424C341 81.5924 340.132 81.7673 339.166 81.7673C338.06 81.7673 337.08 81.5294 336.226 81.0534C335.373 80.5775 334.701 79.8986 334.211 79.0168C333.735 78.1209 333.497 77.071 333.497 75.8672C333.497 74.6634 333.735 73.6136 334.211 72.7177C334.701 71.8218 335.373 71.1359 336.226 70.66C337.08 70.1841 338.06 69.9461 339.166 69.9461C340.286 69.9461 341.259 70.1841 342.085 70.66C342.924 71.1359 343.561 71.7728 343.995 72.5707C344.443 73.3686 344.667 74.2505 344.667 75.2163ZM342.735 75.3423C342.777 74.4884 342.637 73.7745 342.316 73.2006C341.994 72.6267 341.553 72.1998 340.993 71.9198C340.433 71.6399 339.824 71.4999 339.166 71.4999C338.116 71.4999 337.234 71.8288 336.52 72.4867C335.807 73.1306 335.422 74.0825 335.366 75.3423H342.735ZM349.077 66.0827V81.6204H347.166V66.0827H349.077ZM357.377 69.9461C358.483 69.9461 359.47 70.1841 360.338 70.66C361.22 71.1359 361.905 71.8218 362.395 72.7177C362.899 73.6136 363.151 74.6634 363.151 75.8672C363.151 77.071 362.899 78.1209 362.395 79.0168C361.905 79.8986 361.22 80.5775 360.338 81.0534C359.47 81.5294 358.483 81.7673 357.377 81.7673C356.271 81.7673 355.277 81.5294 354.396 81.0534C353.528 80.5775 352.842 79.8986 352.338 79.0168C351.834 78.1209 351.582 77.071 351.582 75.8672C351.582 74.6634 351.834 73.6136 352.338 72.7177C352.842 71.8218 353.528 71.1359 354.396 70.66C355.277 70.1841 356.271 69.9461 357.377 69.9461ZM357.377 71.6259C356.691 71.6259 356.054 71.7798 355.466 72.0878C354.893 72.3957 354.424 72.8717 354.06 73.5156C353.71 74.1455 353.535 74.9294 353.535 75.8672C353.535 76.7911 353.71 77.575 354.06 78.2189C354.424 78.8488 354.893 79.3177 355.466 79.6257C356.054 79.9336 356.691 80.0876 357.377 80.0876C358.063 80.0876 358.693 79.9336 359.267 79.6257C359.855 79.3177 360.324 78.8488 360.674 78.2189C361.038 77.575 361.22 76.7911 361.22 75.8672C361.22 74.9294 361.038 74.1455 360.674 73.5156C360.324 72.8717 359.855 72.3957 359.267 72.0878C358.693 71.7798 358.063 71.6259 357.377 71.6259ZM381.473 70.0931L378.155 81.6204H376.098L372.927 72.2348L369.735 81.6204H367.657L364.381 70.0931H366.313L368.77 79.7936L371.961 70.0931H373.956L377.168 79.7726L379.646 70.0931H381.473ZM384.913 70.3031V72.5497H382.604V70.3031H384.913ZM384.913 79.3737V81.6204H382.604V79.3737H384.913Z" fill="black" fill-opacity="0.87"/>
<rect x="388.071" y="759.39" width="217.842" height="58.6162" rx="5.68821" stroke="#212121" stroke-width="1.74974"/>
<path d="M424.823 788.724C425.733 788.92 426.468 789.354 427.028 790.026C427.602 790.698 427.888 791.489 427.888 792.399C427.888 793.602 427.476 794.568 426.65 795.296C425.838 796.024 424.655 796.388 423.101 796.388H417.6V781.585H423.017C424.501 781.585 425.628 781.914 426.398 782.572C427.168 783.23 427.553 784.133 427.553 785.281C427.553 786.232 427.294 787.002 426.776 787.59C426.272 788.178 425.621 788.556 424.823 788.724ZM419.511 788.073H422.702C423.64 788.073 424.354 787.856 424.844 787.422C425.348 786.988 425.6 786.379 425.6 785.596C425.6 784.84 425.355 784.245 424.865 783.811C424.375 783.377 423.626 783.16 422.618 783.16H419.511V788.073ZM422.744 794.792C423.752 794.792 424.529 794.561 425.075 794.099C425.635 793.637 425.915 792.986 425.915 792.147C425.915 791.321 425.628 790.677 425.054 790.215C424.494 789.739 423.71 789.501 422.702 789.501H419.511V794.792H422.744ZM434.996 784.714C436.116 784.714 437.061 784.994 437.831 785.554C438.615 786.113 439.161 786.862 439.469 787.8V784.861H441.379V796.388H439.469V793.448C439.161 794.386 438.615 795.135 437.831 795.695C437.061 796.255 436.116 796.535 434.996 796.535C433.974 796.535 433.065 796.297 432.267 795.821C431.469 795.345 430.839 794.666 430.377 793.784C429.929 792.888 429.705 791.839 429.705 790.635C429.705 789.431 429.929 788.381 430.377 787.485C430.839 786.589 431.469 785.904 432.267 785.428C433.065 784.952 433.974 784.714 434.996 784.714ZM435.542 786.414C434.366 786.414 433.421 786.792 432.708 787.548C432.008 788.29 431.658 789.319 431.658 790.635C431.658 791.951 432.008 792.986 432.708 793.742C433.421 794.484 434.366 794.855 435.542 794.855C436.298 794.855 436.97 794.68 437.558 794.33C438.16 793.98 438.629 793.49 438.965 792.86C439.301 792.217 439.469 791.475 439.469 790.635C439.469 789.795 439.301 789.053 438.965 788.409C438.629 787.765 438.16 787.275 437.558 786.939C436.97 786.589 436.298 786.414 435.542 786.414ZM449.522 784.714C450.992 784.714 452.21 785.106 453.176 785.89C454.142 786.673 454.737 787.723 454.961 789.039H452.945C452.805 788.213 452.42 787.569 451.79 787.107C451.174 786.631 450.404 786.393 449.48 786.393C448.809 786.393 448.193 786.547 447.633 786.855C447.087 787.163 446.646 787.639 446.31 788.283C445.974 788.913 445.806 789.697 445.806 790.635C445.806 791.573 445.974 792.364 446.31 793.007C446.646 793.637 447.087 794.106 447.633 794.414C448.193 794.722 448.809 794.876 449.48 794.876C450.404 794.876 451.174 794.638 451.79 794.162C452.42 793.686 452.805 793.035 452.945 792.21H454.961C454.737 793.539 454.142 794.596 453.176 795.38C452.21 796.15 450.992 796.535 449.522 796.535C448.417 796.535 447.437 796.297 446.583 795.821C445.729 795.345 445.057 794.666 444.567 793.784C444.091 792.888 443.853 791.839 443.853 790.635C443.853 789.431 444.091 788.381 444.567 787.485C445.057 786.589 445.729 785.904 446.583 785.428C447.437 784.952 448.417 784.714 449.522 784.714ZM463.781 796.388L459.372 791.202V796.388H457.461V780.85H459.372V789.879L463.718 784.861H466.049L460.884 790.593L466.175 796.388H463.781ZM478.546 794.708V796.388H477.118C475.942 796.388 475.061 796.108 474.473 795.548C473.899 794.988 473.612 794.05 473.612 792.734V786.519H471.89V784.861H473.612V781.984H475.543V784.861H478.525V786.519H475.543V792.776C475.543 793.518 475.676 794.029 475.942 794.309C476.222 794.575 476.698 794.708 477.37 794.708H478.546ZM486.106 784.714C487.212 784.714 488.199 784.952 489.066 785.428C489.948 785.904 490.634 786.589 491.124 787.485C491.628 788.381 491.88 789.431 491.88 790.635C491.88 791.839 491.628 792.888 491.124 793.784C490.634 794.666 489.948 795.345 489.066 795.821C488.199 796.297 487.212 796.535 486.106 796.535C485 796.535 484.006 796.297 483.124 795.821C482.256 795.345 481.571 794.666 481.067 793.784C480.563 792.888 480.311 791.839 480.311 790.635C480.311 789.431 480.563 788.381 481.067 787.485C481.571 786.589 482.256 785.904 483.124 785.428C484.006 784.952 485 784.714 486.106 784.714ZM486.106 786.393C485.42 786.393 484.783 786.547 484.195 786.855C483.621 787.163 483.152 787.639 482.788 788.283C482.438 788.913 482.263 789.697 482.263 790.635C482.263 791.559 482.438 792.343 482.788 792.986C483.152 793.616 483.621 794.085 484.195 794.393C484.783 794.701 485.42 794.855 486.106 794.855C486.792 794.855 487.422 794.701 487.996 794.393C488.583 794.085 489.052 793.616 489.402 792.986C489.766 792.343 489.948 791.559 489.948 790.635C489.948 789.697 489.766 788.913 489.402 788.283C489.052 787.639 488.583 787.163 487.996 786.855C487.422 786.547 486.792 786.393 486.106 786.393ZM503.169 784.714C504.471 784.714 505.514 785.057 506.297 785.743C507.095 786.414 507.578 787.324 507.746 788.472H505.919C505.836 787.786 505.549 787.226 505.059 786.792C504.583 786.344 503.939 786.12 503.127 786.12C502.441 786.12 501.902 786.288 501.51 786.624C501.132 786.946 500.943 787.387 500.943 787.947C500.943 788.367 501.069 788.71 501.321 788.976C501.587 789.228 501.909 789.424 502.287 789.564C502.679 789.69 503.211 789.83 503.883 789.984C504.737 790.18 505.423 790.383 505.94 790.593C506.472 790.789 506.92 791.111 507.284 791.559C507.662 792.007 507.851 792.609 507.851 793.364C507.851 794.302 507.494 795.065 506.78 795.653C506.08 796.241 505.143 796.535 503.967 796.535C502.595 796.535 501.475 796.206 500.607 795.548C499.739 794.89 499.228 793.973 499.075 792.797H500.922C500.992 793.497 501.293 794.064 501.825 794.498C502.371 794.932 503.085 795.149 503.967 795.149C504.625 795.149 505.136 794.981 505.5 794.645C505.877 794.309 506.066 793.868 506.066 793.322C506.066 792.874 505.933 792.518 505.668 792.252C505.402 791.986 505.073 791.783 504.681 791.643C504.289 791.503 503.75 791.356 503.064 791.202C502.21 791.006 501.524 790.81 501.006 790.614C500.502 790.418 500.068 790.11 499.704 789.69C499.354 789.256 499.18 788.675 499.18 787.947C499.18 786.981 499.536 786.204 500.25 785.617C500.964 785.015 501.937 784.714 503.169 784.714ZM521.008 789.984C521.008 790.39 520.98 790.74 520.924 791.034H511.706C511.748 792.35 512.119 793.336 512.819 793.994C513.533 794.652 514.401 794.981 515.423 794.981C516.347 794.981 517.116 794.75 517.732 794.288C518.362 793.812 518.747 793.182 518.887 792.399H520.924C520.784 793.196 520.469 793.91 519.979 794.54C519.503 795.17 518.88 795.66 518.11 796.01C517.34 796.36 516.473 796.535 515.507 796.535C514.401 796.535 513.421 796.297 512.567 795.821C511.713 795.345 511.041 794.666 510.551 793.784C510.075 792.888 509.838 791.839 509.838 790.635C509.838 789.431 510.075 788.381 510.551 787.485C511.041 786.589 511.713 785.904 512.567 785.428C513.421 784.952 514.401 784.714 515.507 784.714C516.627 784.714 517.599 784.952 518.425 785.428C519.265 785.904 519.902 786.54 520.336 787.338C520.784 788.136 521.008 789.018 521.008 789.984ZM519.076 790.11C519.118 789.256 518.978 788.542 518.656 787.968C518.334 787.394 517.893 786.967 517.333 786.687C516.773 786.407 516.165 786.267 515.507 786.267C514.457 786.267 513.575 786.596 512.861 787.254C512.147 787.898 511.762 788.85 511.706 790.11H519.076ZM527.118 784.714C528.42 784.714 529.463 785.057 530.247 785.743C531.045 786.414 531.528 787.324 531.696 788.472H529.869C529.785 787.786 529.498 787.226 529.008 786.792C528.532 786.344 527.888 786.12 527.076 786.12C526.391 786.12 525.852 786.288 525.46 786.624C525.082 786.946 524.893 787.387 524.893 787.947C524.893 788.367 525.019 788.71 525.271 788.976C525.537 789.228 525.859 789.424 526.237 789.564C526.628 789.69 527.16 789.83 527.832 789.984C528.686 790.18 529.372 790.383 529.89 790.593C530.422 790.789 530.87 791.111 531.234 791.559C531.612 792.007 531.801 792.609 531.801 793.364C531.801 794.302 531.444 795.065 530.73 795.653C530.03 796.241 529.092 796.535 527.916 796.535C526.545 796.535 525.425 796.206 524.557 795.548C523.689 794.89 523.178 793.973 523.024 792.797H524.872C524.942 793.497 525.243 794.064 525.775 794.498C526.321 794.932 527.034 795.149 527.916 795.149C528.574 795.149 529.085 794.981 529.449 794.645C529.827 794.309 530.016 793.868 530.016 793.322C530.016 792.874 529.883 792.518 529.617 792.252C529.351 791.986 529.022 791.783 528.63 791.643C528.238 791.503 527.699 791.356 527.013 791.202C526.16 791.006 525.474 790.81 524.956 790.614C524.452 790.418 524.018 790.11 523.654 789.69C523.304 789.256 523.129 788.675 523.129 787.947C523.129 786.981 523.486 786.204 524.2 785.617C524.914 785.015 525.887 784.714 527.118 784.714ZM537.965 784.714C539.267 784.714 540.31 785.057 541.094 785.743C541.892 786.414 542.375 787.324 542.543 788.472H540.716C540.632 787.786 540.345 787.226 539.855 786.792C539.379 786.344 538.735 786.12 537.923 786.12C537.238 786.12 536.699 786.288 536.307 786.624C535.929 786.946 535.74 787.387 535.74 787.947C535.74 788.367 535.866 788.71 536.118 788.976C536.384 789.228 536.706 789.424 537.084 789.564C537.476 789.69 538.007 789.83 538.679 789.984C539.533 790.18 540.219 790.383 540.737 790.593C541.269 790.789 541.717 791.111 542.081 791.559C542.459 792.007 542.648 792.609 542.648 793.364C542.648 794.302 542.291 795.065 541.577 795.653C540.877 796.241 539.939 796.535 538.763 796.535C537.392 796.535 536.272 796.206 535.404 795.548C534.536 794.89 534.025 793.973 533.871 792.797H535.719C535.789 793.497 536.09 794.064 536.622 794.498C537.168 794.932 537.881 795.149 538.763 795.149C539.421 795.149 539.932 794.981 540.296 794.645C540.674 794.309 540.863 793.868 540.863 793.322C540.863 792.874 540.73 792.518 540.464 792.252C540.198 791.986 539.869 791.783 539.477 791.643C539.085 791.503 538.546 791.356 537.86 791.202C537.007 791.006 536.321 790.81 535.803 790.614C535.299 790.418 534.865 790.11 534.501 789.69C534.151 789.256 533.976 788.675 533.976 787.947C533.976 786.981 534.333 786.204 535.047 785.617C535.761 785.015 536.734 784.714 537.965 784.714ZM544.865 781.48C544.865 781.13 544.984 780.85 545.222 780.64C545.46 780.416 545.775 780.304 546.167 780.304C546.559 780.304 546.874 780.416 547.112 780.64C547.35 780.85 547.469 781.13 547.469 781.48C547.469 781.83 547.35 782.117 547.112 782.341C546.874 782.551 546.559 782.656 546.167 782.656C545.775 782.656 545.46 782.551 545.222 782.341C544.984 782.117 544.865 781.83 544.865 781.48ZM547.112 784.861V796.388H545.201V784.861H547.112ZM555.412 784.714C556.518 784.714 557.505 784.952 558.372 785.428C559.254 785.904 559.94 786.589 560.43 787.485C560.934 788.381 561.186 789.431 561.186 790.635C561.186 791.839 560.934 792.888 560.43 793.784C559.94 794.666 559.254 795.345 558.372 795.821C557.505 796.297 556.518 796.535 555.412 796.535C554.306 796.535 553.312 796.297 552.43 795.821C551.562 795.345 550.877 794.666 550.373 793.784C549.869 792.888 549.617 791.839 549.617 790.635C549.617 789.431 549.869 788.381 550.373 787.485C550.877 786.589 551.562 785.904 552.43 785.428C553.312 784.952 554.306 784.714 555.412 784.714ZM555.412 786.393C554.726 786.393 554.089 786.547 553.501 786.855C552.927 787.163 552.458 787.639 552.094 788.283C551.744 788.913 551.569 789.697 551.569 790.635C551.569 791.559 551.744 792.343 552.094 792.986C552.458 793.616 552.927 794.085 553.501 794.393C554.089 794.701 554.726 794.855 555.412 794.855C556.098 794.855 556.728 794.701 557.302 794.393C557.889 794.085 558.358 793.616 558.708 792.986C559.072 792.343 559.254 791.559 559.254 790.635C559.254 789.697 559.072 788.913 558.708 788.283C558.358 787.639 557.889 787.163 557.302 786.855C556.728 786.547 556.098 786.393 555.412 786.393ZM569.744 784.672C571.088 784.672 572.172 785.106 572.998 785.974C573.824 786.827 574.237 788.066 574.237 789.69V796.388H572.326V789.858C572.326 788.71 572.032 787.828 571.445 787.212C570.857 786.596 570.059 786.288 569.051 786.288C568.001 786.288 567.161 786.631 566.531 787.317C565.901 787.989 565.586 788.976 565.586 790.278V796.388H563.676V784.861H565.586V787.59C565.88 786.652 566.398 785.932 567.14 785.428C567.896 784.924 568.764 784.672 569.744 784.672Z" fill="#212121"/>
<defs>
<filter id="filter0_d" x="0.504732" y="0.00420642" width="685.022" height="894.991" filterUnits="userSpaceOnUse" color-interpolation-filters="sRGB">
<feFlood flood-opacity="0" result="BackgroundImageFix"/>
<feColorMatrix in="SourceAlpha" type="matrix" values="0 0 0 0 0 0 0 0 0 0 0 0 0 0 0 0 0 0 127 0"/>
<feOffset dy="3.49947"/>
<feGaussianBlur stdDeviation="15.7476"/>
<feColorMatrix type="matrix" values="0 0 0 0 0 0 0 0 0 0 0 0 0 0 0 0 0 0 0.15 0"/>
<feBlend mode="normal" in2="BackgroundImageFix" result="effect1_dropShadow"/>
<feBlend mode="normal" in="SourceGraphic" in2="effect1_dropShadow" result="shape"/>
</filter>
</defs>
</svg>
