<svg width="195" height="36" viewBox="0 0 195 36" fill="none" xmlns="http://www.w3.org/2000/svg">
<path fill-rule="evenodd" clip-rule="evenodd" d="M78.063 11.3591L84.9274 21.1626C86.6028 23.5552 86.8307 26.5283 85.7946 29.0422C85.9029 28.9065 86.0077 28.7665 86.1086 28.6223L94.7965 16.2147C97.4087 12.4841 96.502 7.34225 92.7714 4.73005C89.0408 2.11784 83.8989 3.0245 81.2867 6.75511L78.063 11.3591Z" fill="white"/>
<rect x="77.8197" y="33.0998" width="28.4587" height="13.3119" rx="6.65594" transform="rotate(-125.684 77.8197 33.0998)" stroke="white" stroke-width="3.18047"/>
<circle cx="45.7461" cy="17.7578" r="13.0753" stroke="white" stroke-width="3.18047"/>
<circle cx="151.392" cy="20.6892" r="10.0555" stroke="white" stroke-width="3.18047"/>
<path d="M13.9846 3.09229C17.616 3.09229 20.619 4.05253 22.9934 5.97301C25.4027 7.89349 26.8693 10.4425 27.393 13.62H23.5695C23.1854 11.3504 22.1204 9.56954 20.3746 8.27758C18.6287 6.95071 16.4812 6.28727 13.9322 6.28727C12.0816 6.28727 10.3706 6.70628 8.79929 7.54431C7.26291 8.38234 6.02333 9.6743 5.08054 11.4202C4.17268 13.1312 3.71875 15.2437 3.71875 17.7578C3.71875 20.2719 4.17268 22.4018 5.08054 24.1477C6.02333 25.8587 7.26291 27.1332 8.79929 27.9712C10.3706 28.8093 12.0816 29.2283 13.9322 29.2283C16.4812 29.2283 18.6287 28.5823 20.3746 27.2903C22.1204 25.9635 23.1854 24.1652 23.5695 21.8955H27.393C26.8693 25.0731 25.4027 27.6221 22.9934 29.5425C20.619 31.463 17.616 32.4233 13.9846 32.4233C11.261 32.4233 8.83421 31.8471 6.70422 30.6948C4.60915 29.5076 2.96802 27.8141 1.78081 25.6143C0.593603 23.3795 0 20.7607 0 17.7578C0 14.7548 0.593603 12.1535 1.78081 9.95364C2.96802 7.7189 4.60915 6.02538 6.70422 4.87309C8.83421 3.68589 11.261 3.09229 13.9846 3.09229Z" fill="white"/>
<path d="M124.047 3.00391C127.678 3.00391 130.681 3.96415 133.056 5.88463C135.465 7.80511 136.932 10.3541 137.455 13.5316H133.632C133.248 11.262 132.183 9.48116 130.437 8.1892C128.691 6.86233 126.544 6.19889 123.995 6.19889C122.144 6.19889 120.433 6.6179 118.862 7.45593C117.325 8.29396 116.086 9.58592 115.143 11.3318C114.235 13.0428 113.781 15.1553 113.781 17.6694C113.781 20.1835 114.235 22.3135 115.143 24.0594C116.086 25.7703 117.325 27.0448 118.862 27.8829C120.433 28.7209 122.144 29.1399 123.995 29.1399C126.544 29.1399 128.691 28.4939 130.437 27.202C132.183 25.8751 133.248 24.0768 133.632 21.8072H137.455C136.932 24.9847 135.465 27.5337 133.056 29.4542C130.681 31.3746 127.678 32.3349 124.047 32.3349C121.323 32.3349 118.897 31.7587 116.767 30.6065C114.672 29.4192 113.03 27.7257 111.843 25.5259C110.656 23.2912 110.062 20.6723 110.062 17.6694C110.062 14.6665 110.656 12.0651 111.843 9.86526C113.03 7.63052 114.672 5.937 116.767 4.78471C118.897 3.59751 121.323 3.00391 124.047 3.00391Z" fill="white"/>
<path d="M103.083 3.09229C104.059 3.09229 104.85 3.88337 104.85 4.85921V30.6563C104.85 31.6322 104.059 32.4233 103.083 32.4233H102.906C101.93 32.4233 101.139 31.6322 101.139 30.6563V4.85921C101.139 3.88336 101.93 3.09229 102.906 3.09229H103.083Z" fill="white"/>
<path d="M175.334 10.9929L175.334 30.488" stroke="white" stroke-width="3.18047" stroke-linecap="round"/>
<path d="M192.674 19.0988L192.674 30.488" stroke="white" stroke-width="3.18047" stroke-linecap="round"/>
<path fill-rule="evenodd" clip-rule="evenodd" d="M191.152 19.5286V19.8653L191.076 19.8329V23.2801C193.083 24.0718 194.333 24.1629 194.333 21.1703V19.5286C194.333 13.7201 189.624 9.01147 183.815 9.01147C178.007 9.01147 173.76 14.0793 173.76 19.8877V21.1703C173.76 24.2496 174.954 24.0639 176.941 23.2096V19.7014C176.941 19.1776 176.998 18.667 177.106 18.1757C177.799 14.6685 180.584 12.1919 183.815 12.1919C187.867 12.1919 191.152 15.4767 191.152 19.5286Z" fill="white"/>
<path d="M167.963 10.9417L167.963 30.4367" stroke="white" stroke-width="3.18047" stroke-linecap="round"/>
<circle cx="167.963" cy="5.04179" r="1.94951" fill="white"/>
</svg>
