<svg width="540" height="99" viewBox="0 0 540 99" fill="none" xmlns="http://www.w3.org/2000/svg">
<path fill-rule="evenodd" clip-rule="evenodd" d="M216.783 32.1629L235.846 59.3875C240.498 66.0318 241.131 74.288 238.254 81.2693C238.555 80.8924 238.846 80.5037 239.126 80.1032L263.253 45.6471C270.507 35.287 267.989 21.0079 257.629 13.7537C247.269 6.49954 232.99 9.01733 225.736 19.3774L216.783 32.1629Z" fill="#111111"/>
<rect x="216.108" y="92.5376" width="79.0307" height="36.9675" rx="18.4838" transform="rotate(-125.684 216.108 92.5376)" stroke="#111111" stroke-width="8.83226"/>
<circle cx="127.038" cy="49.9323" r="36.3104" stroke="#111111" stroke-width="8.83226"/>
<circle cx="420.421" cy="58.0729" r="27.9245" stroke="#111111" stroke-width="8.83226"/>
<path d="M38.8356 9.20581C48.9203 9.20581 57.2595 11.8724 63.8534 17.2057C70.5441 22.5389 74.6168 29.6176 76.0713 38.4416H65.4533C64.3867 32.1387 61.4292 27.1934 56.5808 23.6055C51.7324 19.9208 45.7688 18.0784 38.6902 18.0784C33.5509 18.0784 28.7995 19.242 24.4359 21.5692C20.1693 23.8964 16.727 27.4843 14.1088 32.3327C11.5877 37.0841 10.3271 42.9506 10.3271 49.9323C10.3271 56.914 11.5877 62.8291 14.1088 67.6775C16.727 72.4289 20.1693 75.9682 24.4359 78.2954C28.7995 80.6227 33.5509 81.7863 38.6902 81.7863C45.7688 81.7863 51.7324 79.9924 56.5808 76.4046C61.4292 72.7198 64.3867 67.7259 65.4533 61.423H76.0713C74.6168 70.2471 70.5441 77.3258 63.8534 82.659C57.2595 87.9922 48.9203 90.6588 38.8356 90.6588C31.2721 90.6588 24.5329 89.0589 18.6178 85.8589C12.7998 82.562 8.24227 77.8591 4.94536 71.7501C1.64845 65.5442 0 58.2716 0 49.9323C0 41.5931 1.64845 34.369 4.94536 28.26C8.24227 22.0541 12.7998 17.3511 18.6178 14.1512C24.5329 10.8543 31.2721 9.20581 38.8356 9.20581Z" fill="#111111"/>
<path d="M344.482 8.96033C354.567 8.96033 362.906 11.6269 369.5 16.9602C376.191 22.2934 380.263 29.3721 381.718 38.1961H371.1C370.033 31.8932 367.076 26.9479 362.227 23.3601C357.379 19.6753 351.415 17.8329 344.337 17.8329C339.197 17.8329 334.446 18.9965 330.083 21.3237C325.816 23.651 322.374 27.2388 319.755 32.0872C317.234 36.8386 315.974 42.7052 315.974 49.6868C315.974 56.6685 317.234 62.5836 319.755 67.432C322.374 72.1834 325.816 75.7227 330.083 78.0499C334.446 80.3772 339.197 81.5408 344.337 81.5408C351.415 81.5408 357.379 79.7469 362.227 76.1591C367.076 72.4743 370.033 67.4805 371.1 61.1775H381.718C380.263 70.0016 376.191 77.0803 369.5 82.4135C362.906 87.7467 354.567 90.4134 344.482 90.4134C336.919 90.4134 330.179 88.8134 324.264 85.6135C318.446 82.3165 313.889 77.6136 310.592 71.5046C307.295 65.2987 305.647 58.0261 305.647 49.6868C305.647 41.3476 307.295 34.1235 310.592 28.0145C313.889 21.8086 318.446 17.1056 324.264 13.9057C330.179 10.6088 336.919 8.96033 344.482 8.96033Z" fill="#111111"/>
<path d="M286.264 9.20581C288.974 9.20581 291.171 11.4027 291.171 14.1126V85.752C291.171 88.462 288.974 90.6588 286.264 90.6588H285.773C283.063 90.6588 280.866 88.462 280.866 85.752V14.1126C280.866 11.4027 283.063 9.20581 285.773 9.20581H286.264Z" fill="#111111"/>
<path d="M486.908 31.146L486.908 85.2845" stroke="#111111" stroke-width="8.83226" stroke-linecap="round"/>
<path d="M535.061 53.6563L535.061 85.2845" stroke="#111111" stroke-width="8.83226" stroke-linecap="round"/>
<path fill-rule="evenodd" clip-rule="evenodd" d="M530.835 54.8498V55.7849C530.766 55.7553 530.696 55.7253 530.625 55.6951V65.2681C536.196 67.4665 539.668 67.7195 539.668 59.4089V54.8498C539.668 38.7196 526.591 25.6436 510.461 25.6436C494.331 25.6436 482.537 39.7169 482.537 55.8471V59.4089C482.537 67.9603 485.852 67.4446 491.37 65.0722V55.3297C491.37 53.876 491.528 52.4592 491.828 51.0956C493.752 41.3546 501.487 34.4758 510.461 34.4758C521.714 34.4758 530.835 43.5976 530.835 54.8498Z" fill="#111111"/>
<path d="M466.438 31.0037L466.438 85.1421" stroke="#111111" stroke-width="8.83226" stroke-linecap="round"/>
<circle cx="466.439" cy="14.6197" r="5.41385" fill="#111111"/>
</svg>
