<svg width="504" height="130" viewBox="0 0 504 130" fill="none" xmlns="http://www.w3.org/2000/svg">
<rect width="504" height="129.405" rx="13.6216" fill="white"/>
<path d="M30.3966 70.5567C28.7757 70.5567 27.468 70.0254 26.4736 68.9629C25.4792 67.9141 24.982 66.5247 24.982 64.7947V55.6001H26.8618V64.8765C26.8618 66.0752 27.1751 67.0219 27.8017 67.7166C28.4283 68.4113 29.2933 68.7586 30.3966 68.7586C31.5 68.7586 32.365 68.4113 32.9916 67.7166C33.6182 67.0219 33.9315 66.0752 33.9315 64.8765V55.6001H35.8112V64.7947C35.8112 66.5655 35.3209 67.9686 34.3401 69.0038C33.3593 70.039 32.0449 70.5567 30.3966 70.5567ZM39.9713 70.2297H38.0915V60.2179H39.8896V61.8525H39.9713C40.162 61.3212 40.5502 60.8717 41.136 60.5039C41.7353 60.1225 42.321 59.9318 42.8931 59.9318C43.438 59.9318 43.9011 60.0135 44.2826 60.177L43.7104 61.9955C43.4789 61.9001 43.1111 61.8525 42.6071 61.8525C41.8988 61.8525 41.279 62.1385 40.7477 62.7106C40.2301 63.2827 39.9713 63.9502 39.9713 64.713V70.2297ZM49.4906 68.8403C50.4169 68.8403 51.1729 68.5066 51.7586 67.8392C52.3716 67.1717 52.678 66.2999 52.678 65.2238C52.678 64.1749 52.3716 63.31 51.7586 62.6289C51.1592 61.9478 50.4032 61.6073 49.4906 61.6073C48.5916 61.6073 47.8356 61.9478 47.2226 62.6289C46.6096 63.31 46.3031 64.1749 46.3031 65.2238C46.3031 66.2863 46.6096 67.1513 47.2226 67.8187C47.8356 68.4998 48.5916 68.8403 49.4906 68.8403ZM49.4293 74.9701C48.8708 74.9701 48.3464 74.8952 47.856 74.7453C47.3656 74.6091 46.9161 74.4116 46.5075 74.1528C46.1124 73.894 45.7719 73.5875 45.4858 73.2333C45.1998 72.8792 44.9818 72.4841 44.832 72.0482L46.6096 71.3127C46.8139 71.8984 47.1681 72.3683 47.6721 72.7225C48.1761 73.0767 48.7618 73.2537 49.4293 73.2537C50.4509 73.2537 51.2478 72.9473 51.8199 72.3343C52.392 71.7213 52.678 70.8768 52.678 69.8007V68.8403H52.5963C52.2422 69.3716 51.7586 69.7939 51.1456 70.1072C50.5463 70.4068 49.8924 70.5567 49.1841 70.5567C47.8764 70.5567 46.7526 70.0459 45.8128 69.0242C44.8865 67.9754 44.4233 66.7086 44.4233 65.2238C44.4233 63.739 44.8865 62.479 45.8128 61.4438C46.7526 60.4086 47.8764 59.8909 49.1841 59.8909C49.8924 59.8909 50.5463 60.0476 51.1456 60.3609C51.7586 60.6606 52.2422 61.076 52.5963 61.6073H52.678V60.2179H54.4761V69.8007C54.4761 71.408 54.0198 72.668 53.1071 73.5807C52.1809 74.5069 50.9549 74.9701 49.4293 74.9701ZM61.1634 70.5567C59.6923 70.5567 58.48 70.0527 57.5264 69.0447C56.5729 68.0367 56.0962 66.763 56.0962 65.2238C56.0962 63.6982 56.5593 62.4314 57.4856 61.4234C58.4118 60.4017 59.5969 59.8909 61.0408 59.8909C62.5256 59.8909 63.7038 60.3745 64.5756 61.3416C65.461 62.2952 65.9037 63.6369 65.9037 65.3668L65.8833 65.5712H58.0168C58.0441 66.5519 58.371 67.342 58.9976 67.9413C59.6242 68.5407 60.3734 68.8403 61.2451 68.8403C62.4438 68.8403 63.3837 68.241 64.0648 67.0423L65.7403 67.8596C65.2908 68.7041 64.6642 69.3648 63.8605 69.8415C63.0704 70.3183 62.1714 70.5567 61.1634 70.5567ZM58.1598 64.0183H63.9014C63.8469 63.3236 63.5608 62.7515 63.0432 62.302C62.5392 61.8388 61.8581 61.6073 61 61.6073C60.2916 61.6073 59.6787 61.8252 59.161 62.2611C58.657 62.697 58.3233 63.2827 58.1598 64.0183ZM67.6228 60.2179H69.4208V61.6073H69.5026C69.7886 61.1169 70.2245 60.7082 70.8102 60.3813C71.4096 60.0544 72.0294 59.8909 72.6696 59.8909C73.8955 59.8909 74.8354 60.2451 75.4893 60.9534C76.1567 61.6481 76.4905 62.6425 76.4905 63.9366V70.2297H74.6107V64.0592C74.5698 62.4246 73.7457 61.6073 72.1383 61.6073C71.3892 61.6073 70.7626 61.9137 70.2586 62.5267C69.7546 63.1261 69.5026 63.848 69.5026 64.6926V70.2297H67.6228V60.2179ZM82.1421 70.3932C81.3248 70.3932 80.6437 70.1412 80.0989 69.6372C79.5676 69.1332 79.2952 68.4317 79.2816 67.5327V61.9342H77.5244V60.2179H79.2816V57.153H81.1613V60.2179H83.6132V61.9342H81.1613V66.9197C81.1613 67.5872 81.2907 68.0435 81.5496 68.2887C81.8084 68.5202 82.1012 68.636 82.4281 68.636C82.578 68.636 82.721 68.6224 82.8572 68.5952C83.0071 68.5543 83.1433 68.5066 83.2659 68.4521L83.8584 70.1276C83.368 70.3047 82.7959 70.3932 82.1421 70.3932ZM87.3809 55.6001V70.2297H85.5012V55.6001H87.3809ZM98.6209 60.2179L92.3481 74.6432H90.407L92.7363 69.5963L88.609 60.2179H90.6522L93.6353 67.4101H93.6762L96.5776 60.2179H98.6209ZM104.337 60.2179H106.135V61.6073H106.217C106.503 61.1169 106.939 60.7082 107.525 60.3813C108.124 60.0544 108.744 59.8909 109.384 59.8909C110.61 59.8909 111.55 60.2451 112.204 60.9534C112.871 61.6481 113.205 62.6425 113.205 63.9366V70.2297H111.325V64.0592C111.284 62.4246 110.46 61.6073 108.853 61.6073C108.104 61.6073 107.477 61.9137 106.973 62.5267C106.469 63.1261 106.217 63.848 106.217 64.6926V70.2297H104.337V60.2179ZM119.907 70.5567C118.436 70.5567 117.223 70.0527 116.27 69.0447C115.316 68.0367 114.839 66.763 114.839 65.2238C114.839 63.6982 115.303 62.4314 116.229 61.4234C117.155 60.4017 118.34 59.8909 119.784 59.8909C121.269 59.8909 122.447 60.3745 123.319 61.3416C124.204 62.2952 124.647 63.6369 124.647 65.3668L124.627 65.5712H116.76C116.787 66.5519 117.114 67.342 117.741 67.9413C118.367 68.5407 119.117 68.8403 119.988 68.8403C121.187 68.8403 122.127 68.241 122.808 67.0423L124.484 67.8596C124.034 68.7041 123.407 69.3648 122.604 69.8415C121.814 70.3183 120.915 70.5567 119.907 70.5567ZM116.903 64.0183H122.645C122.59 63.3236 122.304 62.7515 121.786 62.302C121.282 61.8388 120.601 61.6073 119.743 61.6073C119.035 61.6073 118.422 61.8252 117.904 62.2611C117.4 62.697 117.067 63.2827 116.903 64.0183ZM130.961 70.5567C129.49 70.5567 128.277 70.0527 127.324 69.0447C126.37 68.0367 125.894 66.763 125.894 65.2238C125.894 63.6982 126.357 62.4314 127.283 61.4234C128.209 60.4017 129.394 59.8909 130.838 59.8909C132.323 59.8909 133.501 60.3745 134.373 61.3416C135.259 62.2952 135.701 63.6369 135.701 65.3668L135.681 65.5712H127.814C127.842 66.5519 128.168 67.342 128.795 67.9413C129.422 68.5407 130.171 68.8403 131.043 68.8403C132.241 68.8403 133.181 68.241 133.862 67.0423L135.538 67.8596C135.088 68.7041 134.462 69.3648 133.658 69.8415C132.868 70.3183 131.969 70.5567 130.961 70.5567ZM127.957 64.0183H133.699C133.644 63.3236 133.358 62.7515 132.841 62.302C132.337 61.8388 131.656 61.6073 130.797 61.6073C130.089 61.6073 129.476 61.8252 128.959 62.2611C128.455 62.697 128.121 63.2827 127.957 64.0183ZM142.015 68.8403C142.941 68.8403 143.697 68.5066 144.283 67.8392C144.896 67.1717 145.203 66.2999 145.203 65.2238C145.203 64.1749 144.896 63.31 144.283 62.6289C143.684 61.9478 142.928 61.6073 142.015 61.6073C141.116 61.6073 140.36 61.9478 139.747 62.6289C139.134 63.31 138.828 64.1749 138.828 65.2238C138.828 66.2863 139.134 67.1513 139.747 67.8187C140.36 68.4998 141.116 68.8403 142.015 68.8403ZM141.709 70.5567C140.401 70.5567 139.277 70.039 138.337 69.0038C137.411 67.9549 136.948 66.6949 136.948 65.2238C136.948 63.7527 137.411 62.4927 138.337 61.4438C139.277 60.4086 140.401 59.8909 141.709 59.8909C142.444 59.8909 143.112 60.0476 143.711 60.3609C144.324 60.6742 144.794 61.0896 145.121 61.6073H145.203L145.121 60.2179V55.6001H147.001V70.2297H145.203V68.8403H145.121C144.794 69.358 144.324 69.7734 143.711 70.0867C143.112 70.4 142.444 70.5567 141.709 70.5567ZM153.21 65.2238C153.21 63.6846 153.694 62.4109 154.661 61.4029C155.642 60.3949 156.874 59.8909 158.359 59.8909C159.844 59.8909 161.07 60.3949 162.037 61.4029C163.018 62.4109 163.508 63.6846 163.508 65.2238C163.508 66.7767 163.018 68.0503 162.037 69.0447C161.07 70.0527 159.844 70.5567 158.359 70.5567C156.874 70.5567 155.642 70.0527 154.661 69.0447C153.694 68.0367 153.21 66.763 153.21 65.2238ZM155.09 65.2238C155.09 66.2999 155.403 67.1717 156.03 67.8392C156.656 68.5066 157.433 68.8403 158.359 68.8403C159.285 68.8403 160.062 68.5066 160.688 67.8392C161.315 67.1717 161.628 66.2999 161.628 65.2238C161.628 64.1613 161.315 63.2963 160.688 62.6289C160.048 61.9478 159.272 61.6073 158.359 61.6073C157.446 61.6073 156.67 61.9478 156.03 62.6289C155.403 63.2963 155.09 64.1613 155.09 65.2238ZM169.777 65.1421L173.352 70.2297H171.146L168.673 66.5315L166.242 70.2297H164.035L167.57 65.1421L164.117 60.2179H166.242L168.714 63.7527L171.064 60.2179H173.271L169.777 65.1421ZM183.603 60.2179L177.33 74.6432H175.389L177.718 69.5963L173.591 60.2179H175.634L178.617 67.4101H178.658L181.56 60.2179H183.603ZM188.926 68.8403C189.852 68.8403 190.608 68.5066 191.194 67.8392C191.807 67.1717 192.113 66.2999 192.113 65.2238C192.113 64.1749 191.807 63.31 191.194 62.6289C190.595 61.9478 189.839 61.6073 188.926 61.6073C188.027 61.6073 187.271 61.9478 186.658 62.6289C186.045 63.31 185.739 64.1749 185.739 65.2238C185.739 66.2863 186.045 67.1513 186.658 67.8187C187.271 68.4998 188.027 68.8403 188.926 68.8403ZM188.865 74.9701C188.306 74.9701 187.782 74.8952 187.291 74.7453C186.801 74.6091 186.351 74.4116 185.943 74.1528C185.548 73.894 185.207 73.5875 184.921 73.2333C184.635 72.8792 184.417 72.4841 184.267 72.0482L186.045 71.3127C186.249 71.8984 186.603 72.3683 187.107 72.7225C187.611 73.0767 188.197 73.2537 188.865 73.2537C189.886 73.2537 190.683 72.9473 191.255 72.3343C191.827 71.7213 192.113 70.8768 192.113 69.8007V68.8403H192.032C191.678 69.3716 191.194 69.7939 190.581 70.1072C189.982 70.4068 189.328 70.5567 188.619 70.5567C187.312 70.5567 186.188 70.0459 185.248 69.0242C184.322 67.9754 183.859 66.7086 183.859 65.2238C183.859 63.739 184.322 62.479 185.248 61.4438C186.188 60.4086 187.312 59.8909 188.619 59.8909C189.328 59.8909 189.982 60.0476 190.581 60.3609C191.194 60.6606 191.678 61.076 192.032 61.6073H192.113V60.2179H193.911V69.8007C193.911 71.408 193.455 72.668 192.543 73.5807C191.616 74.5069 190.39 74.9701 188.865 74.9701ZM200.599 70.5567C199.128 70.5567 197.915 70.0527 196.962 69.0447C196.008 68.0367 195.532 66.763 195.532 65.2238C195.532 63.6982 195.995 62.4314 196.921 61.4234C197.847 60.4017 199.032 59.8909 200.476 59.8909C201.961 59.8909 203.139 60.3745 204.011 61.3416C204.896 62.2952 205.339 63.6369 205.339 65.3668L205.319 65.5712H197.452C197.479 66.5519 197.806 67.342 198.433 67.9413C199.06 68.5407 199.809 68.8403 200.681 68.8403C201.879 68.8403 202.819 68.241 203.5 67.0423L205.176 67.8596C204.726 68.7041 204.1 69.3648 203.296 69.8415C202.506 70.3183 201.607 70.5567 200.599 70.5567ZM197.595 64.0183H203.337C203.282 63.3236 202.996 62.7515 202.479 62.302C201.975 61.8388 201.293 61.6073 200.435 61.6073C199.727 61.6073 199.114 61.8252 198.596 62.2611C198.092 62.697 197.759 63.2827 197.595 64.0183ZM207.058 60.2179H208.856V61.6073H208.938C209.224 61.1169 209.66 60.7082 210.246 60.3813C210.845 60.0544 211.465 59.8909 212.105 59.8909C213.331 59.8909 214.271 60.2451 214.925 60.9534C215.592 61.6481 215.926 62.6425 215.926 63.9366V70.2297H214.046V64.0592C214.005 62.4246 213.181 61.6073 211.574 61.6073C210.825 61.6073 210.198 61.9137 209.694 62.5267C209.19 63.1261 208.938 63.848 208.938 64.6926V70.2297H207.058V60.2179ZM227.914 70.5567C227.178 70.5567 226.504 70.4 225.891 70.0867C225.292 69.7734 224.829 69.358 224.502 68.8403H224.42V70.2297H222.622V55.6001H224.502V60.2179L224.42 61.6073H224.502C224.829 61.0896 225.292 60.6742 225.891 60.3609C226.504 60.0476 227.178 59.8909 227.914 59.8909C229.235 59.8909 230.352 60.4086 231.265 61.4438C232.205 62.4927 232.675 63.7527 232.675 65.2238C232.675 66.7086 232.205 67.9686 231.265 69.0038C230.352 70.039 229.235 70.5567 227.914 70.5567ZM227.607 68.8403C228.506 68.8403 229.262 68.4998 229.875 67.8187C230.488 67.1513 230.795 66.2863 230.795 65.2238C230.795 64.1749 230.488 63.31 229.875 62.6289C229.262 61.9478 228.506 61.6073 227.607 61.6073C226.695 61.6073 225.932 61.9478 225.319 62.6289C224.72 63.31 224.42 64.1749 224.42 65.2238C224.42 66.2863 224.72 67.1581 225.319 67.8392C225.932 68.5066 226.695 68.8403 227.607 68.8403ZM238.89 70.5567C237.419 70.5567 236.206 70.0527 235.253 69.0447C234.299 68.0367 233.822 66.763 233.822 65.2238C233.822 63.6982 234.286 62.4314 235.212 61.4234C236.138 60.4017 237.323 59.8909 238.767 59.8909C240.252 59.8909 241.43 60.3745 242.302 61.3416C243.187 62.2952 243.63 63.6369 243.63 65.3668L243.61 65.5712H235.743C235.77 66.5519 236.097 67.342 236.724 67.9413C237.35 68.5407 238.1 68.8403 238.971 68.8403C240.17 68.8403 241.11 68.241 241.791 67.0423L243.467 67.8596C243.017 68.7041 242.39 69.3648 241.587 69.8415C240.797 70.3183 239.898 70.5567 238.89 70.5567ZM235.886 64.0183H241.628C241.573 63.3236 241.287 62.7515 240.769 62.302C240.265 61.8388 239.584 61.6073 238.726 61.6073C238.018 61.6073 237.405 61.8252 236.887 62.2611C236.383 62.697 236.05 63.2827 235.886 64.0183ZM249.944 68.8403C250.87 68.8403 251.626 68.5066 252.212 67.8392C252.825 67.1717 253.131 66.2999 253.131 65.2238C253.131 64.1749 252.825 63.31 252.212 62.6289C251.613 61.9478 250.857 61.6073 249.944 61.6073C249.045 61.6073 248.289 61.9478 247.676 62.6289C247.063 63.31 246.756 64.1749 246.756 65.2238C246.756 66.2863 247.063 67.1513 247.676 67.8187C248.289 68.4998 249.045 68.8403 249.944 68.8403ZM249.637 70.5567C248.33 70.5567 247.206 70.039 246.266 69.0038C245.34 67.9549 244.877 66.6949 244.877 65.2238C244.877 63.7527 245.34 62.4927 246.266 61.4438C247.206 60.4086 248.33 59.8909 249.637 59.8909C250.373 59.8909 251.04 60.0476 251.64 60.3609C252.253 60.6742 252.723 61.0896 253.05 61.6073H253.131L253.05 60.2179V55.6001H254.929V70.2297H253.131V68.8403H253.05C252.723 69.358 252.253 69.7734 251.64 70.0867C251.04 70.4 250.373 70.5567 249.637 70.5567ZM264.142 56.7648C264.142 57.1326 264.013 57.4459 263.754 57.7047C263.495 57.9635 263.182 58.0929 262.814 58.0929C262.446 58.0929 262.133 57.9635 261.874 57.7047C261.616 57.4459 261.486 57.1326 261.486 56.7648C261.486 56.397 261.616 56.0837 261.874 55.8249C262.133 55.5661 262.446 55.4367 262.814 55.4367C263.182 55.4367 263.495 55.5661 263.754 55.8249C264.013 56.0837 264.142 56.397 264.142 56.7648ZM263.754 60.2179V70.2297H261.874V60.2179H263.754ZM266.2 60.2179H267.999V61.6073H268.08C268.366 61.1169 268.802 60.7082 269.388 60.3813C269.987 60.0544 270.607 59.8909 271.247 59.8909C272.473 59.8909 273.413 60.2451 274.067 60.9534C274.734 61.6481 275.068 62.6425 275.068 63.9366V70.2297H273.188V64.0592C273.148 62.4246 272.323 61.6073 270.716 61.6073C269.967 61.6073 269.34 61.9137 268.836 62.5267C268.332 63.1261 268.08 63.848 268.08 64.6926V70.2297H266.2V60.2179ZM295.77 63.5075C295.77 65.5507 295.164 67.1785 293.952 68.3908C292.589 69.8347 290.798 70.5567 288.578 70.5567C286.453 70.5567 284.655 69.8211 283.184 68.35C281.713 66.8788 280.977 65.0672 280.977 62.9149C280.977 60.7627 281.713 58.951 283.184 57.4799C284.655 56.0088 286.453 55.2732 288.578 55.2732C289.654 55.2732 290.669 55.4639 291.622 55.8453C292.576 56.2267 293.359 56.7648 293.972 57.4595L292.623 58.808C292.174 58.2632 291.588 57.8409 290.866 57.5412C290.158 57.2279 289.395 57.0713 288.578 57.0713C286.984 57.0713 285.636 57.6229 284.532 58.7263C283.442 59.8433 282.898 61.2395 282.898 62.9149C282.898 64.5904 283.442 65.9866 284.532 67.1036C285.636 68.2069 286.984 68.7586 288.578 68.7586C290.035 68.7586 291.248 68.35 292.215 67.5327C293.182 66.7154 293.74 65.5916 293.89 64.1613H288.578V62.4041H295.668C295.736 62.7855 295.77 63.1533 295.77 63.5075ZM306.513 70.2297H304.715V68.8403H304.633C304.347 69.3307 303.904 69.7394 303.305 70.0663C302.719 70.3932 302.106 70.5567 301.466 70.5567C300.24 70.5567 299.294 70.2093 298.626 69.5146C297.972 68.8063 297.645 67.8051 297.645 66.511V60.2179H299.525V66.3885C299.566 68.023 300.39 68.8403 301.997 68.8403C302.747 68.8403 303.373 68.5407 303.877 67.9413C304.381 67.3283 304.633 66.5996 304.633 65.755V60.2179H306.513V70.2297ZM310.681 70.2297H308.801V60.2179H310.599V61.8525H310.681C310.872 61.3212 311.26 60.8717 311.846 60.5039C312.445 60.1225 313.031 59.9318 313.603 59.9318C314.148 59.9318 314.611 60.0135 314.992 60.177L314.42 61.9955C314.189 61.9001 313.821 61.8525 313.317 61.8525C312.609 61.8525 311.989 62.1385 311.458 62.7106C310.94 63.2827 310.681 63.9502 310.681 64.713V70.2297ZM320.2 68.8403C321.127 68.8403 321.883 68.5066 322.468 67.8392C323.081 67.1717 323.388 66.2999 323.388 65.2238C323.388 64.1749 323.081 63.31 322.468 62.6289C321.869 61.9478 321.113 61.6073 320.2 61.6073C319.301 61.6073 318.545 61.9478 317.932 62.6289C317.319 63.31 317.013 64.1749 317.013 65.2238C317.013 66.2863 317.319 67.1513 317.932 67.8187C318.545 68.4998 319.301 68.8403 320.2 68.8403ZM320.139 74.9701C319.581 74.9701 319.056 74.8952 318.566 74.7453C318.075 74.6091 317.626 74.4116 317.217 74.1528C316.822 73.894 316.482 73.5875 316.196 73.2333C315.91 72.8792 315.692 72.4841 315.542 72.0482L317.319 71.3127C317.524 71.8984 317.878 72.3683 318.382 72.7225C318.886 73.0767 319.472 73.2537 320.139 73.2537C321.161 73.2537 321.958 72.9473 322.53 72.3343C323.102 71.7213 323.388 70.8768 323.388 69.8007V68.8403H323.306C322.952 69.3716 322.468 69.7939 321.855 70.1072C321.256 70.4068 320.602 70.5567 319.894 70.5567C318.586 70.5567 317.462 70.0459 316.523 69.0242C315.596 67.9754 315.133 66.7086 315.133 65.2238C315.133 63.739 315.596 62.479 316.523 61.4438C317.462 60.4086 318.586 59.8909 319.894 59.8909C320.602 59.8909 321.256 60.0476 321.855 60.3609C322.468 60.6606 322.952 61.076 323.306 61.6073H323.388V60.2179H325.186V69.8007C325.186 71.408 324.73 72.668 323.817 73.5807C322.891 74.5069 321.665 74.9701 320.139 74.9701ZM328.747 67.1649C328.747 67.6553 328.951 68.0639 329.36 68.3908C329.782 68.7177 330.273 68.8812 330.831 68.8812C331.621 68.8812 332.323 68.5883 332.936 68.0026C333.562 67.4169 333.876 66.729 333.876 65.9389C333.29 65.4758 332.473 65.2442 331.424 65.2442C330.661 65.2442 330.021 65.4281 329.503 65.7959C328.999 66.1637 328.747 66.62 328.747 67.1649ZM331.178 59.8909C332.568 59.8909 333.664 60.2655 334.468 61.0147C335.272 61.7503 335.674 62.7651 335.674 64.0592V70.2297H333.876V68.8403H333.794C333.017 69.9846 331.982 70.5567 330.688 70.5567C329.585 70.5567 328.658 70.2297 327.909 69.5759C327.174 68.9221 326.806 68.1048 326.806 67.124C326.806 66.0888 327.194 65.2647 327.971 64.6517C328.761 64.0387 329.81 63.7322 331.117 63.7322C332.234 63.7322 333.154 63.9366 333.876 64.3452V63.9161C333.876 63.2623 333.617 62.7106 333.099 62.2611C332.582 61.798 331.975 61.5664 331.281 61.5664C330.232 61.5664 329.401 62.0091 328.788 62.8945L327.133 61.8525C328.046 60.5448 329.394 59.8909 331.178 59.8909ZM337.122 65.2238C337.122 63.6846 337.605 62.4109 338.573 61.4029C339.553 60.3949 340.786 59.8909 342.271 59.8909C343.756 59.8909 344.982 60.3949 345.949 61.4029C346.929 62.4109 347.42 63.6846 347.42 65.2238C347.42 66.7767 346.929 68.0503 345.949 69.0447C344.982 70.0527 343.756 70.5567 342.271 70.5567C340.786 70.5567 339.553 70.0527 338.573 69.0447C337.605 68.0367 337.122 66.763 337.122 65.2238ZM339.002 65.2238C339.002 66.2999 339.315 67.1717 339.942 67.8392C340.568 68.5066 341.345 68.8403 342.271 68.8403C343.197 68.8403 343.974 68.5066 344.6 67.8392C345.227 67.1717 345.54 66.2999 345.54 65.2238C345.54 64.1613 345.227 63.2963 344.6 62.6289C343.96 61.9478 343.184 61.6073 342.271 61.6073C341.358 61.6073 340.582 61.9478 339.942 62.6289C339.315 63.2963 339.002 64.1613 339.002 65.2238ZM348.928 60.2179H350.726V61.6073H350.808C351.094 61.1169 351.53 60.7082 352.115 60.3813C352.715 60.0544 353.334 59.8909 353.975 59.8909C355.201 59.8909 356.141 60.2451 356.794 60.9534C357.462 61.6481 357.796 62.6425 357.796 63.9366V70.2297H355.916V64.0592C355.875 62.4246 355.051 61.6073 353.443 61.6073C352.694 61.6073 352.068 61.9137 351.564 62.5267C351.06 63.1261 350.808 63.848 350.808 64.6926V70.2297H348.928V60.2179ZM361.964 65.6937H360.492L360.288 60.2179V55.6001H362.168V60.2179L361.964 65.6937ZM362.617 68.9629C362.617 69.3443 362.481 69.6713 362.209 69.9437C361.95 70.2161 361.623 70.3523 361.228 70.3523C360.847 70.3523 360.52 70.2161 360.247 69.9437C359.975 69.6713 359.839 69.3443 359.839 68.9629C359.839 68.5679 359.975 68.241 360.247 67.9822C360.52 67.7097 360.847 67.5735 361.228 67.5735C361.623 67.5735 361.95 67.7097 362.209 67.9822C362.481 68.241 362.617 68.5679 362.617 68.9629ZM371.447 64.3043V70.2297H369.568V55.6001H374.553C375.82 55.6001 376.896 56.0224 377.781 56.8669C378.68 57.7115 379.13 58.7399 379.13 59.9522C379.13 61.1918 378.68 62.227 377.781 63.058C376.91 63.8889 375.833 64.3043 374.553 64.3043H371.447ZM371.447 57.3982V62.5063H374.594C375.343 62.5063 375.963 62.2543 376.453 61.7503C376.957 61.2463 377.209 60.6469 377.209 59.9522C377.209 59.2712 376.957 58.6786 376.453 58.1746C375.963 57.657 375.343 57.3982 374.594 57.3982H371.447ZM382.753 55.6001V70.2297H380.874V55.6001H382.753ZM389.439 70.5567C387.968 70.5567 386.756 70.0527 385.802 69.0447C384.849 68.0367 384.372 66.763 384.372 65.2238C384.372 63.6982 384.835 62.4314 385.761 61.4234C386.688 60.4017 387.873 59.8909 389.317 59.8909C390.801 59.8909 391.98 60.3745 392.851 61.3416C393.737 62.2952 394.179 63.6369 394.179 65.3668L394.159 65.5712H386.293C386.32 66.5519 386.647 67.342 387.273 67.9413C387.9 68.5407 388.649 68.8403 389.521 68.8403C390.72 68.8403 391.659 68.241 392.341 67.0423L394.016 67.8596C393.567 68.7041 392.94 69.3648 392.136 69.8415C391.346 70.3183 390.447 70.5567 389.439 70.5567ZM386.436 64.0183H392.177C392.123 63.3236 391.837 62.7515 391.319 62.302C390.815 61.8388 390.134 61.6073 389.276 61.6073C388.567 61.6073 387.954 61.8252 387.437 62.2611C386.933 62.697 386.599 63.2827 386.436 64.0183ZM397.367 67.1649C397.367 67.6553 397.572 68.0639 397.98 68.3908C398.403 68.7177 398.893 68.8812 399.451 68.8812C400.241 68.8812 400.943 68.5883 401.556 68.0026C402.183 67.4169 402.496 66.729 402.496 65.9389C401.91 65.4758 401.093 65.2442 400.044 65.2442C399.281 65.2442 398.641 65.4281 398.123 65.7959C397.619 66.1637 397.367 66.62 397.367 67.1649ZM399.799 59.8909C401.188 59.8909 402.285 60.2655 403.088 61.0147C403.892 61.7503 404.294 62.7651 404.294 64.0592V70.2297H402.496V68.8403H402.414C401.638 69.9846 400.602 70.5567 399.308 70.5567C398.205 70.5567 397.279 70.2297 396.53 69.5759C395.794 68.9221 395.426 68.1048 395.426 67.124C395.426 66.0888 395.814 65.2647 396.591 64.6517C397.381 64.0387 398.43 63.7322 399.737 63.7322C400.854 63.7322 401.774 63.9366 402.496 64.3452V63.9161C402.496 63.2623 402.237 62.7106 401.719 62.2611C401.202 61.798 400.596 61.5664 399.901 61.5664C398.852 61.5664 398.021 62.0091 397.408 62.8945L395.753 61.8525C396.666 60.5448 398.014 59.8909 399.799 59.8909ZM413.976 67.4509C413.976 68.3227 413.595 69.0583 412.832 69.6576C412.069 70.257 411.109 70.5567 409.951 70.5567C408.943 70.5567 408.058 70.2979 407.295 69.7802C406.532 69.249 405.987 68.5543 405.66 67.6961L407.336 66.981C407.581 67.5803 407.935 68.0503 408.398 68.3908C408.875 68.7177 409.393 68.8812 409.951 68.8812C410.551 68.8812 411.048 68.7518 411.443 68.493C411.851 68.2342 412.056 67.9277 412.056 67.5735C412.056 66.9333 411.565 66.4634 410.585 66.1637L408.868 65.7346C406.92 65.2442 405.947 64.3043 405.947 62.9149C405.947 62.0023 406.314 61.2735 407.05 60.7287C407.799 60.1702 408.753 59.8909 409.91 59.8909C410.796 59.8909 411.593 60.1021 412.301 60.5243C413.023 60.9466 413.527 61.5119 413.813 62.2202L412.138 62.9149C411.947 62.4927 411.634 62.1657 411.198 61.9342C410.775 61.689 410.299 61.5664 409.767 61.5664C409.277 61.5664 408.834 61.689 408.439 61.9342C408.058 62.1794 407.867 62.479 407.867 62.8332C407.867 63.4053 408.405 63.814 409.481 64.0592L410.993 64.4474C412.982 64.9377 413.976 65.9389 413.976 67.4509ZM420.208 70.5567C418.736 70.5567 417.524 70.0527 416.571 69.0447C415.617 68.0367 415.14 66.763 415.14 65.2238C415.14 63.6982 415.603 62.4314 416.53 61.4234C417.456 60.4017 418.641 59.8909 420.085 59.8909C421.57 59.8909 422.748 60.3745 423.62 61.3416C424.505 62.2952 424.948 63.6369 424.948 65.3668L424.927 65.5712H417.061C417.088 66.5519 417.415 67.342 418.042 67.9413C418.668 68.5407 419.417 68.8403 420.289 68.8403C421.488 68.8403 422.428 68.241 423.109 67.0423L424.784 67.8596C424.335 68.7041 423.708 69.3648 422.905 69.8415C422.115 70.3183 421.216 70.5567 420.208 70.5567ZM417.204 64.0183H422.945C422.891 63.3236 422.605 62.7515 422.087 62.302C421.583 61.8388 420.902 61.6073 420.044 61.6073C419.336 61.6073 418.723 61.8252 418.205 62.2611C417.701 62.697 417.367 63.2827 417.204 64.0183ZM433.036 70.2297H431.156V60.2179H432.955V61.8525H433.036C433.227 61.3212 433.615 60.8717 434.201 60.5039C434.8 60.1225 435.386 59.9318 435.958 59.9318C436.503 59.9318 436.966 60.0135 437.347 60.177L436.775 61.9955C436.544 61.9001 436.176 61.8525 435.672 61.8525C434.964 61.8525 434.344 62.1385 433.813 62.7106C433.295 63.2827 433.036 63.9502 433.036 64.713V70.2297ZM442.456 70.5567C440.985 70.5567 439.772 70.0527 438.819 69.0447C437.865 68.0367 437.389 66.763 437.389 65.2238C437.389 63.6982 437.852 62.4314 438.778 61.4234C439.704 60.4017 440.889 59.8909 442.333 59.8909C443.818 59.8909 444.996 60.3745 445.868 61.3416C446.753 62.2952 447.196 63.6369 447.196 65.3668L447.176 65.5712H439.309C439.336 66.5519 439.663 67.342 440.29 67.9413C440.917 68.5407 441.666 68.8403 442.537 68.8403C443.736 68.8403 444.676 68.241 445.357 67.0423L447.033 67.8596C446.583 68.7041 445.957 69.3648 445.153 69.8415C444.363 70.3183 443.464 70.5567 442.456 70.5567ZM439.452 64.0183H445.194C445.139 63.3236 444.853 62.7515 444.336 62.302C443.832 61.8388 443.15 61.6073 442.292 61.6073C441.584 61.6073 440.971 61.8252 440.453 62.2611C439.949 62.697 439.616 63.2827 439.452 64.0183ZM453.819 68.8403C454.718 68.8403 455.474 68.4998 456.087 67.8187C456.7 67.1513 457.006 66.2863 457.006 65.2238C457.006 64.1749 456.7 63.31 456.087 62.6289C455.474 61.9478 454.718 61.6073 453.819 61.6073C452.906 61.6073 452.143 61.9478 451.53 62.6289C450.931 63.31 450.631 64.1749 450.631 65.2238C450.631 66.2863 450.931 67.1581 451.53 67.8392C452.143 68.5066 452.906 68.8403 453.819 68.8403ZM454.125 70.5567C453.39 70.5567 452.716 70.4 452.103 70.0867C451.503 69.7734 451.04 69.358 450.713 68.8403H450.631L450.713 70.2297V74.6432H448.833V60.2179H450.631V61.6073H450.713C451.04 61.0896 451.503 60.6742 452.103 60.3609C452.716 60.0476 453.39 59.8909 454.125 59.8909C455.447 59.8909 456.564 60.4086 457.476 61.4438C458.416 62.4927 458.886 63.7527 458.886 65.2238C458.886 66.7086 458.416 67.9686 457.476 69.0038C456.564 70.039 455.447 70.5567 454.125 70.5567ZM462.288 55.6001V70.2297H460.408V55.6001H462.288ZM473.528 60.2179L467.255 74.6432H465.314L467.643 69.5963L463.516 60.2179H465.559L468.543 67.4101H468.583L471.485 60.2179H473.528ZM39.1622 85.2179L35.9338 95.2297H34.0132L31.5204 87.5472L29.0481 95.2297H27.1479L23.9196 85.2179H25.8811L28.1082 92.7779H28.1286L30.601 85.2179H32.542L35.0144 92.7779H35.0348L37.2415 85.2179H39.1622ZM42.8176 81.7648C42.8176 82.1326 42.6882 82.4459 42.4294 82.7047C42.1706 82.9635 41.8573 83.0929 41.4895 83.0929C41.1218 83.0929 40.8085 82.9635 40.5496 82.7047C40.2908 82.4459 40.1614 82.1326 40.1614 81.7648C40.1614 81.397 40.2908 81.0837 40.5496 80.8249C40.8085 80.5661 41.1218 80.4367 41.4895 80.4367C41.8573 80.4367 42.1706 80.5661 42.4294 80.8249C42.6882 81.0837 42.8176 81.397 42.8176 81.7648ZM42.4294 85.2179V95.2297H40.5496V85.2179H42.4294ZM48.7399 95.3932C47.9226 95.3932 47.2415 95.1412 46.6966 94.6372C46.1654 94.1332 45.8929 93.4317 45.8793 92.5327V86.9342H44.1221V85.2179H45.8793V82.153H47.7591V85.2179H50.211V86.9342H47.7591V91.9197C47.7591 92.5872 47.8885 93.0435 48.1473 93.2887C48.4061 93.5202 48.699 93.636 49.0259 93.636C49.1757 93.636 49.3188 93.6224 49.455 93.5952C49.6048 93.5543 49.741 93.5066 49.8636 93.4521L50.4562 95.1276C49.9658 95.3047 49.3937 95.3932 48.7399 95.3932ZM52.0989 80.6001H53.9787V85.2179L53.897 86.6073H53.9787C54.2648 86.1169 54.7006 85.7082 55.2864 85.3813C55.8857 85.0544 56.5055 84.8909 57.1457 84.8909C58.3717 84.8909 59.3116 85.2451 59.9654 85.9534C60.6329 86.6481 60.9666 87.6425 60.9666 88.9366V95.2297H59.0868V89.3043C59.0868 87.5063 58.2899 86.6073 56.6962 86.6073C55.9334 86.6073 55.2864 86.9274 54.7551 87.5676C54.2375 88.1942 53.9787 88.9297 53.9787 89.7743V95.2297H52.0989V80.6001ZM72.5256 95.2297H70.6458L66.6002 85.2179H68.6434L71.5857 92.9822H71.6266L74.6097 85.2179H76.6121L72.5256 95.2297ZM82.0348 95.5567C80.5637 95.5567 79.3514 95.0527 78.3979 94.0447C77.4443 93.0367 76.9676 91.763 76.9676 90.2238C76.9676 88.6982 77.4307 87.4314 78.357 86.4234C79.2833 85.4017 80.4683 84.8909 81.9122 84.8909C83.397 84.8909 84.5753 85.3745 85.447 86.3416C86.3324 87.2952 86.7751 88.6369 86.7751 90.3668L86.7547 90.5712H78.8882C78.9155 91.5519 79.2424 92.342 79.869 92.9413C80.4956 93.5407 81.2448 93.8403 82.1166 93.8403C83.3153 93.8403 84.2551 93.241 84.9362 92.0423L86.6117 92.8596C86.1622 93.7041 85.5356 94.3648 84.7319 94.8415C83.9419 95.3183 83.0428 95.5567 82.0348 95.5567ZM79.0313 89.0183H84.7728C84.7183 88.3236 84.4322 87.7515 83.9146 87.302C83.4106 86.8388 82.7295 86.6073 81.8714 86.6073C81.163 86.6073 80.5501 86.8252 80.0324 87.2611C79.5284 87.697 79.1947 88.2827 79.0313 89.0183ZM90.374 95.2297H88.4942V85.2179H90.2922V86.8525H90.374C90.5647 86.3212 90.9529 85.8717 91.5386 85.5039C92.138 85.1225 92.7237 84.9318 93.2958 84.9318C93.8407 84.9318 94.3038 85.0135 94.6852 85.177L94.1131 86.9955C93.8815 86.9001 93.5138 86.8525 93.0098 86.8525C92.3014 86.8525 91.6816 87.1385 91.1504 87.7106C90.6328 88.2827 90.374 88.9502 90.374 89.713V95.2297ZM98.3484 81.7648C98.3484 82.1326 98.219 82.4459 97.9601 82.7047C97.7013 82.9635 97.388 83.0929 97.0203 83.0929C96.6525 83.0929 96.3392 82.9635 96.0804 82.7047C95.8216 82.4459 95.6921 82.1326 95.6921 81.7648C95.6921 81.397 95.8216 81.0837 96.0804 80.8249C96.3392 80.5661 96.6525 80.4367 97.0203 80.4367C97.388 80.4367 97.7013 80.5661 97.9601 80.8249C98.219 81.0837 98.3484 81.397 98.3484 81.7648ZM97.9601 85.2179V95.2297H96.0804V85.2179H97.9601ZM110.275 81.7648C110.275 82.1326 110.146 82.4459 109.887 82.7047C109.628 82.9635 109.315 83.0929 108.947 83.0929C108.579 83.0929 108.266 82.9635 108.007 82.7047C107.749 82.4459 107.619 82.1326 107.619 81.7648C107.619 81.397 107.749 81.0837 108.007 80.8249C108.266 80.5661 108.579 80.4367 108.947 80.4367C109.315 80.4367 109.628 80.5661 109.887 80.8249C110.146 81.0837 110.275 81.397 110.275 81.7648ZM103.512 86.9342V95.2297H101.632V86.9342H99.7526V85.2179H101.632V83.7672C101.632 83.2768 101.714 82.8273 101.878 82.4186C102.055 82.01 102.293 81.6626 102.593 81.3766C102.892 81.0769 103.247 80.8453 103.655 80.6819C104.077 80.5184 104.534 80.4367 105.024 80.4367C105.705 80.4367 106.264 80.5525 106.7 80.784L106.189 82.439C105.862 82.2756 105.494 82.1939 105.085 82.1939C104.622 82.1939 104.241 82.3573 103.941 82.6842C103.655 82.9975 103.512 83.4198 103.512 83.951V85.2179H109.887V95.2297H108.007V86.9342H103.512ZM116.734 95.5567C115.263 95.5567 114.051 95.0527 113.097 94.0447C112.144 93.0367 111.667 91.763 111.667 90.2238C111.667 88.6982 112.13 87.4314 113.056 86.4234C113.982 85.4017 115.168 84.8909 116.611 84.8909C118.096 84.8909 119.274 85.3745 120.146 86.3416C121.032 87.2952 121.474 88.6369 121.474 90.3668L121.454 90.5712H113.587C113.615 91.5519 113.942 92.342 114.568 92.9413C115.195 93.5407 115.944 93.8403 116.816 93.8403C118.014 93.8403 118.954 93.241 119.635 92.0423L121.311 92.8596C120.861 93.7041 120.235 94.3648 119.431 94.8415C118.641 95.3183 117.742 95.5567 116.734 95.5567ZM113.73 89.0183H119.472C119.417 88.3236 119.131 87.7515 118.614 87.302C118.11 86.8388 117.429 86.6073 116.571 86.6073C115.862 86.6073 115.249 86.8252 114.732 87.2611C114.228 87.697 113.894 88.2827 113.73 89.0183ZM127.788 93.8403C128.715 93.8403 129.471 93.5066 130.056 92.8392C130.669 92.1717 130.976 91.2999 130.976 90.2238C130.976 89.1749 130.669 88.31 130.056 87.6289C129.457 86.9478 128.701 86.6073 127.788 86.6073C126.889 86.6073 126.133 86.9478 125.52 87.6289C124.907 88.31 124.601 89.1749 124.601 90.2238C124.601 91.2863 124.907 92.1513 125.52 92.8187C126.133 93.4998 126.889 93.8403 127.788 93.8403ZM127.482 95.5567C126.174 95.5567 125.05 95.039 124.11 94.0038C123.184 92.9549 122.721 91.6949 122.721 90.2238C122.721 88.7527 123.184 87.4927 124.11 86.4438C125.05 85.4086 126.174 84.8909 127.482 84.8909C128.217 84.8909 128.885 85.0476 129.484 85.3609C130.097 85.6742 130.567 86.0896 130.894 86.6073H130.976L130.894 85.2179V80.6001H132.774V95.2297H130.976V93.8403H130.894C130.567 94.358 130.097 94.7734 129.484 95.0867C128.885 95.4 128.217 95.5567 127.482 95.5567ZM141.435 80.6001V95.2297H139.555V80.6001H141.435ZM148.121 95.5567C146.65 95.5567 145.438 95.0527 144.484 94.0447C143.53 93.0367 143.054 91.763 143.054 90.2238C143.054 88.6982 143.517 87.4314 144.443 86.4234C145.369 85.4017 146.554 84.8909 147.998 84.8909C149.483 84.8909 150.661 85.3745 151.533 86.3416C152.419 87.2952 152.861 88.6369 152.861 90.3668L152.841 90.5712H144.974C145.002 91.5519 145.329 92.342 145.955 92.9413C146.582 93.5407 147.331 93.8403 148.203 93.8403C149.401 93.8403 150.341 93.241 151.022 92.0423L152.698 92.8596C152.248 93.7041 151.622 94.3648 150.818 94.8415C150.028 95.3183 149.129 95.5567 148.121 95.5567ZM145.117 89.0183H150.859C150.804 88.3236 150.518 87.7515 150.001 87.302C149.497 86.8388 148.816 86.6073 147.958 86.6073C147.249 86.6073 146.636 86.8252 146.119 87.2611C145.615 87.697 145.281 88.2827 145.117 89.0183ZM156.049 92.1649C156.049 92.6553 156.253 93.0639 156.662 93.3908C157.084 93.7177 157.575 93.8812 158.133 93.8812C158.923 93.8812 159.625 93.5883 160.238 93.0026C160.864 92.4169 161.178 91.729 161.178 90.9389C160.592 90.4758 159.775 90.2442 158.726 90.2442C157.963 90.2442 157.323 90.4281 156.805 90.7959C156.301 91.1637 156.049 91.62 156.049 92.1649ZM158.481 84.8909C159.87 84.8909 160.966 85.2655 161.77 86.0147C162.574 86.7503 162.976 87.7651 162.976 89.0592V95.2297H161.178V93.8403H161.096C160.319 94.9846 159.284 95.5567 157.99 95.5567C156.887 95.5567 155.961 95.2297 155.211 94.5759C154.476 93.9221 154.108 93.1048 154.108 92.124C154.108 91.0888 154.496 90.2647 155.273 89.6517C156.063 89.0387 157.112 88.7322 158.419 88.7322C159.536 88.7322 160.456 88.9366 161.178 89.3452V88.9161C161.178 88.2623 160.919 87.7106 160.401 87.2611C159.884 86.798 159.277 86.5664 158.583 86.5664C157.534 86.5664 156.703 87.0091 156.09 87.8945L154.435 86.8525C155.348 85.5448 156.696 84.8909 158.481 84.8909ZM169.491 93.8403C170.417 93.8403 171.173 93.5066 171.759 92.8392C172.372 92.1717 172.679 91.2999 172.679 90.2238C172.679 89.1749 172.372 88.31 171.759 87.6289C171.16 86.9478 170.404 86.6073 169.491 86.6073C168.592 86.6073 167.836 86.9478 167.223 87.6289C166.61 88.31 166.304 89.1749 166.304 90.2238C166.304 91.2863 166.61 92.1513 167.223 92.8187C167.836 93.4998 168.592 93.8403 169.491 93.8403ZM169.185 95.5567C167.877 95.5567 166.753 95.039 165.813 94.0038C164.887 92.9549 164.424 91.6949 164.424 90.2238C164.424 88.7527 164.887 87.4927 165.813 86.4438C166.753 85.4086 167.877 84.8909 169.185 84.8909C169.92 84.8909 170.588 85.0476 171.187 85.3609C171.8 85.6742 172.27 86.0896 172.597 86.6073H172.679L172.597 85.2179V80.6001H174.477V95.2297H172.679V93.8403H172.597C172.27 94.358 171.8 94.7734 171.187 95.0867C170.588 95.4 169.92 95.5567 169.185 95.5567ZM184.331 92.4509C184.331 93.3227 183.95 94.0583 183.187 94.6576C182.424 95.257 181.464 95.5567 180.306 95.5567C179.298 95.5567 178.412 95.2979 177.65 94.7802C176.887 94.249 176.342 93.5543 176.015 92.6961L177.691 91.981C177.936 92.5803 178.29 93.0503 178.753 93.3908C179.23 93.7177 179.747 93.8812 180.306 93.8812C180.905 93.8812 181.402 93.7518 181.797 93.493C182.206 93.2342 182.41 92.9277 182.41 92.5735C182.41 91.9333 181.92 91.4634 180.939 91.1637L179.223 90.7346C177.275 90.2442 176.301 89.3043 176.301 87.9149C176.301 87.0023 176.669 86.2735 177.404 85.7287C178.154 85.1702 179.107 84.8909 180.265 84.8909C181.15 84.8909 181.947 85.1021 182.656 85.5243C183.378 85.9466 183.882 86.5119 184.168 87.2202L182.492 87.9149C182.301 87.4927 181.988 87.1657 181.552 86.9342C181.13 86.689 180.653 86.5664 180.122 86.5664C179.632 86.5664 179.189 86.689 178.794 86.9342C178.412 87.1794 178.222 87.479 178.222 87.8332C178.222 88.4053 178.76 88.814 179.836 89.0592L181.348 89.4474C183.337 89.9377 184.331 90.9389 184.331 92.4509ZM195.478 82.909L193.087 89.5087H197.95L195.559 82.909H195.478ZM191.023 95.2297H188.939L194.456 80.6001H196.581L202.098 95.2297H200.014L198.604 91.2659H192.454L191.023 95.2297ZM212.845 91.3272C212.845 92.6076 212.375 93.636 211.435 94.4125C210.481 95.1753 209.323 95.5567 207.961 95.5567C206.749 95.5567 205.68 95.2025 204.753 94.4942C203.827 93.7859 203.187 92.8187 202.833 91.5928L204.631 90.8572C204.753 91.2931 204.924 91.6881 205.141 92.0423C205.359 92.3965 205.611 92.7029 205.897 92.9617C206.197 93.2069 206.524 93.4045 206.878 93.5543C207.232 93.6905 207.607 93.7586 208.002 93.7586C208.86 93.7586 209.562 93.5407 210.107 93.1048C210.651 92.6553 210.924 92.0627 210.924 91.3272C210.924 90.7142 210.699 90.1897 210.25 89.7539C209.827 89.3316 209.037 88.9229 207.879 88.5279C206.708 88.1056 205.979 87.8196 205.693 87.6697C204.14 86.8797 203.364 85.715 203.364 84.1758C203.364 83.0997 203.793 82.1802 204.651 81.4174C205.523 80.6546 206.592 80.2732 207.859 80.2732C208.976 80.2732 209.943 80.5593 210.76 81.1314C211.578 81.6899 212.123 82.3914 212.395 83.2359L210.638 83.9715C210.474 83.4266 210.147 82.9771 209.657 82.6229C209.18 82.2552 208.595 82.0713 207.9 82.0713C207.164 82.0713 206.545 82.2756 206.041 82.6842C205.537 83.0656 205.285 83.5628 205.285 84.1758C205.285 84.6798 205.482 85.1157 205.877 85.4835C206.313 85.8513 207.26 86.2872 208.717 86.7912C210.202 87.2952 211.258 87.9149 211.884 88.6505C212.524 89.3725 212.845 90.2647 212.845 91.3272ZM220.22 82.909L217.829 89.5087H222.692L220.302 82.909H220.22ZM215.766 95.2297H213.682L219.198 80.6001H221.323L226.84 95.2297H224.756L223.346 91.2659H217.196L215.766 95.2297ZM230.436 89.3043V95.2297H228.556V80.6001H233.541C234.808 80.6001 235.884 81.0224 236.77 81.8669C237.669 82.7115 238.118 83.7399 238.118 84.9522C238.118 86.1918 237.669 87.227 236.77 88.058C235.898 88.8889 234.822 89.3043 233.541 89.3043H230.436ZM230.436 82.3982V87.5063H233.582C234.331 87.5063 234.951 87.2543 235.442 86.7503C235.946 86.2463 236.198 85.6469 236.198 84.9522C236.198 84.2712 235.946 83.6786 235.442 83.1746C234.951 82.657 234.331 82.3982 233.582 82.3982H230.436ZM241.724 90.6937H240.252L240.048 85.2179V80.6001H241.928V85.2179L241.724 90.6937ZM242.377 93.9629C242.377 94.3443 242.241 94.6713 241.969 94.9437C241.71 95.2161 241.383 95.3523 240.988 95.3523C240.607 95.3523 240.28 95.2161 240.007 94.9437C239.735 94.6713 239.599 94.3443 239.599 93.9629C239.599 93.5679 239.735 93.241 240.007 92.9822C240.28 92.7097 240.607 92.5735 240.988 92.5735C241.383 92.5735 241.71 92.7097 241.969 92.9822C242.241 93.241 242.377 93.5679 242.377 93.9629Z" fill="#191A20"/>
<path d="M29.1707 45.0161C28.0129 45.0161 26.998 44.7028 26.1263 44.0762C25.2681 43.4496 24.6687 42.5847 24.3282 41.4813L26.8618 40.4393C27.0389 41.0931 27.325 41.5835 27.72 41.9104C28.115 42.2373 28.5986 42.4008 29.1707 42.4008C29.8109 42.4008 30.3081 42.1965 30.6623 41.7878C31.0164 41.3792 31.1935 40.807 31.1935 40.0715V30.0596H33.9519V40.051C33.9519 40.8683 33.8225 41.5903 33.5637 42.2169C33.3185 42.8299 32.9779 43.3475 32.542 43.7697C32.1198 44.1784 31.6158 44.4849 31.03 44.6892C30.4579 44.9072 29.8382 45.0161 29.1707 45.0161ZM40.8564 34.3504C41.6329 34.3504 42.3412 34.4866 42.9814 34.759C43.6353 35.0179 44.1937 35.3856 44.6569 35.8624C45.1336 36.3255 45.5014 36.884 45.7602 37.5379C46.0327 38.1917 46.1689 38.9068 46.1689 39.6833C46.1689 40.4597 46.0327 41.1748 45.7602 41.8287C45.5014 42.4825 45.1336 43.0478 44.6569 43.5246C44.1937 43.9877 43.6353 44.3555 42.9814 44.6279C42.3412 44.8867 41.6329 45.0161 40.8564 45.0161C40.08 45.0161 39.3649 44.8867 38.711 44.6279C38.0708 44.3555 37.5123 43.9877 37.0356 43.5246C36.5724 43.0478 36.2047 42.4825 35.9322 41.8287C35.6734 41.1748 35.544 40.4597 35.544 39.6833C35.544 38.9068 35.6734 38.1917 35.9322 37.5379C36.2047 36.884 36.5724 36.3255 37.0356 35.8624C37.5123 35.3856 38.0708 35.0179 38.711 34.759C39.3649 34.4866 40.08 34.3504 40.8564 34.3504ZM40.8564 42.5438C41.197 42.5438 41.5239 42.4825 41.8372 42.3599C42.1641 42.2237 42.4502 42.033 42.6954 41.7878C42.9406 41.5426 43.1313 41.2429 43.2675 40.8888C43.4173 40.5346 43.4922 40.1328 43.4922 39.6833C43.4922 39.2337 43.4173 38.8319 43.2675 38.4777C43.1313 38.1236 42.9406 37.8239 42.6954 37.5787C42.4502 37.3335 42.1641 37.1496 41.8372 37.027C41.5239 36.8908 41.197 36.8227 40.8564 36.8227C40.5023 36.8227 40.1686 36.8908 39.8553 37.027C39.542 37.1496 39.2627 37.3335 39.0175 37.5787C38.7723 37.8239 38.5748 38.1236 38.425 38.4777C38.2888 38.8319 38.2207 39.2337 38.2207 39.6833C38.2207 40.1328 38.2888 40.5346 38.425 40.8888C38.5748 41.2429 38.7723 41.5426 39.0175 41.7878C39.2627 42.033 39.542 42.2237 39.8553 42.3599C40.1686 42.4825 40.5023 42.5438 40.8564 42.5438ZM47.7889 30.0596H50.4656V34.1665L50.3021 35.985H50.4656C50.7517 35.5082 51.1603 35.12 51.6915 34.8203C52.2364 34.507 52.8426 34.3504 53.51 34.3504C54.8041 34.3504 55.7576 34.7318 56.3706 35.4946C56.9972 36.2574 57.3105 37.2995 57.3105 38.6208V44.6892H54.6338V38.9477C54.6338 38.253 54.4704 37.7286 54.1434 37.3744C53.8165 37.0066 53.3602 36.8227 52.7745 36.8227C52.4067 36.8227 52.0798 36.9045 51.7937 37.0679C51.5077 37.2177 51.2625 37.4289 51.0581 37.7013C50.8674 37.9737 50.7176 38.2939 50.6086 38.6616C50.5133 39.0158 50.4656 39.3972 50.4656 39.8059V44.6892H47.7889V30.0596ZM62.0348 35.985H62.1983C62.5116 35.481 62.9339 35.086 63.4651 34.7999C63.9963 34.5002 64.6025 34.3504 65.2836 34.3504C65.9102 34.3504 66.4619 34.4526 66.9386 34.6569C67.4154 34.8612 67.8036 35.1541 68.1033 35.5355C68.4166 35.9033 68.6481 36.3528 68.798 36.884C68.9614 37.4016 69.0431 37.9806 69.0431 38.6208V44.6892H66.3665V38.9477C66.3665 38.2257 66.203 37.6945 65.8761 37.354C65.5628 36.9998 65.0997 36.8227 64.4867 36.8227C64.1189 36.8227 63.792 36.9045 63.506 37.0679C63.2335 37.2177 62.9951 37.4289 62.7908 37.7013C62.6001 37.9601 62.4503 38.2734 62.3413 38.6412C62.246 38.9954 62.1983 39.3768 62.1983 39.7854V44.6892H59.5216V34.6773H62.0348V35.985ZM76.0708 30.0596H78.7883L83.263 37.8035H83.4265L87.9012 30.0596H90.6391V44.6892H87.9012V37.4766L88.0646 35.0247H87.9012L84.1825 41.5835H82.5274L78.7883 35.0247H78.6248L78.7883 37.4766V44.6892H76.0708V30.0596ZM99.1344 43.6267H98.9709C98.6576 44.0081 98.2762 44.335 97.8267 44.6075C97.3908 44.8799 96.8255 45.0161 96.1308 45.0161C95.6132 45.0161 95.1228 44.9276 94.6597 44.7505C94.2102 44.587 93.8151 44.3555 93.4746 44.0558C93.1341 43.7561 92.8684 43.3952 92.6777 42.9729C92.487 42.5506 92.3917 42.0875 92.3917 41.5835C92.3917 41.0659 92.4938 40.6027 92.6982 40.1941C92.9025 39.7718 93.1885 39.4108 93.5563 39.1112C93.9241 38.8115 94.3532 38.5867 94.8436 38.4369C95.3476 38.2734 95.8924 38.1917 96.4782 38.1917C97.132 38.1917 97.6701 38.2462 98.0923 38.3552C98.5146 38.4505 98.8619 38.5527 99.1344 38.6616V38.3552C99.1344 37.8239 98.9232 37.388 98.501 37.0475C98.0787 36.6933 97.5543 36.5162 96.9277 36.5162C96.0014 36.5162 95.2182 36.9045 94.5779 37.6809L92.6369 36.3528C93.6993 35.0179 95.1501 34.3504 96.989 34.3504C98.5418 34.3504 99.7269 34.7182 100.544 35.4537C101.362 36.1757 101.77 37.2518 101.77 38.6821V44.6892H99.1344V43.6267ZM99.1344 40.6232C98.8211 40.4733 98.4942 40.3575 98.1536 40.2758C97.8267 40.1805 97.4657 40.1328 97.0707 40.1328C96.4305 40.1328 95.9333 40.2758 95.5791 40.5619C95.2386 40.8343 95.0683 41.1748 95.0683 41.5835C95.0683 41.9921 95.2318 42.319 95.5587 42.5642C95.8992 42.8094 96.2875 42.932 96.7233 42.932C97.0775 42.932 97.4044 42.8707 97.7041 42.7481C98.0038 42.6119 98.2558 42.4416 98.4601 42.2373C98.6781 42.0194 98.8415 41.7742 98.9505 41.5017C99.0731 41.2157 99.1344 40.9228 99.1344 40.6232ZM103.898 34.6773H106.412V36.0667H106.575C106.698 35.8215 106.861 35.5968 107.065 35.3925C107.27 35.1881 107.494 35.011 107.74 34.8612C107.998 34.7114 108.271 34.5956 108.557 34.5139C108.857 34.4321 109.149 34.3913 109.436 34.3913C109.79 34.3913 110.089 34.4253 110.335 34.4934C110.593 34.5615 110.811 34.6501 110.988 34.759L110.273 37.1905C110.11 37.1088 109.926 37.0475 109.722 37.0066C109.531 36.9521 109.292 36.9249 109.006 36.9249C108.639 36.9249 108.305 36.9998 108.005 37.1496C107.706 37.2859 107.447 37.4834 107.229 37.7422C107.024 38.001 106.861 38.3075 106.738 38.6616C106.629 39.0022 106.575 39.3768 106.575 39.7854V44.6892H103.898V34.6773ZM112.319 30.0596H114.995V38.0282H115.118L118.469 34.6773H121.779V34.8408L118.06 38.4573L122.085 44.5257V44.6892H118.918L116.18 40.2962L114.995 41.4609V44.6892H112.319V30.0596Z" fill="#191A20"/>
<path d="M153.053 38.4777C153.053 39.7854 152.78 40.8207 152.235 41.5835C151.69 42.3463 150.941 42.7277 149.988 42.7277C148.966 42.7277 148.203 42.2305 147.699 41.2361C147.032 42.2305 146.078 42.7277 144.839 42.7277C143.694 42.7277 142.748 42.3327 141.999 41.5426C141.249 40.7526 140.875 39.7582 140.875 38.5595C140.875 37.3744 141.249 36.3868 141.999 35.5968C142.761 34.7931 143.681 34.3913 144.757 34.3913C145.806 34.3913 146.678 34.7931 147.372 35.5968H147.454V34.6773H148.925V39.765C148.925 40.8547 149.327 41.3996 150.131 41.3996C151.098 41.3996 151.581 40.4256 151.581 38.4777C151.581 36.7069 150.955 35.1949 149.702 33.9417C148.448 32.6886 146.923 32.062 145.125 32.062C143.327 32.062 141.801 32.6886 140.548 33.9417C139.295 35.1949 138.668 36.7069 138.668 38.4777C138.668 40.2622 139.295 41.781 140.548 43.0342C141.787 44.2737 143.313 44.8935 145.125 44.8935C146.106 44.8935 146.97 44.7028 147.72 44.3214L148.292 45.7108C147.311 46.1467 146.255 46.3647 145.125 46.3647C143.667 46.3647 142.319 46.0173 141.079 45.3226C139.867 44.6279 138.9 43.6676 138.178 42.4416C137.824 41.815 137.558 41.168 137.381 40.5006C137.204 39.8331 137.115 39.152 137.115 38.4573C137.115 37.7762 137.197 37.1088 137.36 36.4549C137.538 35.7875 137.803 35.1473 138.157 34.5343C138.511 33.9213 138.934 33.3696 139.424 32.8793C139.928 32.3889 140.48 31.9802 141.079 31.6533C141.692 31.3128 142.339 31.054 143.02 30.8769C143.701 30.6862 144.403 30.5908 145.125 30.5908C146.569 30.5908 147.897 30.9382 149.109 31.6329C150.335 32.3276 151.295 33.2879 151.99 34.5139C152.698 35.7262 153.053 37.0475 153.053 38.4777ZM142.509 38.5595C142.509 38.9409 142.571 39.295 142.693 39.622C142.816 39.9353 142.986 40.2077 143.204 40.4393C143.436 40.6708 143.701 40.8547 144.001 40.9909C144.301 41.1135 144.628 41.1748 144.982 41.1748C145.336 41.1748 145.663 41.1135 145.962 40.9909C146.262 40.8547 146.521 40.6776 146.739 40.4597C146.97 40.2281 147.148 39.9557 147.27 39.6424C147.393 39.3155 147.454 38.9545 147.454 38.5595C147.454 38.1781 147.393 37.8239 147.27 37.497C147.148 37.1701 146.97 36.8976 146.739 36.6797C146.521 36.4481 146.262 36.271 145.962 36.1485C145.663 36.0122 145.336 35.9441 144.982 35.9441C144.628 35.9441 144.301 36.0122 144.001 36.1485C143.701 36.271 143.436 36.4481 143.204 36.6797C142.986 36.9113 142.816 37.1905 142.693 37.5174C142.571 37.8307 142.509 38.1781 142.509 38.5595ZM159.002 45.0161C157.898 45.0161 156.945 44.7165 156.141 44.1171C155.338 43.5177 154.772 42.6868 154.445 41.6243L156.223 40.8888C156.686 42.4416 157.612 43.2181 159.002 43.2181C159.765 43.2181 160.378 42.9525 160.841 42.4212C161.317 41.8763 161.556 41.1748 161.556 40.3167V30.0596H163.436V40.1532C163.436 41.6652 163.034 42.8571 162.23 43.7289C161.44 44.587 160.364 45.0161 159.002 45.0161ZM165.043 39.6833C165.043 38.144 165.526 36.8704 166.493 35.8624C167.474 34.8544 168.707 34.3504 170.192 34.3504C171.676 34.3504 172.902 34.8544 173.869 35.8624C174.85 36.8704 175.34 38.144 175.34 39.6833C175.34 41.2361 174.85 42.5097 173.869 43.5041C172.902 44.5121 171.676 45.0161 170.192 45.0161C168.707 45.0161 167.474 44.5121 166.493 43.5041C165.526 42.4961 165.043 41.2225 165.043 39.6833ZM166.922 39.6833C166.922 40.7594 167.236 41.6312 167.862 42.2986C168.489 42.9661 169.265 43.2998 170.192 43.2998C171.118 43.2998 171.894 42.9661 172.521 42.2986C173.147 41.6312 173.461 40.7594 173.461 39.6833C173.461 38.6208 173.147 37.7558 172.521 37.0883C171.881 36.4073 171.104 36.0667 170.192 36.0667C169.279 36.0667 168.502 36.4073 167.862 37.0883C167.236 37.7558 166.922 38.6208 166.922 39.6833ZM176.948 30.0596H178.828V34.6773L178.746 36.0667H178.828C179.114 35.5763 179.55 35.1677 180.136 34.8408C180.735 34.5139 181.355 34.3504 181.995 34.3504C183.221 34.3504 184.161 34.7046 184.815 35.4129C185.482 36.1076 185.816 37.102 185.816 38.396V44.6892H183.936V38.7638C183.936 36.9657 183.139 36.0667 181.546 36.0667C180.783 36.0667 180.136 36.3868 179.604 37.027C179.087 37.6536 178.828 38.3892 178.828 39.2337V44.6892H176.948V30.0596ZM188.022 34.6773H189.821V36.0667H189.902C190.188 35.5763 190.624 35.1677 191.21 34.8408C191.809 34.5139 192.429 34.3504 193.069 34.3504C194.295 34.3504 195.235 34.7046 195.889 35.4129C196.556 36.1076 196.89 37.102 196.89 38.396V44.6892H195.01V38.5186C194.97 36.884 194.145 36.0667 192.538 36.0667C191.789 36.0667 191.162 36.3732 190.658 36.9862C190.154 37.5855 189.902 38.3075 189.902 39.152V44.6892H188.022V34.6773ZM201.303 44.6892H199.424V30.0596H201.303L206.391 38.9681H206.473L211.56 30.0596H213.44V44.6892H211.56V36.0054L211.642 33.5535H211.56L206.984 41.5835H205.88L201.303 33.5535H201.222L201.303 36.0054V44.6892ZM217.127 41.6243C217.127 42.1147 217.331 42.5234 217.74 42.8503C218.162 43.1772 218.653 43.3407 219.211 43.3407C220.001 43.3407 220.703 43.0478 221.316 42.4621C221.942 41.8763 222.255 41.1885 222.255 40.3984C221.67 39.9353 220.852 39.7037 219.804 39.7037C219.041 39.7037 218.401 39.8876 217.883 40.2554C217.379 40.6232 217.127 41.0795 217.127 41.6243ZM219.558 34.3504C220.948 34.3504 222.044 34.725 222.848 35.4742C223.652 36.2097 224.053 37.2246 224.053 38.5186V44.6892H222.255V43.2998H222.174C221.397 44.444 220.362 45.0161 219.068 45.0161C217.965 45.0161 217.038 44.6892 216.289 44.0354C215.554 43.3815 215.186 42.5642 215.186 41.5835C215.186 40.5482 215.574 39.7241 216.35 39.1112C217.141 38.4982 218.189 38.1917 219.497 38.1917C220.614 38.1917 221.533 38.396 222.255 38.8047V38.3756C222.255 37.7217 221.997 37.1701 221.479 36.7206C220.961 36.2574 220.355 36.0259 219.661 36.0259C218.612 36.0259 217.781 36.4686 217.168 37.354L215.513 36.3119C216.425 35.0042 217.774 34.3504 219.558 34.3504ZM228.053 44.6892H226.174V34.6773H227.972V36.3119H228.053C228.244 35.7807 228.632 35.3312 229.218 34.9634C229.817 34.582 230.403 34.3913 230.975 34.3913C231.52 34.3913 231.983 34.473 232.365 34.6365L231.793 36.4549C231.561 36.3596 231.193 36.3119 230.689 36.3119C229.981 36.3119 229.361 36.598 228.83 37.1701C228.312 37.7422 228.053 38.4096 228.053 39.1725V44.6892ZM242.503 44.6892H240.235L237.108 39.9693L235.576 41.4813V44.6892H233.696V30.0596H235.576V39.0703L239.908 34.6773H242.319V34.759L238.416 38.6412L242.503 44.6075V44.6892Z" fill="#191A20" fill-opacity="0.69"/>
<path d="M454.983 46.2019V48H446.074V46.1202L449.691 42.4628C450.903 41.2232 451.741 40.297 452.204 39.684C452.667 39.0574 452.898 38.4036 452.898 37.7225C452.898 37.1095 452.66 36.5851 452.183 36.1492C451.707 35.7133 451.094 35.4954 450.344 35.4954C449.704 35.4954 449.152 35.6861 448.689 36.0675C448.226 36.4489 447.927 36.912 447.79 37.4569L446.074 36.7622C446.346 35.904 446.871 35.1821 447.647 34.5963C448.424 33.997 449.336 33.6973 450.385 33.6973C451.652 33.6973 452.708 34.0855 453.552 34.8619C454.397 35.6384 454.819 36.5919 454.819 37.7225C454.819 39.071 454.077 40.5285 452.592 42.095L448.505 46.2019H454.983ZM458.896 48H457.016V37.9881H458.814V39.3775H458.896C459.182 38.8871 459.618 38.4785 460.204 38.1516C460.803 37.8246 461.396 37.6612 461.981 37.6612C462.717 37.6612 463.364 37.8315 463.922 38.172C464.481 38.5125 464.89 38.9825 465.148 39.5818C465.979 38.3014 467.13 37.6612 468.601 37.6612C469.759 37.6612 470.651 38.0154 471.278 38.7237C471.905 39.432 472.218 40.44 472.218 41.7477V48H470.338V42.0337C470.338 41.0938 470.168 40.4196 469.827 40.0109C469.487 39.5886 468.915 39.3775 468.111 39.3775C467.389 39.3775 466.783 39.684 466.293 40.297C465.802 40.9099 465.557 41.6319 465.557 42.4628V48H463.677V42.0337C463.677 41.0938 463.507 40.4196 463.166 40.0109C462.826 39.5886 462.254 39.3775 461.45 39.3775C460.728 39.3775 460.122 39.684 459.632 40.297C459.141 40.9099 458.896 41.6319 458.896 42.4628V48Z" fill="#191A20" fill-opacity="0.69"/>
</svg>
