<svg width="502" height="255" viewBox="0 0 502 255" fill="none" xmlns="http://www.w3.org/2000/svg">
<g filter="url(#filter0_d)">
<rect x="41" y="37" width="217.361" height="56.3528" rx="8.94488" fill="white"/>
</g>
<path d="M126.535 54.778C120.791 54.778 116.137 59.474 116.137 65.1764C116.137 70.9207 120.791 75.5748 126.535 75.5748C132.238 75.5748 136.934 70.9207 136.934 65.1764C136.934 59.474 132.238 54.778 126.535 54.778ZM132.447 59.2644C135.508 62.3252 135.676 67.1051 133.118 70.3756L121.336 58.5935C124.607 56.0358 129.387 56.2035 132.447 59.2644ZM120.582 71.1303C117.521 68.0695 117.353 63.2896 119.911 60.0191L131.693 71.8012C128.422 74.3589 123.642 74.1911 120.582 71.1303Z" fill="#F65858"/>
<path d="M158.933 68.0739C158.933 68.632 158.799 69.1526 158.53 69.6357C158.262 70.1079 157.854 70.489 157.307 70.7788C156.759 71.0686 156.088 71.2135 155.294 71.2135C154.521 71.2135 153.829 71.0794 153.217 70.811C152.605 70.5319 152.117 70.1455 151.752 69.6518C151.387 69.158 151.178 68.5891 151.124 67.9451H153.088C153.142 68.4388 153.351 68.8628 153.716 69.217C154.092 69.5713 154.591 69.7484 155.214 69.7484C155.772 69.7484 156.201 69.5981 156.502 69.2975C156.813 68.997 156.969 68.6106 156.969 68.1383C156.969 67.7304 156.856 67.3976 156.631 67.14C156.405 66.8717 156.126 66.6624 155.793 66.5121C155.461 66.3618 155.004 66.1901 154.425 65.9969C153.716 65.7715 153.137 65.5461 152.686 65.3206C152.246 65.0952 151.87 64.7679 151.559 64.3385C151.247 63.9091 151.092 63.3456 151.092 62.6479C151.092 62.0361 151.242 61.4994 151.543 61.0378C151.843 60.5763 152.273 60.2221 152.831 59.9752C153.389 59.7176 154.033 59.5888 154.763 59.5888C155.922 59.5888 156.84 59.8678 157.516 60.426C158.203 60.9842 158.595 61.7141 158.691 62.6157H156.711C156.636 62.1864 156.432 61.8214 156.099 61.5209C155.777 61.2096 155.332 61.0539 154.763 61.0539C154.248 61.0539 153.834 61.1881 153.523 61.4565C153.212 61.7141 153.056 62.0898 153.056 62.5835C153.056 62.9699 153.163 63.2919 153.378 63.5496C153.593 63.7964 153.861 63.995 154.183 64.1453C154.516 64.2848 154.967 64.4512 155.536 64.6444C156.255 64.8698 156.84 65.1006 157.291 65.3367C157.752 65.5622 158.139 65.8949 158.45 66.335C158.772 66.7751 158.933 67.3547 158.933 68.0739ZM165.794 71.1008L162.606 67.1561V71.1008H160.77V59.1862H162.606V66.013L165.762 62.2293H167.967L164.103 66.6409L168.064 71.1008H165.794ZM169.003 59.6532C169.003 59.3419 169.111 59.0843 169.325 58.8803C169.54 58.6764 169.825 58.5744 170.179 58.5744C170.533 58.5744 170.817 58.6764 171.032 58.8803C171.258 59.0843 171.37 59.3419 171.37 59.6532C171.37 59.9645 171.258 60.2167 171.032 60.4099C170.817 60.6031 170.533 60.6997 170.179 60.6997C169.825 60.6997 169.54 60.6031 169.325 60.4099C169.111 60.2167 169.003 59.9645 169.003 59.6532ZM171.097 62.2293V71.1008H169.261V62.2293H171.097ZM178.406 62.1166C179.178 62.1166 179.865 62.2991 180.466 62.664C181.078 63.029 181.556 63.5549 181.899 64.2419C182.243 64.9289 182.415 65.7339 182.415 66.657C182.415 67.5909 182.243 68.4013 181.899 69.0882C181.556 69.7752 181.078 70.3012 180.466 70.6661C179.865 71.0311 179.178 71.2135 178.406 71.2135C177.601 71.2135 176.914 71.015 176.345 70.6178C175.776 70.2207 175.379 69.6947 175.153 69.0399V75.3192H173.318V62.2293H175.153V64.2902C175.379 63.6354 175.776 63.1095 176.345 62.7123C176.914 62.3152 177.601 62.1166 178.406 62.1166ZM177.842 63.7267C177.327 63.7267 176.865 63.8501 176.457 64.097C176.049 64.3331 175.727 64.6766 175.491 65.1274C175.255 65.5675 175.137 66.0774 175.137 66.657C175.137 67.2474 175.255 67.7626 175.491 68.2027C175.727 68.6428 176.049 68.9863 176.457 69.2331C176.865 69.4693 177.327 69.5874 177.842 69.5874C178.658 69.5874 179.313 69.3297 179.806 68.8145C180.3 68.2886 180.547 67.5694 180.547 66.657C180.547 65.7554 180.3 65.0416 179.806 64.5156C179.313 63.9896 178.658 63.7267 177.842 63.7267Z" fill="#F65858"/>
<rect x="41.4793" y="37.4793" width="216.626" height="55.3941" rx="8.46558" stroke="#F65858" stroke-width="0.958609"/>
<g filter="url(#filter1_d)">
<rect x="160" y="150" width="296.97" height="56.3528" rx="8.94488" fill="#00C851"/>
<path d="M276.297 172.118C275.542 172.118 274.955 172.747 274.955 173.459V176.478C274.955 176.688 274.787 176.814 274.62 176.814H273.949C273.739 176.814 273.613 176.688 273.613 176.478V170.105C273.613 169.392 272.984 168.763 272.272 168.763C271.517 168.763 270.93 169.392 270.93 170.105V176.478C270.93 176.688 270.762 176.814 270.594 176.814H269.924C269.714 176.814 269.588 176.688 269.588 176.478V168.763C269.588 168.051 268.959 167.422 268.246 167.422C267.492 167.422 266.905 168.051 266.905 168.763V176.478C266.905 176.688 266.737 176.814 266.569 176.814H265.898C265.689 176.814 265.563 176.688 265.563 176.478V170.105C265.563 169.392 264.934 168.763 264.221 168.763C263.466 168.763 262.879 169.392 262.879 170.105V180.21L261.873 178.868C261.328 178.114 260.28 177.946 259.525 178.491C258.77 179.036 258.603 180.084 259.148 180.839L264.431 188.093C264.808 188.596 265.395 188.931 266.066 188.931H274.326C275.29 188.931 276.087 188.26 276.297 187.38L277.387 182.642C277.555 182.055 277.597 181.468 277.638 180.881V173.459C277.638 172.747 277.01 172.118 276.297 172.118ZM273.655 183.103L270.594 186.08C270.385 186.29 270.091 186.29 269.882 186.08L266.821 183.103C265.94 182.223 266.024 180.797 266.988 179.958C267.869 179.288 269.127 179.413 269.924 180.168L270.259 180.504L270.552 180.168C271.349 179.413 272.607 179.288 273.487 179.958C274.452 180.797 274.536 182.223 273.655 183.103Z" fill="white" fill-opacity="0.87"/>
<path d="M301.199 172.734V184.101H299.348V178.997H294.002V184.101H292.167V172.734H294.002V177.5H299.348V172.734H301.199ZM311.668 179.238C311.668 179.539 311.647 179.802 311.604 180.027H304.777C304.809 180.94 305.062 181.616 305.534 182.056C306.006 182.496 306.591 182.716 307.289 182.716C307.901 182.716 308.416 182.561 308.835 182.249C309.264 181.938 309.527 181.525 309.624 181.009H311.588C311.47 181.632 311.223 182.185 310.847 182.668C310.471 183.151 309.983 183.532 309.382 183.811C308.781 184.079 308.11 184.214 307.369 184.214C306.511 184.214 305.749 184.031 305.083 183.666C304.428 183.301 303.913 182.775 303.537 182.088C303.162 181.401 302.974 180.591 302.974 179.657C302.974 178.734 303.162 177.929 303.537 177.242C303.913 176.555 304.428 176.029 305.083 175.664C305.749 175.299 306.511 175.117 307.369 175.117C308.239 175.117 308.996 175.299 309.64 175.664C310.294 176.018 310.794 176.512 311.137 177.145C311.491 177.768 311.668 178.466 311.668 179.238ZM309.817 179.19C309.838 178.61 309.736 178.127 309.511 177.741C309.296 177.344 308.996 177.054 308.609 176.872C308.233 176.678 307.82 176.582 307.369 176.582C306.65 176.582 306.049 176.802 305.566 177.242C305.083 177.682 304.82 178.331 304.777 179.19H309.817ZM315.276 172.186V184.101H313.441V172.186H315.276ZM322.585 175.117C323.358 175.117 324.045 175.299 324.646 175.664C325.258 176.029 325.735 176.555 326.079 177.242C326.422 177.929 326.594 178.734 326.594 179.657C326.594 180.591 326.422 181.401 326.079 182.088C325.735 182.775 325.258 183.301 324.646 183.666C324.045 184.031 323.358 184.214 322.585 184.214C321.78 184.214 321.093 184.015 320.524 183.618C319.955 183.221 319.558 182.695 319.333 182.04V188.319H317.497V175.229H319.333V177.29C319.558 176.635 319.955 176.109 320.524 175.712C321.093 175.315 321.78 175.117 322.585 175.117ZM322.022 176.727C321.506 176.727 321.045 176.85 320.637 177.097C320.229 177.333 319.907 177.677 319.671 178.127C319.435 178.568 319.317 179.077 319.317 179.657C319.317 180.247 319.435 180.763 319.671 181.203C319.907 181.643 320.229 181.986 320.637 182.233C321.045 182.469 321.506 182.587 322.022 182.587C322.837 182.587 323.492 182.33 323.986 181.815C324.48 181.289 324.726 180.569 324.726 179.657C324.726 178.755 324.48 178.042 323.986 177.516C323.492 176.99 322.837 176.727 322.022 176.727ZM336.193 175.117C337.052 175.117 337.825 175.299 338.512 175.664C339.199 176.029 339.735 176.555 340.122 177.242C340.508 177.929 340.701 178.734 340.701 179.657C340.701 180.591 340.508 181.401 340.122 182.088C339.735 182.775 339.199 183.301 338.512 183.666C337.825 184.031 337.052 184.214 336.193 184.214C335.334 184.214 334.562 184.031 333.875 183.666C333.198 183.301 332.662 182.775 332.264 182.088C331.878 181.391 331.685 180.58 331.685 179.657C331.685 178.734 331.878 177.929 332.264 177.242C332.662 176.555 333.198 176.029 333.875 175.664C334.562 175.299 335.334 175.117 336.193 175.117ZM336.193 176.711C335.721 176.711 335.286 176.818 334.889 177.033C334.492 177.247 334.17 177.58 333.923 178.031C333.687 178.471 333.569 179.013 333.569 179.657C333.569 180.312 333.687 180.859 333.923 181.299C334.17 181.739 334.492 182.067 334.889 182.281C335.286 182.496 335.721 182.603 336.193 182.603C336.665 182.603 337.1 182.496 337.497 182.281C337.894 182.067 338.211 181.739 338.447 181.299C338.694 180.859 338.818 180.312 338.818 179.657C338.818 179.013 338.694 178.471 338.447 178.031C338.211 177.58 337.894 177.247 337.497 177.033C337.1 176.818 336.665 176.711 336.193 176.711ZM350.645 175.229V184.101H348.794V182.169C348.568 182.824 348.176 183.333 347.618 183.698C347.06 184.053 346.411 184.23 345.67 184.23C344.64 184.23 343.813 183.897 343.191 183.231C342.568 182.566 342.257 181.616 342.257 180.382V175.229H344.092V180.188C344.092 180.993 344.296 181.616 344.704 182.056C345.112 182.485 345.67 182.7 346.378 182.7C347.108 182.7 347.693 182.464 348.133 181.992C348.574 181.519 348.794 180.832 348.794 179.931V175.229H350.645ZM357.303 182.507V184.101H356.176C355.232 184.101 354.513 183.875 354.019 183.425C353.536 182.963 353.294 182.201 353.294 181.138V176.791H352.022V175.229H353.294V173.023H355.146V175.229H357.287V176.791H355.146V181.17C355.146 181.675 355.237 182.024 355.42 182.217C355.613 182.41 355.946 182.507 356.418 182.507H357.303Z" fill="white"/>
</g>
<defs>
<filter id="filter0_d" x="0.748032" y="0.325984" width="297.865" height="136.857" filterUnits="userSpaceOnUse" color-interpolation-filters="sRGB">
<feFlood flood-opacity="0" result="BackgroundImageFix"/>
<feColorMatrix in="SourceAlpha" type="matrix" values="0 0 0 0 0 0 0 0 0 0 0 0 0 0 0 0 0 0 127 0"/>
<feOffset dy="3.57795"/>
<feGaussianBlur stdDeviation="20.126"/>
<feColorMatrix type="matrix" values="0 0 0 0 0.964706 0 0 0 0 0.345098 0 0 0 0 0.345098 0 0 0 0.48 0"/>
<feBlend mode="normal" in2="BackgroundImageFix" result="effect1_dropShadow"/>
<feBlend mode="normal" in="SourceGraphic" in2="effect1_dropShadow" result="shape"/>
</filter>
<filter id="filter1_d" x="115.276" y="108.854" width="386.419" height="145.802" filterUnits="userSpaceOnUse" color-interpolation-filters="sRGB">
<feFlood flood-opacity="0" result="BackgroundImageFix"/>
<feColorMatrix in="SourceAlpha" type="matrix" values="0 0 0 0 0 0 0 0 0 0 0 0 0 0 0 0 0 0 127 0"/>
<feOffset dy="3.57795"/>
<feGaussianBlur stdDeviation="22.3622"/>
<feColorMatrix type="matrix" values="0 0 0 0 0.203854 0 0 0 0 0.858333 0 0 0 0 0.468918 0 0 0 0.66 0"/>
<feBlend mode="normal" in2="BackgroundImageFix" result="effect1_dropShadow"/>
<feBlend mode="normal" in="SourceGraphic" in2="effect1_dropShadow" result="shape"/>
</filter>
</defs>
</svg>
